G04*
G04 #@! TF.GenerationSoftware,Altium Limited,Altium Designer,19.1.8 (144)*
G04*
G04 Layer_Color=16711935*
%FSLAX25Y25*%
%MOIN*%
G70*
G01*
G75*
%ADD10C,0.01000*%
D10*
X381890Y-104331D02*
X382865Y-104290D01*
X383834Y-104170D01*
X384789Y-103969D01*
X385725Y-103691D01*
X386634Y-103336D01*
X387511Y-102907D01*
X388350Y-102408D01*
X389144Y-101840D01*
X389889Y-101209D01*
X390579Y-100519D01*
X391210Y-99774D01*
X391778Y-98980D01*
X392277Y-98141D01*
X392706Y-97264D01*
X393061Y-96355D01*
X393339Y-95419D01*
X393540Y-94464D01*
X393660Y-93495D01*
X393701Y-92520D01*
Y92520D02*
X393660Y93495D01*
X393540Y94464D01*
X393339Y95419D01*
X393061Y96355D01*
X392706Y97264D01*
X392277Y98141D01*
X391778Y98980D01*
X391210Y99774D01*
X390579Y100519D01*
X389889Y101209D01*
X389144Y101840D01*
X388350Y102408D01*
X387511Y102907D01*
X386634Y103336D01*
X385725Y103691D01*
X384789Y103969D01*
X383834Y104170D01*
X382865Y104290D01*
X381890Y104331D01*
X11811D02*
X10836Y104290D01*
X9867Y104170D01*
X8912Y103969D01*
X7976Y103691D01*
X7067Y103336D01*
X6190Y102907D01*
X5351Y102408D01*
X4557Y101840D01*
X3812Y101209D01*
X3121Y100519D01*
X2490Y99774D01*
X1923Y98980D01*
X1424Y98141D01*
X995Y97264D01*
X640Y96355D01*
X361Y95419D01*
X161Y94464D01*
X40Y93495D01*
X0Y92520D01*
Y-92520D02*
X40Y-93495D01*
X161Y-94464D01*
X361Y-95419D01*
X640Y-96355D01*
X995Y-97264D01*
X1424Y-98141D01*
X1923Y-98980D01*
X2490Y-99774D01*
X3121Y-100519D01*
X3812Y-101209D01*
X4557Y-101840D01*
X5351Y-102408D01*
X6190Y-102907D01*
X7067Y-103336D01*
X7976Y-103691D01*
X8912Y-103969D01*
X9867Y-104170D01*
X10836Y-104290D01*
X11811Y-104331D01*
X393701Y-92520D02*
Y92520D01*
X0Y-92520D02*
Y92520D01*
X11811Y104331D02*
X381890D01*
X11811Y-104331D02*
X381890D01*
M02*
