M48
;Layer_Color=9474304
;FILE_FORMAT=2:5
INCH,LZ
;TYPE=PLATED
T1F00S00C0.01181
T2F00S00C0.01575
T3F00S00C0.03150
T4F00S00C0.03543
T5F00S00C0.03937
T6F00S00C0.04724
T7F00S00C0.05118
T8F00S00C0.11811
T9F00S00C0.13780
%
T01
X01424Y-0057
X01435Y-00505
X0143667Y-0046
X01495
X015025Y-00505
X01501Y-0057
X01578
X0157Y-00505
X0162Y-0053
X01705Y-00395
X0173Y-00415
X0168Y-0037
X0145Y-0036
X01425Y0037
X0144Y0041
X0142167Y0046
X0148
X01675Y0036
X017Y0038
X0172Y004
X02265Y-0083
X0253
X01219Y-0084
Y-0081
X01285Y-0057
X01347
X013675Y-00505
X0137833Y-0046
X0132
X013Y-00505
X01345Y-0035
X01365Y-00315
X01415Y-0031
X014Y-0035
X01165Y-00425
X0111
Y-00465
X00835Y-0043
Y-004
Y-0037
X00855Y-0023
Y-002
Y-0017
X00955Y-0072
Y-00765
X00884Y-008
Y-00835
X01135Y0022
Y0026
X0118Y00285
X01225Y0027
X01275Y003
X01375Y00365
X01395Y0041
X0135
X0136333Y0046
X01305
X013075Y0052
X01309Y00585
X01386
X01375Y0052
X0124
X01232Y00585
X01155
X01085Y0049
X0094Y00495
X00925Y0058
X00995
X00925Y0066
X0085Y00765
X01125Y00805
X01463Y00585
X0154
X0151Y0052
X014425
X0156Y0068
X02315Y0083
T02
X0302545Y-01005
X030255Y-00815
X03109
X031925
X03276
X033595
X03443
X035265
X0361
X03705Y-0081
X03755Y-0076
X03805Y-0071
X03835Y-00645
Y-00565
Y-00485
Y-0041
X038Y-0034167
X039Y-0031
Y-0051833
Y-0072667
Y-00935
X0366Y-01005
X0334273
X03325Y-0059
X031Y-00585
X0312Y-002
X0307333Y-00005
X0312Y002
X0338Y0019
X0335667Y-00005
X0339Y-002
X0366Y-0034167
X0383Y-0016667
X0379Y-0007667
X039Y-0010167
Y0010667
X0383Y0014833
X0378Y0006333
X0364Y-00005
X03635Y0033833
X0378Y0033333
X03835Y004
Y00475
X039Y00315
X02795Y003
Y00475
X02645Y00265
X02605Y00175
X02555Y0
X02675Y-0004
X0279Y-00005
X0278Y-003
X0266Y-00265
X0262Y-0016
X02455Y-0012
X02315Y-00075
X0237Y0
X02315Y00075
X0243Y00115
X0234Y0036
X0244Y0045
X02105Y0008
Y-0008
X0194
X01885Y-0003
Y0003
X0194Y0008
X01655Y00055
X0163Y00045
X0162Y0
X0165
X01655Y-0005
X0163Y-00045
X0152
Y-00065
X01495
Y-00045
Y-00115
Y-0014
X0152
Y-00115
X0162Y-0016
X01635Y-00175
X0143Y-00195
X01435Y-00255
X015Y-0032
Y-0037
X0153Y-0043
X016
X0163Y-00625
X017Y-00675
X01805Y-0068
X0175636Y-01005
X0143909
X0207364
X0239091
X0270818
X02775Y-00815
X028585
X02942
X0268Y-0076
X02615Y-00645
X02675Y-0055
X02785Y-00495
X02455Y-00455
X02475Y-00595
X02455Y-0069
X0234Y-00345
X0152Y0005
X01495
Y00075
X0152
X01515Y00115
X01495
Y0014
X01515
X0143Y00115
Y00165
X01445Y0
X0162Y0016
X01635Y00175
X01495Y0032
X015Y0037
X0153Y00435
X016
X01325Y0026
X01355Y0017
Y0011
X0132Y0004
X0134Y-00025
Y-00085
X0132Y-0014
X0135Y-0017
Y-0022
X01235Y-00195
Y-00165
X01115Y-0017
X011Y-00025
Y-00005
X0107Y0
Y-00025
X0104Y00145
X01165Y00125
X01195
X01225Y00145
Y002
X00975Y00315
X00785Y0032
X00745Y00435
X00595Y0045
X0036
X0011Y0046
X0014Y-0045
X0005Y-005
Y-007
Y-0086
X0017Y-01005
X0048727
X0080454
X0071Y-00825
X0069Y-00445
X00725Y-00415
X0079Y-003
X00785Y-0019
X0086Y0018
X010725Y-005675
X0112182Y-01005
X00405Y-00445
X00065Y0052
X00055Y00875
X00215Y01005
X0050227
X0081954
X0113682
X0145409
X0177136
X0208864
X0240591
X0272318
X02805Y00825
X028885
X02972
X02685Y0075
X02575Y0083
X0261Y00625
X0266Y00525
X0249364Y0056
X0248864Y00665
X0223364Y00725
X0182364Y0067
X0165864
X0161864Y00595
Y0053
X03135Y0057
X0338Y00565
X033895Y00825
X03473
X035565
X0364
X03715Y00795
X0376Y0075
X03815Y0069
X03835Y00635
Y00555
X039Y0052333
Y0073167
Y0094
X03675Y01005
X0335773
X03306Y00825
X032225
X03139
X030555
X0304045Y01005
T03
X0082Y-0064
Y-0054158
X01185Y-0057579
Y-0067421
T04
X0016Y-0023
Y-0013
Y0012
Y0022
X0073Y0053
Y0063
Y0074
Y0084
T05
X0350027Y-0057
Y-0023333
X0374045Y-0027
Y-0042
X0373Y0026
Y0041
X0349027Y0021833
X0289972
X0290972Y-0023333
Y-0057
X022Y-00005
X0205
X0068528Y-0009167
Y-00275
X0039
Y-0009167
Y0009167
Y00275
X0068528
Y0009167
X0289972Y00555
X0349027
T06
X0174189Y-0056111
X0204111
Y0055811
X0174189
T07
X0237268Y-0063728
X0270732
Y-0017272
X0237268
X0236535Y0017272
X027
Y0063728
X0236535
T08
X03805Y-00935
X0017Y009252
X03805
T09
X0143039Y-007874
Y007874
M30
