G04*
G04 #@! TF.GenerationSoftware,Altium Limited,Altium Designer,19.1.8 (144)*
G04*
G04 Layer_Color=65535*
%FSLAX25Y25*%
%MOIN*%
G70*
G01*
G75*
%ADD10C,0.01000*%
%ADD11C,0.00984*%
%ADD12C,0.00800*%
%ADD13C,0.00787*%
%ADD14C,0.01200*%
G36*
X206297Y15072D02*
X205524D01*
X204105Y18733D01*
Y18727D01*
Y18720D01*
X204111Y18689D01*
X204124Y18639D01*
X204130Y18576D01*
X204143Y18507D01*
X204155Y18431D01*
X204162Y18362D01*
Y18300D01*
Y15072D01*
X203295D01*
Y21000D01*
X204080D01*
X205499Y17270D01*
Y17282D01*
X205487Y17314D01*
X205480Y17364D01*
X205468Y17427D01*
X205455Y17496D01*
X205449Y17571D01*
X205436Y17640D01*
Y17703D01*
Y21000D01*
X206297D01*
Y15072D01*
D02*
G37*
G36*
X219931Y20994D02*
X219962D01*
X220031Y20975D01*
X220119Y20944D01*
X220163Y20918D01*
X220207Y20887D01*
X220245Y20849D01*
X220276Y20805D01*
X220307Y20749D01*
X220333Y20686D01*
X220345Y20617D01*
X220351Y20535D01*
Y15543D01*
Y15536D01*
Y15524D01*
X220345Y15499D01*
Y15467D01*
X220326Y15398D01*
X220295Y15310D01*
X220270Y15266D01*
X220238Y15222D01*
X220201Y15185D01*
X220157Y15147D01*
X220100Y15116D01*
X220037Y15090D01*
X219968Y15078D01*
X219887Y15072D01*
X217883D01*
X217858Y15078D01*
X217827D01*
X217758Y15097D01*
X217670Y15134D01*
X217626Y15160D01*
X217582Y15191D01*
X217544Y15229D01*
X217507Y15273D01*
X217475Y15329D01*
X217450Y15386D01*
X217437Y15461D01*
X217431Y15543D01*
Y17006D01*
X218317D01*
Y15832D01*
X219466D01*
Y20240D01*
X218317D01*
Y18997D01*
X217431D01*
Y20535D01*
Y20542D01*
Y20554D01*
X217437Y20579D01*
Y20611D01*
X217456Y20680D01*
X217494Y20768D01*
X217519Y20812D01*
X217550Y20856D01*
X217588Y20893D01*
X217632Y20925D01*
X217689Y20956D01*
X217745Y20981D01*
X217821Y20994D01*
X217902Y21000D01*
X219905D01*
X219931Y20994D01*
D02*
G37*
G36*
X216320D02*
X216351D01*
X216420Y20975D01*
X216508Y20944D01*
X216552Y20918D01*
X216596Y20887D01*
X216634Y20849D01*
X216665Y20805D01*
X216696Y20749D01*
X216722Y20686D01*
X216734Y20617D01*
X216740Y20535D01*
Y15543D01*
Y15536D01*
Y15524D01*
X216734Y15499D01*
Y15467D01*
X216715Y15398D01*
X216684Y15310D01*
X216659Y15266D01*
X216627Y15222D01*
X216590Y15185D01*
X216546Y15147D01*
X216489Y15116D01*
X216426Y15090D01*
X216357Y15078D01*
X216276Y15072D01*
X214272D01*
X214247Y15078D01*
X214216D01*
X214147Y15097D01*
X214059Y15134D01*
X214015Y15160D01*
X213971Y15191D01*
X213933Y15229D01*
X213896Y15273D01*
X213864Y15329D01*
X213839Y15386D01*
X213826Y15461D01*
X213820Y15543D01*
Y17006D01*
X214706D01*
Y15832D01*
X215855D01*
Y20240D01*
X214706D01*
Y18997D01*
X213820D01*
Y20535D01*
Y20542D01*
Y20554D01*
X213826Y20579D01*
Y20611D01*
X213845Y20680D01*
X213883Y20768D01*
X213908Y20812D01*
X213939Y20856D01*
X213977Y20893D01*
X214021Y20925D01*
X214078Y20956D01*
X214134Y20981D01*
X214210Y20994D01*
X214291Y21000D01*
X216294D01*
X216320Y20994D01*
D02*
G37*
G36*
X209518D02*
X209550D01*
X209619Y20975D01*
X209707Y20944D01*
X209751Y20918D01*
X209795Y20887D01*
X209832Y20849D01*
X209864Y20805D01*
X209895Y20749D01*
X209920Y20686D01*
X209933Y20617D01*
X209939Y20535D01*
Y15543D01*
Y15536D01*
Y15524D01*
X209933Y15499D01*
Y15467D01*
X209914Y15398D01*
X209876Y15310D01*
X209851Y15266D01*
X209820Y15222D01*
X209782Y15185D01*
X209738Y15147D01*
X209682Y15116D01*
X209619Y15090D01*
X209543Y15078D01*
X209462Y15072D01*
X207458D01*
X207433Y15078D01*
X207402D01*
X207333Y15097D01*
X207245Y15134D01*
X207201Y15160D01*
X207157Y15191D01*
X207119Y15229D01*
X207082Y15273D01*
X207050Y15329D01*
X207025Y15386D01*
X207013Y15461D01*
X207006Y15543D01*
Y16880D01*
X207898D01*
Y15832D01*
X209054D01*
Y20240D01*
X207898D01*
Y18576D01*
X208551D01*
Y17822D01*
X207006D01*
Y20535D01*
Y20542D01*
Y20554D01*
X207013Y20579D01*
Y20611D01*
X207031Y20680D01*
X207069Y20768D01*
X207094Y20812D01*
X207126Y20856D01*
X207163Y20893D01*
X207207Y20925D01*
X207264Y20956D01*
X207320Y20981D01*
X207396Y20994D01*
X207477Y21000D01*
X209493D01*
X209518Y20994D01*
D02*
G37*
G36*
X224000Y15072D02*
X223108D01*
X222449Y19141D01*
Y19147D01*
Y19173D01*
Y19210D01*
X222443Y19267D01*
Y19336D01*
X222436Y19424D01*
Y19524D01*
X222430Y19644D01*
Y19637D01*
Y19612D01*
Y19574D01*
X222424Y19518D01*
Y19449D01*
X222417Y19361D01*
X222411Y19260D01*
X222405Y19141D01*
X221733Y15072D01*
X220847D01*
X221984Y21006D01*
X222870D01*
X224000Y15072D01*
D02*
G37*
G36*
X202579D02*
X200720D01*
X200682Y15078D01*
X200638D01*
X200588Y15090D01*
X200469Y15109D01*
X200337Y15147D01*
X200199Y15204D01*
X200130Y15235D01*
X200061Y15279D01*
X199998Y15323D01*
X199935Y15379D01*
X199929Y15386D01*
X199923Y15392D01*
X199904Y15411D01*
X199885Y15436D01*
X199860Y15467D01*
X199835Y15499D01*
X199809Y15543D01*
X199778Y15593D01*
X199722Y15712D01*
X199671Y15850D01*
X199634Y16014D01*
X199627Y16102D01*
X199621Y16196D01*
Y19882D01*
Y19888D01*
Y19907D01*
Y19932D01*
X199627Y19970D01*
Y20014D01*
X199640Y20064D01*
X199659Y20184D01*
X199696Y20315D01*
X199753Y20454D01*
X199791Y20516D01*
X199828Y20585D01*
X199879Y20648D01*
X199935Y20705D01*
X199941D01*
X199948Y20717D01*
X199966Y20730D01*
X199992Y20749D01*
X200023Y20774D01*
X200061Y20799D01*
X200105Y20824D01*
X200155Y20849D01*
X200274Y20906D01*
X200419Y20956D01*
X200582Y20987D01*
X200676Y20994D01*
X200770Y21000D01*
X202579D01*
Y15072D01*
D02*
G37*
G36*
X367357Y16402D02*
X372500D01*
Y15517D01*
X367357D01*
Y14537D01*
X366572D01*
Y17382D01*
X367357D01*
Y16402D01*
D02*
G37*
G36*
X372079Y14079D02*
X372111D01*
X372180Y14060D01*
X372268Y14022D01*
X372312Y13997D01*
X372356Y13966D01*
X372393Y13928D01*
X372425Y13884D01*
X372456Y13828D01*
X372481Y13771D01*
X372494Y13696D01*
X372500Y13614D01*
Y11567D01*
X372494Y11542D01*
Y11510D01*
X372475Y11441D01*
X372444Y11353D01*
X372418Y11309D01*
X372387Y11265D01*
X372349Y11228D01*
X372305Y11196D01*
X372249Y11165D01*
X372186Y11140D01*
X372117Y11127D01*
X372035Y11121D01*
X366572D01*
Y12006D01*
X371740D01*
Y13200D01*
X366572D01*
Y14085D01*
X372035D01*
X372042D01*
X372054D01*
X372079Y14079D01*
D02*
G37*
G36*
Y10405D02*
X372111D01*
X372180Y10386D01*
X372268Y10349D01*
X372312Y10323D01*
X372356Y10292D01*
X372393Y10254D01*
X372425Y10210D01*
X372456Y10154D01*
X372481Y10097D01*
X372494Y10022D01*
X372500Y9940D01*
Y7868D01*
X372494Y7843D01*
Y7811D01*
X372475Y7742D01*
X372444Y7654D01*
X372418Y7610D01*
X372387Y7566D01*
X372349Y7529D01*
X372305Y7497D01*
X372249Y7466D01*
X372186Y7441D01*
X372117Y7428D01*
X372035Y7422D01*
X367043D01*
X367036D01*
X367024D01*
X366999Y7428D01*
X366967D01*
X366898Y7447D01*
X366810Y7479D01*
X366766Y7504D01*
X366722Y7535D01*
X366685Y7573D01*
X366647Y7617D01*
X366616Y7673D01*
X366590Y7736D01*
X366578Y7805D01*
X366572Y7887D01*
Y9959D01*
X366578Y9984D01*
Y10016D01*
X366597Y10085D01*
X366634Y10173D01*
X366660Y10217D01*
X366691Y10261D01*
X366729Y10298D01*
X366773Y10336D01*
X366829Y10367D01*
X366886Y10392D01*
X366961Y10405D01*
X367043Y10411D01*
X372035D01*
X372042D01*
X372054D01*
X372079Y10405D01*
D02*
G37*
G36*
X374051Y3999D02*
X373392D01*
Y7070D01*
X374051D01*
Y3999D01*
D02*
G37*
G36*
X372500Y1500D02*
X366572D01*
Y2386D01*
X371709D01*
Y3830D01*
X372500D01*
Y1500D01*
D02*
G37*
G36*
X367357Y-4382D02*
X372500D01*
Y-5267D01*
X367357D01*
Y-6247D01*
X366572D01*
Y-3402D01*
X367357D01*
Y-4382D01*
D02*
G37*
G36*
X372079Y-6705D02*
X372111D01*
X372180Y-6724D01*
X372268Y-6762D01*
X372312Y-6787D01*
X372356Y-6818D01*
X372393Y-6856D01*
X372425Y-6900D01*
X372456Y-6956D01*
X372481Y-7013D01*
X372494Y-7088D01*
X372500Y-7170D01*
Y-9217D01*
X372494Y-9242D01*
Y-9274D01*
X372475Y-9343D01*
X372444Y-9431D01*
X372418Y-9475D01*
X372387Y-9519D01*
X372349Y-9556D01*
X372305Y-9588D01*
X372249Y-9619D01*
X372186Y-9644D01*
X372117Y-9657D01*
X372035Y-9663D01*
X366572D01*
Y-8778D01*
X371740D01*
Y-7584D01*
X366572D01*
Y-6699D01*
X372035D01*
X372042D01*
X372054D01*
X372079Y-6705D01*
D02*
G37*
G36*
Y-10379D02*
X372111D01*
X372180Y-10398D01*
X372268Y-10436D01*
X372312Y-10461D01*
X372356Y-10492D01*
X372393Y-10530D01*
X372425Y-10574D01*
X372456Y-10630D01*
X372481Y-10687D01*
X372494Y-10762D01*
X372500Y-10844D01*
Y-12916D01*
X372494Y-12941D01*
Y-12973D01*
X372475Y-13042D01*
X372444Y-13130D01*
X372418Y-13174D01*
X372387Y-13218D01*
X372349Y-13255D01*
X372305Y-13287D01*
X372249Y-13318D01*
X372186Y-13343D01*
X372117Y-13356D01*
X372035Y-13362D01*
X367043D01*
X367036D01*
X367024D01*
X366999Y-13356D01*
X366967D01*
X366898Y-13337D01*
X366810Y-13306D01*
X366766Y-13280D01*
X366722Y-13249D01*
X366685Y-13211D01*
X366647Y-13167D01*
X366616Y-13111D01*
X366590Y-13048D01*
X366578Y-12979D01*
X366572Y-12897D01*
Y-10825D01*
X366578Y-10800D01*
Y-10768D01*
X366597Y-10699D01*
X366634Y-10611D01*
X366660Y-10567D01*
X366691Y-10524D01*
X366729Y-10486D01*
X366773Y-10448D01*
X366829Y-10417D01*
X366886Y-10392D01*
X366961Y-10379D01*
X367043Y-10373D01*
X372035D01*
X372042D01*
X372054D01*
X372079Y-10379D01*
D02*
G37*
G36*
X374051Y-16785D02*
X373392D01*
Y-13714D01*
X374051D01*
Y-16785D01*
D02*
G37*
G36*
X372500Y-17884D02*
X369749Y-18870D01*
X369743D01*
X369718D01*
X369705D01*
X369680D01*
X369655D01*
X369618D01*
X369573D01*
X369523D01*
X369461D01*
X369385D01*
X369303D01*
X369209D01*
Y-17997D01*
X367332D01*
Y-19115D01*
X372500D01*
Y-20000D01*
X366572D01*
Y-17563D01*
X366578Y-17538D01*
Y-17507D01*
X366597Y-17432D01*
X366634Y-17344D01*
X366660Y-17300D01*
X366691Y-17262D01*
X366729Y-17218D01*
X366773Y-17187D01*
X366829Y-17155D01*
X366886Y-17130D01*
X366961Y-17118D01*
X367043Y-17111D01*
X369341D01*
X369347D01*
X369354D01*
X369391Y-17118D01*
X369448Y-17124D01*
X369511Y-17143D01*
X369586Y-17174D01*
X369655Y-17218D01*
X369712Y-17281D01*
X369762Y-17369D01*
Y-17375D01*
X369768Y-17394D01*
X369775Y-17438D01*
X369781Y-17494D01*
X369793Y-17570D01*
X369800Y-17670D01*
Y-17727D01*
X369806Y-17796D01*
Y-17946D01*
X372500Y-16961D01*
Y-17884D01*
D02*
G37*
G36*
X17654Y-60091D02*
X17649Y-60113D01*
Y-60140D01*
X17632Y-60200D01*
X17600Y-60277D01*
X17578Y-60315D01*
X17550Y-60353D01*
X17518Y-60386D01*
X17480Y-60419D01*
X17430Y-60446D01*
X17381Y-60468D01*
X17316Y-60479D01*
X17245Y-60484D01*
X14771D01*
X14766D01*
X14755D01*
X14733Y-60479D01*
X14706D01*
X14646Y-60462D01*
X14569Y-60430D01*
X14531Y-60408D01*
X14493Y-60381D01*
X14460Y-60348D01*
X14433Y-60310D01*
X14405Y-60260D01*
X14384Y-60211D01*
X14373Y-60146D01*
X14367Y-60075D01*
Y-58770D01*
X12500D01*
Y-58000D01*
X17654D01*
Y-60091D01*
D02*
G37*
G36*
X15454Y-60997D02*
X15481D01*
X15541Y-61014D01*
X15618Y-61041D01*
X15656Y-61063D01*
X15694Y-61090D01*
X15727Y-61123D01*
X15754Y-61161D01*
X15781Y-61211D01*
X15803Y-61265D01*
X15814Y-61325D01*
X15820Y-61396D01*
Y-62816D01*
X15814Y-62843D01*
X15798Y-62903D01*
X15770Y-62980D01*
X15749Y-63018D01*
X15721Y-63056D01*
X15689Y-63089D01*
X15650Y-63121D01*
X15601Y-63149D01*
X15547Y-63171D01*
X15487Y-63182D01*
X15416Y-63187D01*
X12904D01*
X12899D01*
X12888D01*
X12866Y-63182D01*
X12839D01*
X12778Y-63165D01*
X12702Y-63132D01*
X12664Y-63111D01*
X12626Y-63083D01*
X12593Y-63051D01*
X12565Y-63012D01*
X12538Y-62963D01*
X12516Y-62914D01*
X12506Y-62849D01*
X12500Y-62778D01*
Y-61380D01*
X12506Y-61358D01*
Y-61331D01*
X12522Y-61270D01*
X12549Y-61194D01*
X12571Y-61156D01*
X12598Y-61118D01*
X12631Y-61085D01*
X12669Y-61058D01*
X12718Y-61030D01*
X12773Y-61009D01*
X12833Y-60997D01*
X12904Y-60992D01*
X15416D01*
X15421D01*
X15432D01*
X15454Y-60997D01*
D02*
G37*
G36*
X15825Y-64284D02*
X13696Y-64645D01*
X15825Y-65005D01*
Y-65579D01*
X13696Y-65939D01*
X15825Y-66305D01*
Y-67025D01*
X12494Y-66310D01*
Y-65649D01*
X14335Y-65284D01*
X12494Y-64929D01*
Y-64279D01*
X15825Y-63564D01*
Y-64284D01*
D02*
G37*
G36*
X15454Y-67397D02*
X15481D01*
X15541Y-67413D01*
X15618Y-67440D01*
X15656Y-67462D01*
X15694Y-67489D01*
X15727Y-67522D01*
X15760Y-67560D01*
X15787Y-67610D01*
X15809Y-67664D01*
X15820Y-67724D01*
X15825Y-67795D01*
Y-69149D01*
X15820Y-69171D01*
Y-69199D01*
X15803Y-69258D01*
X15770Y-69335D01*
X15749Y-69373D01*
X15721Y-69411D01*
X15689Y-69444D01*
X15650Y-69477D01*
X15601Y-69504D01*
X15552Y-69526D01*
X15487Y-69537D01*
X15416Y-69542D01*
X14187D01*
X13985Y-69330D01*
Y-68112D01*
X13051D01*
Y-68822D01*
X13608D01*
Y-69542D01*
X12904D01*
X12899D01*
X12888D01*
X12866Y-69537D01*
X12839D01*
X12778Y-69521D01*
X12702Y-69488D01*
X12664Y-69466D01*
X12626Y-69439D01*
X12593Y-69406D01*
X12565Y-69368D01*
X12538Y-69319D01*
X12516Y-69269D01*
X12506Y-69204D01*
X12500Y-69133D01*
Y-67779D01*
X12506Y-67757D01*
Y-67730D01*
X12522Y-67670D01*
X12549Y-67593D01*
X12571Y-67555D01*
X12598Y-67517D01*
X12631Y-67484D01*
X12669Y-67457D01*
X12718Y-67429D01*
X12773Y-67408D01*
X12833Y-67397D01*
X12904Y-67391D01*
X15416D01*
X15421D01*
X15432D01*
X15454Y-67397D01*
D02*
G37*
G36*
X15825Y-70842D02*
X15694D01*
Y-70853D01*
X15700Y-70880D01*
X15710Y-70929D01*
X15721Y-70984D01*
X15732Y-71055D01*
X15749Y-71137D01*
X15765Y-71219D01*
X15781Y-71306D01*
Y-71317D01*
X15792Y-71355D01*
X15798Y-71404D01*
X15809Y-71470D01*
X15820Y-71541D01*
X15825Y-71623D01*
X15836Y-71699D01*
Y-71792D01*
X15831Y-71814D01*
Y-71841D01*
X15814Y-71901D01*
X15781Y-71978D01*
X15760Y-72016D01*
X15732Y-72054D01*
X15700Y-72087D01*
X15661Y-72120D01*
X15612Y-72147D01*
X15563Y-72169D01*
X15497Y-72180D01*
X15427Y-72185D01*
X14438D01*
Y-71437D01*
X15192D01*
X15175Y-70842D01*
X12500D01*
Y-70088D01*
X15825D01*
Y-70842D01*
D02*
G37*
G36*
X66370Y85922D02*
X65858D01*
Y86922D01*
X64714D01*
Y86069D01*
X64214D01*
Y86922D01*
X62500D01*
Y87500D01*
X66370D01*
Y85922D01*
D02*
G37*
G36*
X66374Y84983D02*
Y84376D01*
X62500Y83630D01*
Y84204D01*
X63234Y84323D01*
Y85048D01*
X62500Y85163D01*
Y85733D01*
X62508D01*
X66374Y84983D01*
D02*
G37*
G36*
X66370Y82728D02*
X63017D01*
Y81785D01*
X62500D01*
Y83306D01*
X66370D01*
Y82728D01*
D02*
G37*
G36*
Y79755D02*
X65858D01*
Y80395D01*
X62500D01*
Y80973D01*
X65858D01*
Y81612D01*
X66370D01*
Y79755D01*
D02*
G37*
G36*
X66092Y77377D02*
X66112D01*
X66157Y77365D01*
X66215Y77344D01*
X66243Y77328D01*
X66272Y77307D01*
X66297Y77283D01*
X66321Y77254D01*
X66342Y77217D01*
X66358Y77176D01*
X66366Y77131D01*
X66370Y77078D01*
Y75725D01*
X66366Y75708D01*
Y75688D01*
X66354Y75643D01*
X66329Y75585D01*
X66313Y75557D01*
X66293Y75528D01*
X66268Y75503D01*
X66239Y75479D01*
X66202Y75458D01*
X66165Y75442D01*
X66116Y75434D01*
X66063Y75430D01*
X62803D01*
X62799D01*
X62791D01*
X62775Y75434D01*
X62754D01*
X62709Y75446D01*
X62652Y75471D01*
X62623Y75487D01*
X62594Y75507D01*
X62570Y75532D01*
X62549Y75561D01*
X62529Y75598D01*
X62512Y75635D01*
X62504Y75684D01*
X62500Y75737D01*
Y77090D01*
X62504Y77106D01*
Y77127D01*
X62516Y77172D01*
X62537Y77229D01*
X62553Y77258D01*
X62574Y77287D01*
X62598Y77311D01*
X62627Y77332D01*
X62664Y77352D01*
X62705Y77369D01*
X62750Y77377D01*
X62803Y77381D01*
X66063D01*
X66067D01*
X66075D01*
X66092Y77377D01*
D02*
G37*
G36*
X66370Y73281D02*
X65858D01*
Y73921D01*
X62500D01*
Y74499D01*
X65858D01*
Y75138D01*
X66370D01*
Y73281D01*
D02*
G37*
G36*
Y72547D02*
X64074Y72248D01*
X64070D01*
X64054D01*
X64025Y72244D01*
X63984D01*
X63935Y72240D01*
X63878Y72236D01*
X63804Y72232D01*
X63722Y72228D01*
X63726D01*
X63742D01*
X63771D01*
X63808Y72223D01*
X63857D01*
X63919Y72219D01*
X63992Y72215D01*
X64074Y72207D01*
X66370Y71871D01*
Y71395D01*
X64074Y71067D01*
X64070D01*
X64054D01*
X64025Y71063D01*
X63984Y71059D01*
X63935D01*
X63878Y71055D01*
X63804Y71047D01*
X63722Y71043D01*
X63726D01*
X63742D01*
X63771Y71039D01*
X63808D01*
X63857Y71034D01*
X63919Y71030D01*
X63992Y71026D01*
X64074Y71022D01*
X66370Y70723D01*
Y70136D01*
X62496Y70702D01*
Y71268D01*
X64689Y71617D01*
X64693D01*
X64710D01*
X64739D01*
X64780Y71621D01*
X64829D01*
X64890Y71625D01*
X64964Y71629D01*
X65046Y71633D01*
X65042D01*
X65026D01*
X64997D01*
X64956Y71637D01*
X64907D01*
X64845Y71641D01*
X64771Y71645D01*
X64689Y71653D01*
X62496Y71998D01*
Y72568D01*
X66370Y73134D01*
Y72547D01*
D02*
G37*
G36*
X9501Y-11506D02*
X9533D01*
X9602Y-11525D01*
X9690Y-11557D01*
X9734Y-11582D01*
X9778Y-11613D01*
X9815Y-11651D01*
X9853Y-11695D01*
X9884Y-11751D01*
X9910Y-11814D01*
X9922Y-11883D01*
X9928Y-11965D01*
Y-13968D01*
X9922Y-13993D01*
Y-14025D01*
X9903Y-14094D01*
X9866Y-14182D01*
X9840Y-14225D01*
X9809Y-14269D01*
X9771Y-14307D01*
X9727Y-14345D01*
X9671Y-14376D01*
X9614Y-14401D01*
X9539Y-14414D01*
X9457Y-14420D01*
X7994D01*
Y-13535D01*
X9168D01*
Y-12386D01*
X4760D01*
Y-13535D01*
X6003D01*
Y-14420D01*
X4465D01*
X4458D01*
X4446D01*
X4421Y-14414D01*
X4389D01*
X4320Y-14395D01*
X4232Y-14357D01*
X4188Y-14332D01*
X4144Y-14301D01*
X4107Y-14263D01*
X4075Y-14219D01*
X4044Y-14163D01*
X4019Y-14106D01*
X4006Y-14031D01*
X4000Y-13949D01*
Y-11946D01*
X4006Y-11921D01*
Y-11889D01*
X4025Y-11820D01*
X4056Y-11732D01*
X4082Y-11688D01*
X4113Y-11644D01*
X4151Y-11607D01*
X4195Y-11575D01*
X4251Y-11544D01*
X4314Y-11519D01*
X4383Y-11506D01*
X4465Y-11500D01*
X9457D01*
X9464D01*
X9476D01*
X9501Y-11506D01*
D02*
G37*
G36*
X9928Y-15996D02*
X7485D01*
Y-17196D01*
X9928D01*
Y-18088D01*
X4000D01*
Y-17196D01*
X6663D01*
Y-15996D01*
X4000D01*
Y-15111D01*
X9928D01*
Y-15996D01*
D02*
G37*
G36*
X3108Y-21510D02*
X2449D01*
Y-18439D01*
X3108D01*
Y-21510D01*
D02*
G37*
G36*
X9928Y-24299D02*
X9922Y-24324D01*
Y-24355D01*
X9903Y-24430D01*
X9866Y-24518D01*
X9840Y-24562D01*
X9809Y-24600D01*
X9771Y-24644D01*
X9727Y-24675D01*
X9671Y-24707D01*
X9614Y-24732D01*
X9539Y-24745D01*
X9457Y-24751D01*
X7159D01*
X7153D01*
X7146D01*
X7109Y-24745D01*
X7052Y-24738D01*
X6989Y-24719D01*
X6914Y-24688D01*
X6845Y-24644D01*
X6788Y-24581D01*
X6738Y-24493D01*
Y-24487D01*
X6732Y-24468D01*
X6725Y-24424D01*
X6719Y-24368D01*
X6707Y-24292D01*
X6700Y-24192D01*
Y-24135D01*
X6694Y-24066D01*
Y-23916D01*
X4000Y-24902D01*
Y-23978D01*
X6751Y-22992D01*
X6757D01*
X6782D01*
X6795D01*
X6820D01*
X6845D01*
X6882D01*
X6927D01*
X6977D01*
X7040D01*
X7115D01*
X7197D01*
X7291D01*
Y-23865D01*
X9168D01*
Y-22748D01*
X4000D01*
Y-21862D01*
X9928D01*
Y-24299D01*
D02*
G37*
G36*
X9501Y22494D02*
X9533D01*
X9602Y22475D01*
X9690Y22444D01*
X9734Y22418D01*
X9778Y22387D01*
X9815Y22349D01*
X9853Y22305D01*
X9884Y22249D01*
X9910Y22186D01*
X9922Y22117D01*
X9928Y22035D01*
Y20032D01*
X9922Y20007D01*
Y19975D01*
X9903Y19906D01*
X9866Y19818D01*
X9840Y19774D01*
X9809Y19730D01*
X9771Y19693D01*
X9727Y19655D01*
X9671Y19624D01*
X9614Y19599D01*
X9539Y19586D01*
X9457Y19580D01*
X7994D01*
Y20465D01*
X9168D01*
Y21614D01*
X4760D01*
Y20465D01*
X6003D01*
Y19580D01*
X4465D01*
X4458D01*
X4446D01*
X4421Y19586D01*
X4389D01*
X4320Y19605D01*
X4232Y19643D01*
X4188Y19668D01*
X4144Y19699D01*
X4107Y19737D01*
X4075Y19781D01*
X4044Y19837D01*
X4019Y19894D01*
X4006Y19969D01*
X4000Y20051D01*
Y22054D01*
X4006Y22079D01*
Y22111D01*
X4025Y22180D01*
X4056Y22268D01*
X4082Y22312D01*
X4113Y22356D01*
X4151Y22393D01*
X4195Y22425D01*
X4251Y22456D01*
X4314Y22481D01*
X4383Y22494D01*
X4465Y22500D01*
X9457D01*
X9464D01*
X9476D01*
X9501Y22494D01*
D02*
G37*
G36*
X9928Y18003D02*
X7485D01*
Y16804D01*
X9928D01*
Y15912D01*
X4000D01*
Y16804D01*
X6663D01*
Y18003D01*
X4000D01*
Y18889D01*
X9928D01*
Y18003D01*
D02*
G37*
G36*
X3108Y12490D02*
X2449D01*
Y15561D01*
X3108D01*
Y12490D01*
D02*
G37*
G36*
X9928Y11253D02*
X4791D01*
Y9808D01*
X4000D01*
Y12138D01*
X9928D01*
Y11253D01*
D02*
G37*
G36*
X66370Y65909D02*
X66366Y65893D01*
Y65872D01*
X66354Y65823D01*
X66329Y65766D01*
X66313Y65737D01*
X66293Y65712D01*
X66268Y65684D01*
X66239Y65663D01*
X66202Y65643D01*
X66165Y65626D01*
X66116Y65618D01*
X66063Y65614D01*
X64562D01*
X64558D01*
X64554D01*
X64530Y65618D01*
X64493Y65622D01*
X64452Y65635D01*
X64402Y65655D01*
X64357Y65684D01*
X64320Y65725D01*
X64288Y65782D01*
Y65786D01*
X64284Y65798D01*
X64279Y65827D01*
X64275Y65864D01*
X64267Y65913D01*
X64263Y65979D01*
Y66016D01*
X64259Y66061D01*
Y66159D01*
X62500Y65516D01*
Y66118D01*
X64296Y66762D01*
X64300D01*
X64316D01*
X64324D01*
X64341D01*
X64357D01*
X64382D01*
X64411D01*
X64443D01*
X64484D01*
X64534D01*
X64587D01*
X64648D01*
Y66192D01*
X65874D01*
Y66922D01*
X62500D01*
Y67500D01*
X66370D01*
Y65909D01*
D02*
G37*
G36*
X66092Y65175D02*
X66112D01*
X66157Y65163D01*
X66215Y65143D01*
X66243Y65126D01*
X66272Y65106D01*
X66297Y65081D01*
X66321Y65052D01*
X66342Y65015D01*
X66358Y64974D01*
X66366Y64929D01*
X66370Y64876D01*
Y63613D01*
X66366Y63597D01*
Y63576D01*
X66354Y63527D01*
X66329Y63470D01*
X66313Y63441D01*
X66297Y63416D01*
X66272Y63388D01*
X66239Y63367D01*
X66206Y63347D01*
X66165Y63330D01*
X66120Y63322D01*
X66067Y63318D01*
X65153D01*
Y63896D01*
X65882D01*
Y64601D01*
X65181D01*
X64087Y63445D01*
X64083Y63441D01*
X64066Y63425D01*
X64038Y63404D01*
X64005Y63380D01*
X63955Y63359D01*
X63902Y63339D01*
X63841Y63322D01*
X63771Y63318D01*
X62803D01*
X62799D01*
X62791D01*
X62775D01*
X62754Y63322D01*
X62709Y63334D01*
X62652Y63355D01*
X62623Y63371D01*
X62594Y63392D01*
X62570Y63416D01*
X62549Y63449D01*
X62529Y63482D01*
X62512Y63523D01*
X62504Y63572D01*
X62500Y63626D01*
Y64888D01*
X62504Y64905D01*
Y64925D01*
X62516Y64970D01*
X62537Y65028D01*
X62553Y65056D01*
X62574Y65085D01*
X62598Y65110D01*
X62627Y65130D01*
X62664Y65151D01*
X62705Y65167D01*
X62750Y65175D01*
X62803Y65179D01*
X63775D01*
Y64601D01*
X62988D01*
Y63896D01*
X63746D01*
X64845Y65056D01*
X64849Y65061D01*
X64866Y65077D01*
X64894Y65093D01*
X64927Y65118D01*
X64972Y65138D01*
X65026Y65159D01*
X65087Y65175D01*
X65153Y65179D01*
X66063D01*
X66067D01*
X66075D01*
X66092Y65175D01*
D02*
G37*
G36*
X66370Y61170D02*
X65858D01*
Y61809D01*
X62500D01*
Y62387D01*
X65858D01*
Y63027D01*
X66370D01*
Y61170D01*
D02*
G37*
G36*
X66092Y58792D02*
X66112D01*
X66157Y58779D01*
X66215Y58759D01*
X66243Y58742D01*
X66272Y58722D01*
X66297Y58697D01*
X66321Y58669D01*
X66342Y58632D01*
X66358Y58591D01*
X66366Y58546D01*
X66370Y58492D01*
Y57184D01*
X66366Y57168D01*
Y57148D01*
X66354Y57102D01*
X66329Y57045D01*
X66313Y57016D01*
X66293Y56988D01*
X66268Y56963D01*
X66239Y56938D01*
X66202Y56918D01*
X66165Y56902D01*
X66116Y56893D01*
X66063Y56889D01*
X65108D01*
Y57467D01*
X65874D01*
Y58218D01*
X62996D01*
Y57467D01*
X63808D01*
Y56889D01*
X62803D01*
X62799D01*
X62791D01*
X62775Y56893D01*
X62754D01*
X62709Y56906D01*
X62652Y56930D01*
X62623Y56947D01*
X62594Y56967D01*
X62570Y56992D01*
X62549Y57020D01*
X62529Y57057D01*
X62512Y57094D01*
X62504Y57143D01*
X62500Y57197D01*
Y58505D01*
X62504Y58521D01*
Y58542D01*
X62516Y58587D01*
X62537Y58644D01*
X62553Y58673D01*
X62574Y58701D01*
X62598Y58726D01*
X62627Y58746D01*
X62664Y58767D01*
X62705Y58783D01*
X62750Y58792D01*
X62803Y58796D01*
X66063D01*
X66067D01*
X66075D01*
X66092Y58792D01*
D02*
G37*
G36*
X66370Y55860D02*
X62996D01*
Y55081D01*
X66370D01*
Y54503D01*
X62803D01*
X62799D01*
X62791D01*
X62775Y54507D01*
X62754D01*
X62709Y54519D01*
X62652Y54544D01*
X62623Y54560D01*
X62594Y54581D01*
X62570Y54606D01*
X62549Y54634D01*
X62529Y54671D01*
X62512Y54708D01*
X62504Y54757D01*
X62500Y54811D01*
Y56147D01*
X62504Y56164D01*
Y56184D01*
X62516Y56229D01*
X62537Y56287D01*
X62553Y56315D01*
X62574Y56344D01*
X62598Y56368D01*
X62627Y56389D01*
X62664Y56410D01*
X62705Y56426D01*
X62750Y56434D01*
X62803Y56438D01*
X66370D01*
Y55860D01*
D02*
G37*
G36*
Y53494D02*
X64230Y52883D01*
X64222Y52879D01*
X64214D01*
X64197Y52875D01*
X64173D01*
X64144Y52871D01*
X64103Y52867D01*
X64078D01*
X64099Y52863D01*
X64124D01*
X64156Y52859D01*
X64189Y52855D01*
X64230Y52851D01*
X66370Y52240D01*
Y51695D01*
X62500D01*
Y52252D01*
X64407D01*
X64415D01*
X64435D01*
X64468D01*
X64517Y52248D01*
X64575Y52244D01*
X64648Y52240D01*
X64735Y52232D01*
X64829Y52219D01*
X62857Y52719D01*
Y53015D01*
X64829Y53515D01*
X64825D01*
X64816D01*
X64804Y53511D01*
X64784D01*
X64735Y53503D01*
X64673Y53494D01*
X64603Y53490D01*
X64534Y53482D01*
X64468Y53478D01*
X64407D01*
X62500D01*
Y54036D01*
X66370D01*
Y53494D01*
D02*
G37*
G36*
Y49550D02*
X65858D01*
Y50190D01*
X62500D01*
Y50768D01*
X65858D01*
Y51407D01*
X66370D01*
Y49550D01*
D02*
G37*
G36*
Y47672D02*
X65858D01*
Y48681D01*
X64730D01*
Y47808D01*
X64230D01*
Y48681D01*
X63012D01*
Y47656D01*
X62500D01*
Y49259D01*
X66370D01*
Y47672D01*
D02*
G37*
%LPC*%
G36*
X201693Y20240D02*
X201034D01*
X201009Y20234D01*
X200971D01*
X200934Y20228D01*
X200883Y20215D01*
X200783Y20177D01*
X200733Y20152D01*
X200682Y20114D01*
X200638Y20077D01*
X200601Y20027D01*
X200563Y19970D01*
X200538Y19901D01*
X200519Y19826D01*
X200513Y19738D01*
Y16334D01*
Y16328D01*
Y16315D01*
X200519Y16290D01*
Y16252D01*
X200538Y16177D01*
X200576Y16083D01*
X200607Y16039D01*
X200638Y15989D01*
X200682Y15951D01*
X200733Y15907D01*
X200789Y15876D01*
X200865Y15850D01*
X200940Y15838D01*
X201034Y15832D01*
X201693D01*
Y20240D01*
D02*
G37*
G36*
X371740Y9526D02*
X367332D01*
Y8308D01*
X371740D01*
Y9526D01*
D02*
G37*
G36*
Y-11258D02*
X367332D01*
Y-12477D01*
X371740D01*
Y-11258D01*
D02*
G37*
G36*
X16994Y-58770D02*
X15028D01*
Y-59709D01*
X16994D01*
Y-58770D01*
D02*
G37*
G36*
X15192Y-61735D02*
X13122D01*
Y-62450D01*
X15192D01*
Y-61735D01*
D02*
G37*
G36*
X15274Y-68112D02*
X14471D01*
Y-68822D01*
X15274D01*
Y-68112D01*
D02*
G37*
G36*
X63730Y84970D02*
Y84404D01*
X65473Y84683D01*
X63730Y84970D01*
D02*
G37*
G36*
X65874Y76803D02*
X62996D01*
Y76008D01*
X65874D01*
Y76803D01*
D02*
G37*
%LPD*%
D10*
X134954Y25500D02*
X134623Y26409D01*
X133785Y26893D01*
X132832Y26725D01*
X132210Y25984D01*
Y25016D01*
X132832Y24275D01*
X133785Y24107D01*
X134623Y24591D01*
X134954Y25500D01*
X131500Y-32000D02*
Y-29500D01*
X124500D02*
X131500D01*
X124500Y-32500D02*
Y-29500D01*
Y-39500D02*
Y-35000D01*
X131500Y-39500D02*
Y-35000D01*
Y-44500D02*
Y-41500D01*
X124500Y-44500D02*
X131500D01*
X124500D02*
Y-41500D01*
X95500Y-26750D02*
X98000D01*
X95500Y-33750D02*
Y-26750D01*
Y-33750D02*
X98500D01*
X101000D02*
X105500D01*
X101000Y-26750D02*
X105500D01*
X107500D02*
X110500D01*
Y-33750D02*
Y-26750D01*
X107500Y-33750D02*
X110500D01*
X224724Y9004D02*
Y71996D01*
X281811D01*
Y9004D02*
Y71996D01*
X224724Y9004D02*
X281811D01*
X225457Y-71996D02*
Y-9004D01*
X282543D01*
Y-71996D02*
Y-9004D01*
X225457Y-71996D02*
X282543D01*
D11*
X88500Y-74221D02*
X87762Y-73794D01*
Y-74647D01*
X88500Y-74221D01*
D12*
X18900Y-62226D02*
X19899D01*
X18900Y-67826D02*
Y-62226D01*
Y-67826D02*
X19899D01*
X19999Y-62226D02*
X25300D01*
X19899Y-67626D02*
Y-62226D01*
Y-67826D02*
X25300D01*
X28699Y-62226D02*
X34100D01*
Y-62426D02*
Y-62226D01*
Y-67826D02*
Y-62426D01*
X33999Y-67826D02*
X34100D01*
X28699D02*
X33999D01*
X78900Y44800D02*
X84100D01*
X78900D02*
Y49300D01*
X84100Y44800D02*
Y49300D01*
Y52800D02*
Y57300D01*
X78900Y52800D02*
Y57300D01*
X84100D01*
X78900Y71200D02*
X84100D01*
Y66700D02*
Y71200D01*
X78900Y66700D02*
Y71200D01*
Y58700D02*
Y63200D01*
X84100Y58700D02*
Y63200D01*
X78900Y58700D02*
X84100D01*
X83900Y72250D02*
X89100D01*
Y58750D02*
Y72250D01*
X83900Y58750D02*
X89100D01*
X83900D02*
Y72250D01*
X107800Y-84600D02*
Y-79400D01*
X112300D01*
X107800Y-84600D02*
X112300D01*
X115800D02*
X120300D01*
X115800Y-79400D02*
X120300D01*
Y-84600D02*
Y-79400D01*
X111900Y-29800D02*
X117100D01*
Y-34300D02*
Y-29800D01*
X111900Y-34300D02*
Y-29800D01*
Y-42300D02*
Y-37800D01*
X117100Y-42300D02*
Y-37800D01*
X111900Y-42300D02*
X117100D01*
X116900Y-29800D02*
X122100D01*
Y-34300D02*
Y-29800D01*
X116900Y-34300D02*
Y-29800D01*
Y-42300D02*
Y-37800D01*
X122100Y-42300D02*
Y-37800D01*
X116900Y-42300D02*
X122100D01*
X117400Y-28600D02*
X122600D01*
X117400D02*
Y-24100D01*
X122600Y-28600D02*
Y-24100D01*
Y-20600D02*
Y-16100D01*
X117400Y-20600D02*
Y-16100D01*
X122600D01*
X112400Y-28600D02*
X117600D01*
X112400D02*
Y-24100D01*
X117600Y-28600D02*
Y-24100D01*
Y-20600D02*
Y-16100D01*
X112400Y-20600D02*
Y-16100D01*
X117600D01*
X110700Y-48100D02*
Y-42900D01*
Y-48100D02*
X115200D01*
X110700Y-42900D02*
X115200D01*
X118700D02*
X123200D01*
X118700Y-48100D02*
X123200D01*
Y-42900D01*
X35250Y-67600D02*
X48750D01*
Y-62400D01*
X35250D02*
X48750D01*
X35250Y-67600D02*
Y-62400D01*
X89700Y-84600D02*
Y-79400D01*
Y-84600D02*
X94200D01*
X89700Y-79400D02*
X94200D01*
X97700D02*
X102200D01*
X97700Y-84600D02*
X102200D01*
Y-79400D01*
X120600Y13250D02*
Y26750D01*
X115400D02*
X120600D01*
X115400Y13250D02*
Y26750D01*
Y13250D02*
X120600D01*
X163300Y-34600D02*
Y-29400D01*
X158800D02*
X163300D01*
X158800Y-34600D02*
X163300D01*
X150800D02*
X155300D01*
X150800Y-29400D02*
X155300D01*
X150800Y-34600D02*
Y-29400D01*
X163300Y-39600D02*
Y-34400D01*
X158800D02*
X163300D01*
X158800Y-39600D02*
X163300D01*
X150800D02*
X155300D01*
X150800Y-34400D02*
X155300D01*
X150800Y-39600D02*
Y-34400D01*
X163300Y34400D02*
Y39600D01*
X158800D02*
X163300D01*
X158800Y34400D02*
X163300D01*
X150800D02*
X155300D01*
X150800Y39600D02*
X155300D01*
X150800Y34400D02*
Y39600D01*
X163300Y29400D02*
Y34600D01*
X158800D02*
X163300D01*
X158800Y29400D02*
X163300D01*
X150800D02*
X155300D01*
X150800Y34600D02*
X155300D01*
X150800Y29400D02*
Y34600D01*
X110250Y600D02*
X123750D01*
X110250Y-4600D02*
Y600D01*
Y-4600D02*
X123750D01*
Y600D01*
X165800Y13500D02*
X174200D01*
X165800D02*
Y19500D01*
X174200Y13500D02*
Y19500D01*
Y26500D02*
Y32500D01*
X165800Y26500D02*
Y32500D01*
X174200D01*
X165800Y17500D02*
X174200D01*
Y11500D02*
Y17500D01*
X165800Y11500D02*
Y17500D01*
Y-1500D02*
Y4500D01*
X174200Y-1500D02*
Y4500D01*
X165800Y-1500D02*
X174200D01*
X165800Y-17500D02*
X174200D01*
X165800D02*
Y-11500D01*
X174200Y-17500D02*
Y-11500D01*
Y-4500D02*
Y1500D01*
X165800Y-4500D02*
Y1500D01*
X174200D01*
X165800Y-13500D02*
X174200D01*
Y-19500D02*
Y-13500D01*
X165800Y-19500D02*
Y-13500D01*
Y-32500D02*
Y-26500D01*
X174200Y-32500D02*
Y-26500D01*
X165800Y-32500D02*
X174200D01*
X29600Y10250D02*
Y23750D01*
X24400D02*
X29600D01*
X24400Y10250D02*
Y23750D01*
Y10250D02*
X29600D01*
Y-24750D02*
Y-11250D01*
X24400D02*
X29600D01*
X24400Y-24750D02*
Y-11250D01*
Y-24750D02*
X29600D01*
D13*
X11000Y7000D02*
Y27000D01*
Y7000D02*
X21000D01*
Y27000D01*
X11000D02*
X21000D01*
X11000Y-28000D02*
Y-8000D01*
Y-28000D02*
X21000D01*
Y-8000D01*
X11000D02*
X21000D01*
X125913Y28051D02*
X153669D01*
X132409Y-27756D02*
X153669D01*
X78000Y69000D02*
Y89000D01*
X68000D02*
X78000D01*
X68000Y69000D02*
Y89000D01*
Y69000D02*
X78000D01*
X87811Y-68906D02*
X114189D01*
X87811Y-57095D02*
X114189D01*
X87811Y-68906D02*
Y-57095D01*
X114189Y-68906D02*
Y-57095D01*
X68000Y68000D02*
X78000D01*
Y48000D02*
Y68000D01*
X68000Y48000D02*
X78000D01*
X68000D02*
Y68000D01*
X13124Y-29720D02*
X12468Y-29064D01*
X11156D01*
X10500Y-29720D01*
Y-32344D01*
X11156Y-33000D01*
X12468D01*
X13124Y-32344D01*
Y-31032D01*
X11812D01*
X14436Y-33000D02*
Y-30376D01*
X16404D01*
X17060Y-31032D01*
Y-33000D01*
X20995Y-29064D02*
Y-33000D01*
X19027D01*
X18372Y-32344D01*
Y-31032D01*
X19027Y-30376D01*
X20995D01*
X13124Y5280D02*
X12468Y5936D01*
X11156D01*
X10500Y5280D01*
Y2656D01*
X11156Y2000D01*
X12468D01*
X13124Y2656D01*
Y3968D01*
X11812D01*
X14436Y2000D02*
Y4624D01*
X16404D01*
X17060Y3968D01*
Y2000D01*
X20995Y5936D02*
Y2000D01*
X19027D01*
X18372Y2656D01*
Y3968D01*
X19027Y4624D01*
X20995D01*
X140039Y25936D02*
Y23125D01*
X140227Y22562D01*
X140602Y22187D01*
X141164Y22000D01*
X141539D01*
X142101Y22187D01*
X142476Y22562D01*
X142664Y23125D01*
Y25936D01*
X143751Y25186D02*
X144125Y25374D01*
X144688Y25936D01*
Y22000D01*
X99000Y-61064D02*
X100499Y-65000D01*
X101999Y-61064D02*
X100499Y-65000D01*
X102505Y-61814D02*
X102880Y-61626D01*
X103442Y-61064D01*
Y-65000D01*
X89436Y82500D02*
X85500D01*
X89436D02*
Y80813D01*
X89249Y80251D01*
X89061Y80063D01*
X88686Y79876D01*
X88311D01*
X87937Y80063D01*
X87749Y80251D01*
X87562Y80813D01*
Y82500D01*
Y81188D02*
X85500Y79876D01*
X89436Y76371D02*
X85500Y78245D01*
X89436Y78995D02*
Y76371D01*
X40000Y-69064D02*
Y-73000D01*
Y-69064D02*
X41687D01*
X42249Y-69251D01*
X42437Y-69439D01*
X42624Y-69814D01*
Y-70188D01*
X42437Y-70563D01*
X42249Y-70751D01*
X41687Y-70938D01*
X40000D01*
X41312D02*
X42624Y-73000D01*
X43692Y-70001D02*
Y-69814D01*
X43880Y-69439D01*
X44067Y-69251D01*
X44442Y-69064D01*
X45192D01*
X45567Y-69251D01*
X45754Y-69439D01*
X45942Y-69814D01*
Y-70188D01*
X45754Y-70563D01*
X45379Y-71126D01*
X43505Y-73000D01*
X46129D01*
X24800Y-4095D02*
Y-8031D01*
Y-4095D02*
X26487D01*
X27049Y-4282D01*
X27237Y-4469D01*
X27424Y-4844D01*
Y-5219D01*
X27237Y-5594D01*
X27049Y-5782D01*
X26487Y-5969D01*
X24800D01*
X26112D02*
X27424Y-8031D01*
X30554Y-4095D02*
X28680D01*
X28493Y-5782D01*
X28680Y-5594D01*
X29242Y-5407D01*
X29805D01*
X30367Y-5594D01*
X30742Y-5969D01*
X30929Y-6531D01*
Y-6906D01*
X30742Y-7468D01*
X30367Y-7843D01*
X29805Y-8031D01*
X29242D01*
X28680Y-7843D01*
X28493Y-7656D01*
X28305Y-7281D01*
X24800Y30906D02*
Y26969D01*
Y30906D02*
X26487D01*
X27049Y30718D01*
X27237Y30531D01*
X27424Y30156D01*
Y29781D01*
X27237Y29406D01*
X27049Y29219D01*
X26487Y29031D01*
X24800D01*
X26112D02*
X27424Y26969D01*
X30179Y30906D02*
X28305Y28281D01*
X31117D01*
X30179Y30906D02*
Y26969D01*
X111936Y23000D02*
X108000D01*
X111936D02*
Y21313D01*
X111749Y20751D01*
X111561Y20563D01*
X111186Y20376D01*
X110812D01*
X110437Y20563D01*
X110249Y20751D01*
X110062Y21313D01*
Y23000D01*
Y21688D02*
X108000Y20376D01*
X111374Y17246D02*
X111749Y17433D01*
X111936Y17995D01*
Y18370D01*
X111749Y18933D01*
X111186Y19308D01*
X110249Y19495D01*
X109312D01*
X108562Y19308D01*
X108187Y18933D01*
X108000Y18370D01*
Y18183D01*
X108187Y17621D01*
X108562Y17246D01*
X109125Y17058D01*
X109312D01*
X109874Y17246D01*
X110249Y17621D01*
X110437Y18183D01*
Y18370D01*
X110249Y18933D01*
X109874Y19308D01*
X109312Y19495D01*
X114000Y5936D02*
Y2000D01*
Y5936D02*
X115687D01*
X116249Y5749D01*
X116437Y5561D01*
X116624Y5186D01*
Y4812D01*
X116437Y4437D01*
X116249Y4249D01*
X115687Y4062D01*
X114000D01*
X115312D02*
X116624Y2000D01*
X117880Y5936D02*
X119942D01*
X118817Y4437D01*
X119379D01*
X119754Y4249D01*
X119942Y4062D01*
X120129Y3500D01*
Y3125D01*
X119942Y2562D01*
X119567Y2187D01*
X119004Y2000D01*
X118442D01*
X117880Y2187D01*
X117692Y2375D01*
X117505Y2750D01*
X250268Y-39064D02*
Y-43000D01*
X252517D01*
X253323Y-39064D02*
X255385D01*
X254260Y-40563D01*
X254822D01*
X255197Y-40751D01*
X255385Y-40938D01*
X255572Y-41500D01*
Y-41875D01*
X255385Y-42438D01*
X255010Y-42813D01*
X254448Y-43000D01*
X253885D01*
X253323Y-42813D01*
X253135Y-42625D01*
X252948Y-42250D01*
X250268Y41436D02*
Y37500D01*
X252517D01*
X252948Y40686D02*
X253323Y40874D01*
X253885Y41436D01*
Y37500D01*
X147436Y-39500D02*
X143500D01*
Y-41749D01*
X146499Y-42368D02*
X146686D01*
X147061Y-42555D01*
X147249Y-42743D01*
X147436Y-43117D01*
Y-43867D01*
X147249Y-44242D01*
X147061Y-44430D01*
X146686Y-44617D01*
X146312D01*
X145937Y-44430D01*
X145374Y-44055D01*
X143500Y-42180D01*
Y-44804D01*
X86000Y-28314D02*
Y-32250D01*
X88249D01*
X90555Y-28314D02*
X88680Y-30938D01*
X91492D01*
X90555Y-28314D02*
Y-32250D01*
X96936Y-19437D02*
Y-17000D01*
X93000D01*
Y-19437D01*
X95062Y-17000D02*
Y-18499D01*
X95999Y-20280D02*
X96186D01*
X96561Y-20468D01*
X96749Y-20655D01*
X96936Y-21030D01*
Y-21780D01*
X96749Y-22154D01*
X96561Y-22342D01*
X96186Y-22529D01*
X95811D01*
X95437Y-22342D01*
X94874Y-21967D01*
X93000Y-20093D01*
Y-22717D01*
X94936Y-40437D02*
Y-38000D01*
X91000D01*
Y-40437D01*
X93062Y-38000D02*
Y-39500D01*
X94186Y-41093D02*
X94374Y-41468D01*
X94936Y-42030D01*
X91000D01*
X120999Y-9211D02*
X121374Y-9024D01*
X121749Y-8649D01*
X121936Y-8274D01*
Y-7525D01*
X121749Y-7150D01*
X121374Y-6775D01*
X120999Y-6587D01*
X120437Y-6400D01*
X119500D01*
X118937Y-6587D01*
X118562Y-6775D01*
X118187Y-7150D01*
X118000Y-7525D01*
Y-8274D01*
X118187Y-8649D01*
X118562Y-9024D01*
X118937Y-9211D01*
X120999Y-10505D02*
X121186D01*
X121561Y-10692D01*
X121749Y-10880D01*
X121936Y-11255D01*
Y-12004D01*
X121749Y-12379D01*
X121561Y-12567D01*
X121186Y-12754D01*
X120812D01*
X120437Y-12567D01*
X119874Y-12192D01*
X118000Y-10317D01*
Y-12942D01*
X121186Y-13823D02*
X121374Y-14197D01*
X121936Y-14760D01*
X118000D01*
X114999Y-8212D02*
X115374Y-8024D01*
X115749Y-7649D01*
X115936Y-7274D01*
Y-6525D01*
X115749Y-6150D01*
X115374Y-5775D01*
X114999Y-5587D01*
X114437Y-5400D01*
X113499D01*
X112937Y-5587D01*
X112562Y-5775D01*
X112187Y-6150D01*
X112000Y-6525D01*
Y-7274D01*
X112187Y-7649D01*
X112562Y-8024D01*
X112937Y-8212D01*
X114999Y-9505D02*
X115186D01*
X115561Y-9692D01*
X115749Y-9880D01*
X115936Y-10255D01*
Y-11004D01*
X115749Y-11379D01*
X115561Y-11567D01*
X115186Y-11754D01*
X114812D01*
X114437Y-11567D01*
X113874Y-11192D01*
X112000Y-9317D01*
Y-11942D01*
X114999Y-13010D02*
X115186D01*
X115561Y-13197D01*
X115749Y-13385D01*
X115936Y-13760D01*
Y-14509D01*
X115749Y-14884D01*
X115561Y-15072D01*
X115186Y-15259D01*
X114812D01*
X114437Y-15072D01*
X113874Y-14697D01*
X112000Y-12822D01*
Y-15447D01*
X113812Y-87001D02*
X113624Y-86626D01*
X113249Y-86251D01*
X112874Y-86064D01*
X112125D01*
X111750Y-86251D01*
X111375Y-86626D01*
X111187Y-87001D01*
X111000Y-87563D01*
Y-88500D01*
X111187Y-89063D01*
X111375Y-89438D01*
X111750Y-89813D01*
X112125Y-90000D01*
X112874D01*
X113249Y-89813D01*
X113624Y-89438D01*
X113812Y-89063D01*
X117167Y-86626D02*
X116979Y-86251D01*
X116417Y-86064D01*
X116042D01*
X115480Y-86251D01*
X115105Y-86814D01*
X114917Y-87751D01*
Y-88688D01*
X115105Y-89438D01*
X115480Y-89813D01*
X116042Y-90000D01*
X116229D01*
X116792Y-89813D01*
X117167Y-89438D01*
X117354Y-88875D01*
Y-88688D01*
X117167Y-88126D01*
X116792Y-87751D01*
X116229Y-87563D01*
X116042D01*
X115480Y-87751D01*
X115105Y-88126D01*
X114917Y-88688D01*
X88499Y53189D02*
X88874Y53376D01*
X89249Y53751D01*
X89436Y54126D01*
Y54875D01*
X89249Y55250D01*
X88874Y55625D01*
X88499Y55813D01*
X87937Y56000D01*
X86999D01*
X86437Y55813D01*
X86062Y55625D01*
X85687Y55250D01*
X85500Y54875D01*
Y54126D01*
X85687Y53751D01*
X86062Y53376D01*
X86437Y53189D01*
X88499Y51895D02*
X88686D01*
X89061Y51708D01*
X89249Y51520D01*
X89436Y51145D01*
Y50396D01*
X89249Y50021D01*
X89061Y49833D01*
X88686Y49646D01*
X88311D01*
X87937Y49833D01*
X87374Y50208D01*
X85500Y52083D01*
Y49459D01*
X88124Y46141D02*
X87562Y46328D01*
X87187Y46703D01*
X86999Y47265D01*
Y47453D01*
X87187Y48015D01*
X87562Y48390D01*
X88124Y48577D01*
X88311D01*
X88874Y48390D01*
X89249Y48015D01*
X89436Y47453D01*
Y47265D01*
X89249Y46703D01*
X88874Y46328D01*
X88124Y46141D01*
X87187D01*
X86250Y46328D01*
X85687Y46703D01*
X85500Y47265D01*
Y47640D01*
X85687Y48203D01*
X86062Y48390D01*
X164812Y-42001D02*
X164624Y-41626D01*
X164249Y-41251D01*
X163874Y-41064D01*
X163125D01*
X162750Y-41251D01*
X162375Y-41626D01*
X162187Y-42001D01*
X162000Y-42563D01*
Y-43501D01*
X162187Y-44063D01*
X162375Y-44438D01*
X162750Y-44813D01*
X163125Y-45000D01*
X163874D01*
X164249Y-44813D01*
X164624Y-44438D01*
X164812Y-44063D01*
X166105Y-42001D02*
Y-41814D01*
X166292Y-41439D01*
X166480Y-41251D01*
X166855Y-41064D01*
X167604D01*
X167979Y-41251D01*
X168167Y-41439D01*
X168354Y-41814D01*
Y-42189D01*
X168167Y-42563D01*
X167792Y-43126D01*
X165917Y-45000D01*
X168542D01*
X169797Y-41064D02*
X171859D01*
X170735Y-42563D01*
X171297D01*
X171672Y-42751D01*
X171859Y-42938D01*
X172047Y-43501D01*
Y-43875D01*
X171859Y-44438D01*
X171484Y-44813D01*
X170922Y-45000D01*
X170360D01*
X169797Y-44813D01*
X169610Y-44625D01*
X169422Y-44250D01*
X164812Y-48001D02*
X164624Y-47626D01*
X164249Y-47251D01*
X163874Y-47064D01*
X163125D01*
X162750Y-47251D01*
X162375Y-47626D01*
X162187Y-48001D01*
X162000Y-48563D01*
Y-49501D01*
X162187Y-50063D01*
X162375Y-50438D01*
X162750Y-50813D01*
X163125Y-51000D01*
X163874D01*
X164249Y-50813D01*
X164624Y-50438D01*
X164812Y-50063D01*
X165917Y-47814D02*
X166292Y-47626D01*
X166855Y-47064D01*
Y-51000D01*
X171241Y-48376D02*
X171053Y-48938D01*
X170678Y-49313D01*
X170116Y-49501D01*
X169929D01*
X169366Y-49313D01*
X168991Y-48938D01*
X168804Y-48376D01*
Y-48188D01*
X168991Y-47626D01*
X169366Y-47251D01*
X169929Y-47064D01*
X170116D01*
X170678Y-47251D01*
X171053Y-47626D01*
X171241Y-48376D01*
Y-49313D01*
X171053Y-50250D01*
X170678Y-50813D01*
X170116Y-51000D01*
X169741D01*
X169179Y-50813D01*
X168991Y-50438D01*
X169312Y43499D02*
X169124Y43874D01*
X168749Y44249D01*
X168374Y44436D01*
X167625D01*
X167250Y44249D01*
X166875Y43874D01*
X166687Y43499D01*
X166500Y42937D01*
Y42000D01*
X166687Y41437D01*
X166875Y41062D01*
X167250Y40687D01*
X167625Y40500D01*
X168374D01*
X168749Y40687D01*
X169124Y41062D01*
X169312Y41437D01*
X170417Y43686D02*
X170792Y43874D01*
X171355Y44436D01*
Y40500D01*
X175178Y44436D02*
X173304Y41812D01*
X176116D01*
X175178Y44436D02*
Y40500D01*
X169312Y37499D02*
X169124Y37874D01*
X168749Y38249D01*
X168374Y38436D01*
X167625D01*
X167250Y38249D01*
X166875Y37874D01*
X166687Y37499D01*
X166500Y36937D01*
Y36000D01*
X166687Y35437D01*
X166875Y35062D01*
X167250Y34687D01*
X167625Y34500D01*
X168374D01*
X168749Y34687D01*
X169124Y35062D01*
X169312Y35437D01*
X170417Y37686D02*
X170792Y37874D01*
X171355Y38436D01*
Y34500D01*
X173491Y37499D02*
Y37686D01*
X173679Y38061D01*
X173866Y38249D01*
X174241Y38436D01*
X174991D01*
X175366Y38249D01*
X175553Y38061D01*
X175741Y37686D01*
Y37312D01*
X175553Y36937D01*
X175178Y36374D01*
X173304Y34500D01*
X175928D01*
X82499Y82188D02*
X82874Y82376D01*
X83249Y82751D01*
X83436Y83126D01*
Y83875D01*
X83249Y84250D01*
X82874Y84625D01*
X82499Y84813D01*
X81937Y85000D01*
X80999D01*
X80437Y84813D01*
X80062Y84625D01*
X79687Y84250D01*
X79500Y83875D01*
Y83126D01*
X79687Y82751D01*
X80062Y82376D01*
X80437Y82188D01*
X82499Y80895D02*
X82686D01*
X83061Y80708D01*
X83249Y80520D01*
X83436Y80145D01*
Y79396D01*
X83249Y79021D01*
X83061Y78833D01*
X82686Y78646D01*
X82311D01*
X81937Y78833D01*
X81374Y79208D01*
X79500Y81083D01*
Y78458D01*
X83436Y76640D02*
X83249Y77203D01*
X82874Y77390D01*
X82499D01*
X82124Y77203D01*
X81937Y76828D01*
X81749Y76078D01*
X81562Y75516D01*
X81187Y75141D01*
X80812Y74953D01*
X80250D01*
X79875Y75141D01*
X79687Y75328D01*
X79500Y75891D01*
Y76640D01*
X79687Y77203D01*
X79875Y77390D01*
X80250Y77578D01*
X80812D01*
X81187Y77390D01*
X81562Y77015D01*
X81749Y76453D01*
X81937Y75703D01*
X82124Y75328D01*
X82499Y75141D01*
X82874D01*
X83249Y75328D01*
X83436Y75891D01*
Y76640D01*
X114812Y-50501D02*
X114624Y-50126D01*
X114249Y-49751D01*
X113874Y-49564D01*
X113125D01*
X112750Y-49751D01*
X112375Y-50126D01*
X112187Y-50501D01*
X112000Y-51063D01*
Y-52000D01*
X112187Y-52563D01*
X112375Y-52938D01*
X112750Y-53313D01*
X113125Y-53500D01*
X113874D01*
X114249Y-53313D01*
X114624Y-52938D01*
X114812Y-52563D01*
X115917Y-50314D02*
X116292Y-50126D01*
X116855Y-49564D01*
Y-53500D01*
X121053Y-49564D02*
X119179D01*
X118991Y-51251D01*
X119179Y-51063D01*
X119741Y-50876D01*
X120303D01*
X120866Y-51063D01*
X121241Y-51438D01*
X121428Y-52000D01*
Y-52375D01*
X121241Y-52938D01*
X120866Y-53313D01*
X120303Y-53500D01*
X119741D01*
X119179Y-53313D01*
X118991Y-53125D01*
X118804Y-52750D01*
X140999Y-36312D02*
X141374Y-36124D01*
X141749Y-35749D01*
X141936Y-35374D01*
Y-34625D01*
X141749Y-34250D01*
X141374Y-33875D01*
X140999Y-33687D01*
X140437Y-33500D01*
X139499D01*
X138937Y-33687D01*
X138562Y-33875D01*
X138187Y-34250D01*
X138000Y-34625D01*
Y-35374D01*
X138187Y-35749D01*
X138562Y-36124D01*
X138937Y-36312D01*
X141186Y-37417D02*
X141374Y-37792D01*
X141936Y-38355D01*
X138000D01*
X141374Y-42553D02*
X141749Y-42366D01*
X141936Y-41803D01*
Y-41429D01*
X141749Y-40866D01*
X141186Y-40491D01*
X140249Y-40304D01*
X139312D01*
X138562Y-40491D01*
X138187Y-40866D01*
X138000Y-41429D01*
Y-41616D01*
X138187Y-42178D01*
X138562Y-42553D01*
X139125Y-42741D01*
X139312D01*
X139874Y-42553D01*
X140249Y-42178D01*
X140437Y-41616D01*
Y-41429D01*
X140249Y-40866D01*
X139874Y-40491D01*
X139312Y-40304D01*
X135499Y-36312D02*
X135874Y-36124D01*
X136249Y-35749D01*
X136436Y-35374D01*
Y-34625D01*
X136249Y-34250D01*
X135874Y-33875D01*
X135499Y-33687D01*
X134937Y-33500D01*
X134000D01*
X133437Y-33687D01*
X133062Y-33875D01*
X132687Y-34250D01*
X132500Y-34625D01*
Y-35374D01*
X132687Y-35749D01*
X133062Y-36124D01*
X133437Y-36312D01*
X135686Y-37417D02*
X135874Y-37792D01*
X136436Y-38355D01*
X132500D01*
X136436Y-42928D02*
X132500Y-41054D01*
X136436Y-40304D02*
Y-42928D01*
X169812Y-22001D02*
X169624Y-21626D01*
X169249Y-21251D01*
X168874Y-21064D01*
X168125D01*
X167750Y-21251D01*
X167375Y-21626D01*
X167187Y-22001D01*
X167000Y-22563D01*
Y-23501D01*
X167187Y-24063D01*
X167375Y-24438D01*
X167750Y-24813D01*
X168125Y-25000D01*
X168874D01*
X169249Y-24813D01*
X169624Y-24438D01*
X169812Y-24063D01*
X173354Y-22376D02*
X173167Y-22938D01*
X172792Y-23313D01*
X172230Y-23501D01*
X172042D01*
X171480Y-23313D01*
X171105Y-22938D01*
X170917Y-22376D01*
Y-22188D01*
X171105Y-21626D01*
X171480Y-21251D01*
X172042Y-21064D01*
X172230D01*
X172792Y-21251D01*
X173167Y-21626D01*
X173354Y-22376D01*
Y-23313D01*
X173167Y-24250D01*
X172792Y-24813D01*
X172230Y-25000D01*
X171855D01*
X171292Y-24813D01*
X171105Y-24438D01*
X167812Y-7001D02*
X167624Y-6626D01*
X167249Y-6251D01*
X166874Y-6064D01*
X166125D01*
X165750Y-6251D01*
X165375Y-6626D01*
X165187Y-7001D01*
X165000Y-7563D01*
Y-8501D01*
X165187Y-9063D01*
X165375Y-9438D01*
X165750Y-9813D01*
X166125Y-10000D01*
X166874D01*
X167249Y-9813D01*
X167624Y-9438D01*
X167812Y-9063D01*
X168917Y-6814D02*
X169292Y-6626D01*
X169855Y-6064D01*
Y-10000D01*
X172929Y-6064D02*
X172366Y-6251D01*
X171991Y-6814D01*
X171804Y-7751D01*
Y-8313D01*
X171991Y-9250D01*
X172366Y-9813D01*
X172929Y-10000D01*
X173303D01*
X173866Y-9813D01*
X174241Y-9250D01*
X174428Y-8313D01*
Y-7751D01*
X174241Y-6814D01*
X173866Y-6251D01*
X173303Y-6064D01*
X172929D01*
X169812Y24330D02*
X169624Y24705D01*
X169249Y25079D01*
X168874Y25267D01*
X168125D01*
X167750Y25079D01*
X167375Y24705D01*
X167187Y24330D01*
X167000Y23767D01*
Y22830D01*
X167187Y22268D01*
X167375Y21893D01*
X167750Y21518D01*
X168125Y21331D01*
X168874D01*
X169249Y21518D01*
X169624Y21893D01*
X169812Y22268D01*
X172792Y25267D02*
X170917Y22643D01*
X173729D01*
X172792Y25267D02*
Y21331D01*
X169812Y8999D02*
X169624Y9374D01*
X169249Y9749D01*
X168874Y9936D01*
X168125D01*
X167750Y9749D01*
X167375Y9374D01*
X167187Y8999D01*
X167000Y8437D01*
Y7500D01*
X167187Y6937D01*
X167375Y6562D01*
X167750Y6187D01*
X168125Y6000D01*
X168874D01*
X169249Y6187D01*
X169624Y6562D01*
X169812Y6937D01*
X173167Y9936D02*
X171292D01*
X171105Y8249D01*
X171292Y8437D01*
X171855Y8624D01*
X172417D01*
X172979Y8437D01*
X173354Y8062D01*
X173541Y7500D01*
Y7125D01*
X173354Y6562D01*
X172979Y6187D01*
X172417Y6000D01*
X171855D01*
X171292Y6187D01*
X171105Y6375D01*
X170917Y6750D01*
X95811Y-87001D02*
X95624Y-86626D01*
X95249Y-86251D01*
X94874Y-86064D01*
X94125D01*
X93750Y-86251D01*
X93375Y-86626D01*
X93187Y-87001D01*
X93000Y-87563D01*
Y-88500D01*
X93187Y-89063D01*
X93375Y-89438D01*
X93750Y-89813D01*
X94125Y-90000D01*
X94874D01*
X95249Y-89813D01*
X95624Y-89438D01*
X95811Y-89063D01*
X99541Y-86064D02*
X97667Y-90000D01*
X96917Y-86064D02*
X99541D01*
D14*
X80251Y-33499D02*
X90751Y-33499D01*
X80251Y-46499D02*
X90751D01*
X96251Y-33499D02*
X104251D01*
X96251Y-46499D02*
X104251D01*
X80251D02*
Y-33499D01*
X106251Y-35499D02*
X106251Y-44499D01*
X104251Y-46499D02*
X106251Y-44499D01*
X104251Y-33499D02*
X106251Y-35499D01*
X82251Y-13499D02*
X92751Y-13499D01*
X82251Y-26499D02*
X92751D01*
X98251Y-13499D02*
X106251D01*
X98251Y-26499D02*
X106251D01*
X82251D02*
Y-13499D01*
X108251Y-15499D02*
X108251Y-24499D01*
X106251Y-26499D02*
X108251Y-24499D01*
X106251Y-13499D02*
X108251Y-15499D01*
M02*
