G04*
G04 #@! TF.GenerationSoftware,Altium Limited,Altium Designer,19.1.8 (144)*
G04*
G04 Layer_Physical_Order=1*
G04 Layer_Color=255*
%FSLAX25Y25*%
%MOIN*%
G70*
G01*
G75*
%ADD10C,0.01000*%
%ADD14C,0.01200*%
%ADD15C,0.03937*%
%ADD16R,0.05000X0.03500*%
G04:AMPARAMS|DCode=17|XSize=50mil|YSize=35mil|CornerRadius=0mil|HoleSize=0mil|Usage=FLASHONLY|Rotation=180.000|XOffset=0mil|YOffset=0mil|HoleType=Round|Shape=Octagon|*
%AMOCTAGOND17*
4,1,8,-0.02500,0.00875,-0.02500,-0.00875,-0.01625,-0.01750,0.01625,-0.01750,0.02500,-0.00875,0.02500,0.00875,0.01625,0.01750,-0.01625,0.01750,-0.02500,0.00875,0.0*
%
%ADD17OCTAGOND17*%

%ADD18O,0.05512X0.01575*%
%ADD19R,0.03000X0.03500*%
%ADD20R,0.03150X0.04000*%
%ADD21R,0.03543X0.08268*%
%ADD22R,0.12598X0.08268*%
%ADD23R,0.03500X0.03000*%
%ADD24R,0.05500X0.04000*%
%ADD25R,0.04000X0.05500*%
%ADD26R,0.07500X0.09000*%
%ADD27R,0.04000X0.03150*%
G04:AMPARAMS|DCode=28|XSize=47.24mil|YSize=60mil|CornerRadius=11.81mil|HoleSize=0mil|Usage=FLASHONLY|Rotation=270.000|XOffset=0mil|YOffset=0mil|HoleType=Round|Shape=RoundedRectangle|*
%AMROUNDEDRECTD28*
21,1,0.04724,0.03638,0,0,270.0*
21,1,0.02362,0.06000,0,0,270.0*
1,1,0.02362,-0.01819,-0.01181*
1,1,0.02362,-0.01819,0.01181*
1,1,0.02362,0.01819,0.01181*
1,1,0.02362,0.01819,-0.01181*
%
%ADD28ROUNDEDRECTD28*%
%ADD55C,0.02000*%
%ADD56C,0.14961*%
%ADD57O,0.11811X0.08661*%
%ADD58C,0.06693*%
%ADD59R,0.06693X0.06693*%
%ADD60C,0.13780*%
%ADD61C,0.02362*%
%ADD62C,0.07087*%
%ADD63O,0.08661X0.11811*%
%ADD64C,0.09843*%
G04:AMPARAMS|DCode=65|XSize=98.43mil|YSize=98.43mil|CornerRadius=24.61mil|HoleSize=0mil|Usage=FLASHONLY|Rotation=270.000|XOffset=0mil|YOffset=0mil|HoleType=Round|Shape=RoundedRectangle|*
%AMROUNDEDRECTD65*
21,1,0.09843,0.04921,0,0,270.0*
21,1,0.04921,0.09843,0,0,270.0*
1,1,0.04921,-0.02461,-0.02461*
1,1,0.04921,-0.02461,0.02461*
1,1,0.04921,0.02461,0.02461*
1,1,0.04921,0.02461,-0.02461*
%
%ADD65ROUNDEDRECTD65*%
%ADD66C,0.01968*%
%ADD67C,0.02756*%
%ADD68C,0.02559*%
G36*
X383563Y103082D02*
X385194Y102690D01*
X386745Y102048D01*
X388176Y101171D01*
X389452Y100082D01*
X390541Y98805D01*
X391418Y97375D01*
X392060Y95824D01*
X392452Y94193D01*
X392583Y92536D01*
X392579Y92520D01*
Y-92520D01*
X392583Y-92536D01*
X392452Y-94193D01*
X392060Y-95824D01*
X391418Y-97375D01*
X390541Y-98805D01*
X389452Y-100082D01*
X388176Y-101171D01*
X386745Y-102048D01*
X385194Y-102690D01*
X383563Y-103082D01*
X381906Y-103212D01*
X381890Y-103209D01*
X11811D01*
X11795Y-103212D01*
X10138Y-103082D01*
X8506Y-102690D01*
X6956Y-102048D01*
X5525Y-101171D01*
X4249Y-100082D01*
X3159Y-98805D01*
X2283Y-97375D01*
X1640Y-95824D01*
X1249Y-94193D01*
X1118Y-92536D01*
X1122Y-92520D01*
Y-43000D01*
X66500D01*
X74000Y-35500D01*
X74000Y-17500D01*
X78500Y-13000D01*
X109000Y-13000D01*
X110750Y-14750D01*
X125110D01*
X125569Y-15057D01*
X126110Y-15165D01*
X130047D01*
X130101Y-15154D01*
X130297Y-15183D01*
X130454Y-15216D01*
X130535Y-15241D01*
X130539Y-15245D01*
X130556Y-15251D01*
X130585Y-15265D01*
X130645Y-15355D01*
X131267Y-15770D01*
X132000Y-15916D01*
X132733Y-15770D01*
X133355Y-15355D01*
X133771Y-14733D01*
X133916Y-14000D01*
X133771Y-13267D01*
X133355Y-12645D01*
X132733Y-12229D01*
X132000Y-12084D01*
X131723Y-12139D01*
X131565Y-11990D01*
X131373Y-11699D01*
X131462Y-11250D01*
X131354Y-10709D01*
X131095Y-10320D01*
X131047Y-10089D01*
Y-9911D01*
X131095Y-9680D01*
X131354Y-9291D01*
X131462Y-8750D01*
X131354Y-8209D01*
X131095Y-7820D01*
X131047Y-7589D01*
Y-7411D01*
X131095Y-7180D01*
X131354Y-6791D01*
X131462Y-6250D01*
X131354Y-5709D01*
X131095Y-5320D01*
X131047Y-5089D01*
Y-4911D01*
X131095Y-4680D01*
X131354Y-4291D01*
X131462Y-3750D01*
X131354Y-3209D01*
X131095Y-2820D01*
X131047Y-2589D01*
Y-2411D01*
X131095Y-2180D01*
X131354Y-1791D01*
X131462Y-1250D01*
X131354Y-709D01*
X131047Y-250D01*
X130589Y57D01*
X130047Y165D01*
X126110D01*
X125569Y57D01*
X125110Y-250D01*
X124803Y-709D01*
X124696Y-1250D01*
X124698Y-1260D01*
X124237Y-1507D01*
X124215Y-1485D01*
X123818Y-1220D01*
X123350Y-1127D01*
X123250D01*
Y175D01*
X118050D01*
Y-4175D01*
X122899D01*
Y-5123D01*
X122974Y-5500D01*
X122798Y-5833D01*
X122664Y-6000D01*
X110000D01*
X109000Y-5000D01*
Y500D01*
X111500Y3000D01*
X124943D01*
X125110Y2750D01*
X125569Y2443D01*
X126110Y2335D01*
X130047D01*
X130308Y2387D01*
X130350Y2370D01*
X130468Y2419D01*
X130588Y2443D01*
X130665Y2452D01*
X130698Y2470D01*
X130717Y2478D01*
X130760Y2490D01*
X130835Y2478D01*
X130912Y2457D01*
X130923Y2459D01*
X131267Y2230D01*
X132000Y2084D01*
X132733Y2230D01*
X133355Y2645D01*
X133771Y3267D01*
X133916Y4000D01*
X133771Y4733D01*
X133355Y5355D01*
X132733Y5771D01*
X132000Y5916D01*
X131873Y5891D01*
X131486Y6208D01*
Y8726D01*
X131462Y8750D01*
X131354Y9291D01*
X131047Y9750D01*
X130589Y10057D01*
X130047Y10165D01*
X124835D01*
X124000Y11000D01*
X88500Y11000D01*
X74000Y25500D01*
Y39500D01*
X70000Y43500D01*
X1122D01*
Y92520D01*
X1118Y92536D01*
X1249Y94193D01*
X1640Y95824D01*
X2283Y97375D01*
X3159Y98805D01*
X4249Y100082D01*
X5525Y101171D01*
X6956Y102048D01*
X8506Y102690D01*
X10138Y103082D01*
X11795Y103212D01*
X11811Y103209D01*
X381890D01*
X381906Y103212D01*
X383563Y103082D01*
D02*
G37*
G36*
X38529Y23988D02*
X38122Y23997D01*
X37672Y23921D01*
X37181Y23758D01*
X36648Y23510D01*
X36074Y23177D01*
X35457Y22758D01*
X34799Y22253D01*
X33358Y20987D01*
X32574Y20226D01*
X31726Y21074D01*
X32487Y21858D01*
X34258Y23957D01*
X34677Y24574D01*
X35010Y25148D01*
X35258Y25681D01*
X35421Y26172D01*
X35497Y26622D01*
X35488Y27029D01*
X38529Y23988D01*
D02*
G37*
G36*
X19241Y22944D02*
X19353Y22872D01*
X19521Y22808D01*
X19746Y22753D01*
X20026Y22706D01*
X20757Y22638D01*
X21713Y22604D01*
X22275Y22600D01*
Y21400D01*
X21713Y21396D01*
X20026Y21294D01*
X19746Y21247D01*
X19521Y21192D01*
X19353Y21128D01*
X19241Y21056D01*
X19186Y20975D01*
Y23025D01*
X19241Y22944D01*
D02*
G37*
G36*
X28577Y21736D02*
X28620Y21634D01*
X28692Y21544D01*
X28793Y21466D01*
X28923Y21400D01*
X29081Y21346D01*
X29268Y21304D01*
X29484Y21274D01*
X29729Y21256D01*
X30003Y21250D01*
Y20050D01*
X29729Y20044D01*
X29268Y19996D01*
X29081Y19954D01*
X28923Y19900D01*
X28793Y19834D01*
X28692Y19756D01*
X28620Y19666D01*
X28577Y19564D01*
X28563Y19450D01*
Y21850D01*
X28577Y21736D01*
D02*
G37*
G36*
X25449Y19450D02*
X25435Y19564D01*
X25391Y19666D01*
X25319Y19756D01*
X25217Y19834D01*
X25086Y19900D01*
X24927Y19954D01*
X24738Y19996D01*
X24520Y20026D01*
X24273Y20044D01*
X23997Y20050D01*
Y21250D01*
X24273Y21256D01*
X24738Y21304D01*
X24927Y21346D01*
X25086Y21400D01*
X25217Y21466D01*
X25319Y21544D01*
X25391Y21634D01*
X25435Y21736D01*
X25449Y21850D01*
Y19450D01*
D02*
G37*
G36*
X70556Y24515D02*
X70340Y24148D01*
X70150Y23677D01*
X69985Y23102D01*
X69845Y22423D01*
X69731Y21640D01*
X69578Y19764D01*
X69528Y17472D01*
X67528D01*
X67515Y18670D01*
X67324Y21640D01*
X67210Y22423D01*
X67071Y23102D01*
X66905Y23677D01*
X66715Y24148D01*
X66499Y24515D01*
X66258Y24779D01*
X70797D01*
X70556Y24515D01*
D02*
G37*
G36*
X28577Y14436D02*
X28620Y14334D01*
X28692Y14244D01*
X28793Y14166D01*
X28923Y14100D01*
X29081Y14046D01*
X29268Y14004D01*
X29484Y13974D01*
X29729Y13956D01*
X30003Y13950D01*
Y12750D01*
X29729Y12744D01*
X29268Y12696D01*
X29081Y12654D01*
X28923Y12600D01*
X28793Y12534D01*
X28692Y12456D01*
X28620Y12366D01*
X28577Y12264D01*
X28563Y12150D01*
Y14550D01*
X28577Y14436D01*
D02*
G37*
G36*
X25449Y12150D02*
X25435Y12264D01*
X25391Y12366D01*
X25319Y12456D01*
X25217Y12534D01*
X25086Y12600D01*
X24927Y12654D01*
X24738Y12696D01*
X24520Y12726D01*
X24273Y12744D01*
X23997Y12750D01*
Y13950D01*
X24273Y13956D01*
X24738Y14004D01*
X24927Y14046D01*
X25086Y14100D01*
X25217Y14166D01*
X25319Y14244D01*
X25391Y14334D01*
X25435Y14436D01*
X25449Y14550D01*
Y12150D01*
D02*
G37*
G36*
X19337Y14436D02*
X19380Y14334D01*
X19453Y14244D01*
X19555Y14166D01*
X19685Y14100D01*
X19845Y14046D01*
X20034Y14004D01*
X20252Y13974D01*
X20499Y13956D01*
X20774Y13950D01*
Y12750D01*
X20499Y12744D01*
X20034Y12696D01*
X19845Y12654D01*
X19685Y12600D01*
X19555Y12534D01*
X19453Y12456D01*
X19380Y12366D01*
X19337Y12264D01*
X19322Y12150D01*
Y14550D01*
X19337Y14436D01*
D02*
G37*
G36*
X54328Y11243D02*
X47257Y4172D01*
X46550Y4879D01*
X46015Y6483D01*
X45403Y6612D01*
X45340Y8316D01*
X42423Y8126D01*
X42373Y8080D01*
X42265Y10542D01*
X42320Y10500D01*
X42447Y10462D01*
X42646Y10429D01*
X42917Y10401D01*
X44164Y10341D01*
X45909Y10322D01*
X47194Y11867D01*
X47922Y11515D01*
X49025Y12303D01*
X52561D01*
X54328Y11243D01*
D02*
G37*
G36*
X35568Y13451D02*
X36895Y12280D01*
X37010Y12213D01*
X37096Y12183D01*
X37152Y12190D01*
X35977Y11015D01*
X35983Y11071D01*
X35953Y11156D01*
X35886Y11272D01*
X35783Y11418D01*
X35643Y11594D01*
X35002Y12303D01*
X34392Y12926D01*
X35241Y13774D01*
X35568Y13451D01*
D02*
G37*
G36*
X39001Y10167D02*
X38000Y9166D01*
X37986Y9209D01*
X37944Y9277D01*
X37874Y9370D01*
X37649Y9631D01*
X36596Y10722D01*
X37444Y11571D01*
X39001Y10167D01*
D02*
G37*
G36*
X125808Y8020D02*
X125777Y8031D01*
X125718Y8041D01*
X125633Y8049D01*
X125215Y8069D01*
X124280Y8078D01*
X124091Y9278D01*
X124363Y9280D01*
X125388Y9351D01*
X125526Y9377D01*
X125642Y9408D01*
X125736Y9442D01*
X125808Y9480D01*
Y8020D01*
D02*
G37*
G36*
Y5520D02*
X125777Y5531D01*
X125718Y5541D01*
X125633Y5550D01*
X125215Y5569D01*
X124280Y5578D01*
X124091Y6778D01*
X124363Y6780D01*
X125388Y6851D01*
X125526Y6877D01*
X125642Y6908D01*
X125736Y6942D01*
X125808Y6980D01*
Y5520D01*
D02*
G37*
G36*
X131003Y4430D02*
X131822Y4422D01*
Y3222D01*
X131597Y3220D01*
X131126Y3188D01*
X131140Y3053D01*
X131079Y3085D01*
X130972Y3114D01*
X130817Y3139D01*
X130729Y3148D01*
X130609Y3123D01*
X130506Y3092D01*
X130419Y3058D01*
X130350Y3020D01*
Y3175D01*
X129732Y3207D01*
X128425Y3222D01*
X128233Y4422D01*
X128708Y4425D01*
X130413Y4543D01*
X130619Y4587D01*
X130781Y4638D01*
X130898Y4695D01*
X130970Y4760D01*
X131003Y4430D01*
D02*
G37*
G36*
X56803Y8061D02*
Y5465D01*
X57527Y4898D01*
X56700Y3045D01*
X56007Y3411D01*
X55201Y2282D01*
X55455Y1800D01*
X53602Y973D01*
X53230Y1448D01*
X52914Y1343D01*
X51500D01*
X49379Y2050D01*
X48672Y2757D01*
X55743Y9828D01*
X56803Y8061D01*
D02*
G37*
G36*
X125808Y-9480D02*
X125736Y-9442D01*
X125642Y-9408D01*
X125526Y-9377D01*
X125388Y-9351D01*
X125044Y-9311D01*
X124612Y-9286D01*
X124091Y-9278D01*
X124280Y-8078D01*
X125808Y-8020D01*
Y-9480D01*
D02*
G37*
G36*
Y-11980D02*
X125756Y-11956D01*
X125680Y-11934D01*
X125579Y-11914D01*
X125452Y-11897D01*
X125125Y-11871D01*
X124172Y-11850D01*
Y-10650D01*
X124448Y-10649D01*
X125680Y-10566D01*
X125756Y-10544D01*
X125808Y-10520D01*
Y-11980D01*
D02*
G37*
G36*
X37614Y-12427D02*
X37450Y-12396D01*
X37248Y-12423D01*
X37008Y-12510D01*
X36729Y-12656D01*
X36410Y-12861D01*
X36054Y-13125D01*
X35225Y-13832D01*
X34241Y-14774D01*
X33392Y-13926D01*
X33893Y-13415D01*
X35041Y-12113D01*
X35306Y-11756D01*
X35511Y-11438D01*
X35656Y-11159D01*
X35743Y-10918D01*
X35771Y-10716D01*
X35739Y-10553D01*
X37614Y-12427D01*
D02*
G37*
G36*
X53247Y-13688D02*
X52961Y-13999D01*
X53657Y-16086D01*
Y-17500D01*
X52950Y-19621D01*
X52243Y-20328D01*
X45172Y-13257D01*
X46939Y-12197D01*
X50475D01*
X51307Y-12791D01*
X51843Y-12196D01*
X53247Y-13688D01*
D02*
G37*
G36*
X19289Y-12275D02*
X19361Y-12302D01*
X19477Y-12325D01*
X19636Y-12345D01*
X20084Y-12375D01*
X21500Y-12400D01*
Y-13600D01*
X21081Y-13601D01*
X19361Y-13698D01*
X19289Y-13724D01*
X19261Y-13754D01*
Y-12246D01*
X19289Y-12275D01*
D02*
G37*
G36*
X130419Y-13058D02*
X130506Y-13092D01*
X130585Y-13115D01*
X131079Y-13085D01*
X131140Y-13053D01*
X131126Y-13196D01*
X131198Y-13204D01*
X131597Y-13220D01*
X131822Y-13222D01*
Y-14422D01*
X131001Y-14454D01*
X130970Y-14760D01*
X130898Y-14695D01*
X130781Y-14638D01*
X130619Y-14587D01*
X130413Y-14543D01*
X130161Y-14506D01*
X129524Y-14452D01*
X128233Y-14422D01*
X128425Y-13222D01*
X128908Y-13220D01*
X130350Y-13130D01*
Y-13020D01*
X130419Y-13058D01*
D02*
G37*
G36*
X28577Y-13264D02*
X28620Y-13366D01*
X28692Y-13456D01*
X28793Y-13534D01*
X28923Y-13600D01*
X29081Y-13654D01*
X29268Y-13696D01*
X29484Y-13726D01*
X29729Y-13744D01*
X30003Y-13750D01*
Y-14950D01*
X29729Y-14956D01*
X29268Y-15004D01*
X29081Y-15046D01*
X28923Y-15100D01*
X28793Y-15166D01*
X28692Y-15244D01*
X28620Y-15334D01*
X28577Y-15436D01*
X28563Y-15550D01*
Y-13150D01*
X28577Y-13264D01*
D02*
G37*
G36*
X25449Y-15700D02*
X25435Y-15586D01*
X25391Y-15484D01*
X25319Y-15394D01*
X25217Y-15316D01*
X25086Y-15250D01*
X24927Y-15196D01*
X24738Y-15154D01*
X24520Y-15124D01*
X24273Y-15106D01*
X23997Y-15100D01*
Y-13900D01*
X24273Y-13894D01*
X24738Y-13846D01*
X24927Y-13804D01*
X25086Y-13750D01*
X25217Y-13684D01*
X25319Y-13606D01*
X25391Y-13516D01*
X25435Y-13414D01*
X25449Y-13300D01*
Y-15700D01*
D02*
G37*
G36*
X28577Y-20564D02*
X28620Y-20666D01*
X28692Y-20756D01*
X28793Y-20834D01*
X28923Y-20900D01*
X29081Y-20954D01*
X29268Y-20996D01*
X29484Y-21026D01*
X29729Y-21044D01*
X30003Y-21050D01*
Y-22250D01*
X29729Y-22256D01*
X29268Y-22304D01*
X29081Y-22346D01*
X28923Y-22400D01*
X28793Y-22466D01*
X28692Y-22544D01*
X28620Y-22634D01*
X28577Y-22736D01*
X28563Y-22850D01*
Y-20450D01*
X28577Y-20564D01*
D02*
G37*
G36*
X50828Y-21743D02*
X50121Y-22450D01*
X48000Y-23157D01*
X46604D01*
X46296Y-23616D01*
X44387Y-22929D01*
X44579Y-22488D01*
X44464Y-22450D01*
X43740Y-21435D01*
X43030Y-21962D01*
X42267Y-20440D01*
X42846Y-20183D01*
X42697Y-19975D01*
Y-16439D01*
X43757Y-14672D01*
X50828Y-21743D01*
D02*
G37*
G36*
X25437Y-23638D02*
X25423Y-23560D01*
X25380Y-23489D01*
X25308Y-23427D01*
X25207Y-23374D01*
X25077Y-23328D01*
X24919Y-23291D01*
X24732Y-23262D01*
X24516Y-23241D01*
X23997Y-23225D01*
Y-22025D01*
X24272Y-22019D01*
X24736Y-21971D01*
X24925Y-21929D01*
X25085Y-21875D01*
X25215Y-21809D01*
X25317Y-21731D01*
X25390Y-21641D01*
X25434Y-21539D01*
X25449Y-21425D01*
X25437Y-23638D01*
D02*
G37*
G36*
X19337Y-21539D02*
X19380Y-21641D01*
X19453Y-21731D01*
X19555Y-21809D01*
X19685Y-21875D01*
X19845Y-21929D01*
X20034Y-21971D01*
X20252Y-22001D01*
X20499Y-22019D01*
X20774Y-22025D01*
Y-23225D01*
X20499Y-23231D01*
X20034Y-23279D01*
X19845Y-23321D01*
X19685Y-23375D01*
X19555Y-23441D01*
X19453Y-23519D01*
X19380Y-23609D01*
X19337Y-23711D01*
X19322Y-23825D01*
Y-21425D01*
X19337Y-21539D01*
D02*
G37*
G36*
X69852Y-19271D02*
X70085Y-22724D01*
X70192Y-23337D01*
X70318Y-23851D01*
X70463Y-24264D01*
X70628Y-24578D01*
X70812Y-24791D01*
X66759Y-24430D01*
X66965Y-24255D01*
X67149Y-23979D01*
X67312Y-23603D01*
X67452Y-23126D01*
X67572Y-22549D01*
X67669Y-21872D01*
X67799Y-20216D01*
X67843Y-18158D01*
X69842D01*
X69852Y-19271D01*
D02*
G37*
G36*
X44334Y-23580D02*
X42135Y-25850D01*
X40650Y-24365D01*
X40681Y-24347D01*
X40756Y-24284D01*
X41241Y-23827D01*
X42920Y-22166D01*
X44334Y-23580D01*
D02*
G37*
G36*
X34201Y-21838D02*
X35831Y-23243D01*
X36290Y-23568D01*
X36707Y-23821D01*
X37082Y-24002D01*
X37415Y-24111D01*
X37706Y-24149D01*
X37955Y-24114D01*
X35614Y-26455D01*
X35649Y-26206D01*
X35611Y-25915D01*
X35502Y-25582D01*
X35321Y-25207D01*
X35068Y-24790D01*
X34743Y-24331D01*
X34347Y-23830D01*
X33338Y-22701D01*
X32726Y-22074D01*
X33574Y-21226D01*
X34201Y-21838D01*
D02*
G37*
G36*
X39001Y-26500D02*
X38000Y-27501D01*
X37986Y-27458D01*
X37944Y-27390D01*
X37874Y-27297D01*
X37649Y-27035D01*
X36596Y-25944D01*
X37444Y-25096D01*
X39001Y-26500D01*
D02*
G37*
%LPC*%
G36*
X76947Y87946D02*
X69054D01*
Y80054D01*
X76947D01*
Y82653D01*
X77020Y82678D01*
X77138Y82704D01*
X77539Y82745D01*
X77789Y82751D01*
X77847Y82776D01*
X83993D01*
X91084Y75686D01*
X90893Y75223D01*
X83055D01*
X82995Y75249D01*
X81877Y75266D01*
X79896Y75403D01*
X79051Y75520D01*
X78289Y75669D01*
X77618Y75848D01*
X77040Y76055D01*
X76555Y76285D01*
X76161Y76534D01*
X75814Y76834D01*
X75770Y76849D01*
X74990Y77447D01*
X74030Y77845D01*
X73000Y77981D01*
X71970Y77845D01*
X71010Y77447D01*
X70185Y76815D01*
X69553Y75990D01*
X69155Y75030D01*
X69020Y74000D01*
X69155Y72970D01*
X69553Y72010D01*
X70185Y71185D01*
X71010Y70553D01*
X71970Y70155D01*
X73000Y70020D01*
X74030Y70155D01*
X74990Y70553D01*
X75770Y71151D01*
X75814Y71166D01*
X76161Y71466D01*
X76555Y71715D01*
X77040Y71946D01*
X77618Y72152D01*
X78289Y72331D01*
X79051Y72480D01*
X79896Y72597D01*
X81877Y72733D01*
X82995Y72751D01*
X83055Y72777D01*
X91448D01*
X93389Y70836D01*
X93197Y70373D01*
X89575D01*
X89517Y70399D01*
X89258Y70405D01*
X89048Y70420D01*
X88877Y70444D01*
X88749Y70472D01*
X88675Y70497D01*
Y71750D01*
X84325D01*
Y66550D01*
X88675D01*
Y67803D01*
X88749Y67828D01*
X88867Y67854D01*
X89267Y67895D01*
X89517Y67901D01*
X89575Y67927D01*
X93752D01*
X131277Y30402D01*
Y29761D01*
X131251Y29702D01*
X131224Y28426D01*
X131180Y27817D01*
X131175Y27780D01*
X130782Y27567D01*
X130747Y27556D01*
X130666Y27547D01*
X130657Y27553D01*
X130562Y27562D01*
X130468Y27581D01*
X130350Y27630D01*
X130308Y27613D01*
X130047Y27665D01*
X126110D01*
X125569Y27557D01*
X125110Y27250D01*
X124803Y26791D01*
X124696Y26250D01*
X124803Y25709D01*
X124920Y25535D01*
X124664Y25017D01*
X124425Y25001D01*
X124170Y24999D01*
X124108Y24973D01*
X121076D01*
X121017Y24999D01*
X120760Y25005D01*
X120553Y25020D01*
X120384Y25044D01*
X120257Y25072D01*
X120176Y25100D01*
X120175Y25100D01*
Y26250D01*
X115825D01*
Y21050D01*
X120175D01*
Y22400D01*
X120176Y22400D01*
X120257Y22428D01*
X120374Y22454D01*
X120770Y22495D01*
X121017Y22501D01*
X121076Y22526D01*
X124100D01*
X124158Y22501D01*
X124669Y22490D01*
X124932Y21984D01*
X124803Y21791D01*
X124696Y21250D01*
X124803Y20709D01*
X125063Y20320D01*
X125110Y20089D01*
Y19911D01*
X125063Y19680D01*
X124803Y19291D01*
X124696Y18750D01*
X124803Y18209D01*
X125110Y17750D01*
X125569Y17443D01*
X126110Y17335D01*
X130047D01*
X130308Y17387D01*
X130350Y17370D01*
X130468Y17419D01*
X130562Y17438D01*
X130657Y17447D01*
X130688Y17464D01*
X130709Y17472D01*
X130774Y17489D01*
X130853Y17504D01*
X131820Y17570D01*
X132072Y17572D01*
X132118Y17592D01*
X132168Y17580D01*
X132197Y17598D01*
X132367D01*
X132835Y17691D01*
X133232Y17957D01*
X137665Y22389D01*
X137930Y22786D01*
X138023Y23254D01*
Y31700D01*
X137930Y32168D01*
X137665Y32565D01*
X85365Y84865D01*
X84968Y85130D01*
X84500Y85224D01*
X77847D01*
X77789Y85249D01*
X77529Y85255D01*
X77320Y85270D01*
X77149Y85294D01*
X77020Y85322D01*
X76947Y85347D01*
Y87946D01*
D02*
G37*
G36*
X73000Y66980D02*
X71970Y66845D01*
X71010Y66447D01*
X70185Y65815D01*
X69553Y64990D01*
X69155Y64030D01*
X69020Y63000D01*
X69155Y61970D01*
X69553Y61010D01*
X70185Y60185D01*
X71010Y59553D01*
X71970Y59155D01*
X73000Y59020D01*
X74030Y59155D01*
X74990Y59553D01*
X75815Y60185D01*
X76447Y61010D01*
X76552Y61262D01*
X76552D01*
X76575Y61318D01*
X76626Y61351D01*
X76654Y61391D01*
X76670Y61403D01*
X76792Y61459D01*
X77014Y61526D01*
X77302Y61586D01*
X78900Y61710D01*
X79400Y61258D01*
Y59150D01*
X83600D01*
Y59834D01*
X83881Y59997D01*
X84325Y59728D01*
Y59250D01*
X88675D01*
Y64450D01*
X84325D01*
Y63166D01*
X84044Y63003D01*
X83600Y63272D01*
Y63850D01*
X80880D01*
X80865Y63865D01*
X80468Y64130D01*
X80132Y64197D01*
X80013Y64249D01*
X78715Y64276D01*
X77706Y64354D01*
X77323Y64410D01*
X77014Y64474D01*
X76792Y64541D01*
X76670Y64597D01*
X76654Y64609D01*
X76626Y64649D01*
X76575Y64682D01*
X76552Y64738D01*
X76552D01*
X76447Y64990D01*
X75815Y65815D01*
X74990Y66447D01*
X74030Y66845D01*
X73000Y66980D01*
D02*
G37*
G36*
X270000Y69297D02*
X268559Y69108D01*
X267215Y68551D01*
X266062Y67666D01*
X265177Y66513D01*
X264621Y65170D01*
X264431Y63728D01*
X264621Y62287D01*
X265177Y60944D01*
X266062Y59790D01*
X267215Y58906D01*
X268559Y58349D01*
X270000Y58160D01*
X271441Y58349D01*
X272784Y58906D01*
X273938Y59790D01*
X274823Y60944D01*
X275379Y62287D01*
X275569Y63728D01*
X275379Y65170D01*
X274823Y66513D01*
X273938Y67666D01*
X272784Y68551D01*
X271441Y69108D01*
X270000Y69297D01*
D02*
G37*
G36*
X236535D02*
X235094Y69108D01*
X233751Y68551D01*
X232598Y67666D01*
X231713Y66513D01*
X231156Y65170D01*
X230966Y63728D01*
X231156Y62287D01*
X231713Y60944D01*
X232598Y59790D01*
X233751Y58906D01*
X235094Y58349D01*
X236535Y58160D01*
X237977Y58349D01*
X239320Y58906D01*
X240473Y59790D01*
X241358Y60944D01*
X241915Y62287D01*
X242104Y63728D01*
X241915Y65170D01*
X241358Y66513D01*
X240473Y67666D01*
X239320Y68551D01*
X237977Y69108D01*
X236535Y69297D01*
D02*
G37*
G36*
X289972Y59679D02*
X288891Y59537D01*
X287883Y59119D01*
X287017Y58455D01*
X286353Y57590D01*
X285936Y56582D01*
X285793Y55500D01*
X285936Y54418D01*
X286353Y53411D01*
X287017Y52545D01*
X287883Y51881D01*
X288891Y51463D01*
X289972Y51321D01*
X291054Y51463D01*
X292062Y51881D01*
X292927Y52545D01*
X293592Y53411D01*
X294009Y54418D01*
X294151Y55500D01*
X294009Y56582D01*
X293592Y57590D01*
X292927Y58455D01*
X292062Y59119D01*
X291054Y59537D01*
X289972Y59679D01*
D02*
G37*
G36*
X76947Y56946D02*
X69054D01*
Y49054D01*
X76947D01*
Y51653D01*
X77020Y51678D01*
X77138Y51704D01*
X77539Y51745D01*
X77789Y51751D01*
X77847Y51776D01*
X80000D01*
X80468Y51870D01*
X80865Y52135D01*
X80880Y52150D01*
X83600D01*
Y56850D01*
X79400D01*
Y54224D01*
X77847D01*
X77789Y54249D01*
X77529Y54255D01*
X77320Y54270D01*
X77149Y54294D01*
X77020Y54322D01*
X76947Y54347D01*
Y56946D01*
D02*
G37*
G36*
X151862Y39137D02*
X151772Y39100D01*
X151250D01*
Y38917D01*
X150750Y38759D01*
X150733Y38770D01*
X150000Y38916D01*
X149267Y38770D01*
X148645Y38355D01*
X148230Y37733D01*
X148084Y37000D01*
X148230Y36267D01*
X148645Y35645D01*
X149267Y35230D01*
X150000Y35084D01*
X150733Y35230D01*
X150750Y35241D01*
X151250Y35069D01*
Y34900D01*
X151772D01*
X151862Y34863D01*
X151924Y34888D01*
X151990Y34875D01*
X152027Y34900D01*
X155950D01*
Y39100D01*
X152027D01*
X151990Y39125D01*
X151924Y39112D01*
X151862Y39137D01*
D02*
G37*
G36*
X374575Y45973D02*
X371425D01*
X370138Y45804D01*
X368939Y45307D01*
X367909Y44517D01*
X367118Y43487D01*
X366621Y42287D01*
X366452Y41000D01*
X366621Y39713D01*
X367118Y38513D01*
X367909Y37483D01*
X368939Y36693D01*
X370138Y36196D01*
X371425Y36027D01*
X374575D01*
X375862Y36196D01*
X377061Y36693D01*
X378091Y37483D01*
X378882Y38513D01*
X379379Y39713D01*
X379548Y41000D01*
X379379Y42287D01*
X378882Y43487D01*
X378091Y44517D01*
X377061Y45307D01*
X375862Y45804D01*
X374575Y45973D01*
D02*
G37*
G36*
X151862Y34137D02*
X151772Y34100D01*
X151250D01*
Y33786D01*
X151138Y33758D01*
X150935Y33724D01*
X150362Y33684D01*
X150233Y33770D01*
X149500Y33916D01*
X148767Y33770D01*
X148145Y33355D01*
X147730Y32733D01*
X147584Y32000D01*
X147730Y31267D01*
X148145Y30645D01*
X148767Y30229D01*
X149500Y30084D01*
X150233Y30229D01*
X150373Y30323D01*
X150652Y30308D01*
X150922Y30279D01*
X151138Y30242D01*
X151250Y30214D01*
Y29900D01*
X151772D01*
X151862Y29863D01*
X151939Y29895D01*
X152022Y29883D01*
X152046Y29900D01*
X155950D01*
Y34100D01*
X152046D01*
X152022Y34117D01*
X151939Y34105D01*
X151862Y34137D01*
D02*
G37*
G36*
X162850Y39100D02*
X158150D01*
Y34900D01*
X162850D01*
X162850Y34900D01*
Y34900D01*
X163248Y34666D01*
X164378Y33536D01*
Y30771D01*
X163922Y30559D01*
X163566Y30799D01*
X163560Y30815D01*
X163153Y31249D01*
X163015Y31417D01*
X162908Y31563D01*
X162850Y31656D01*
Y31865D01*
X162875Y31926D01*
X162852Y31983D01*
X162865Y32043D01*
X162850Y32066D01*
Y34100D01*
X158150D01*
Y29900D01*
X160684D01*
X160707Y29885D01*
X160767Y29898D01*
X160824Y29875D01*
X160885Y29900D01*
X161094D01*
X161187Y29842D01*
X161327Y29740D01*
X161707Y29411D01*
X161927Y29197D01*
X161992Y29171D01*
X162252Y28912D01*
Y28338D01*
X161326Y27412D01*
X161192Y27419D01*
X160907Y27450D01*
X160807Y27469D01*
X160724Y27489D01*
X160666Y27507D01*
X160636Y27520D01*
X160592Y27545D01*
X160513Y27555D01*
X160510Y27557D01*
X160389Y27581D01*
X160271Y27630D01*
X160230Y27613D01*
X159968Y27665D01*
X156032D01*
X155490Y27557D01*
X155031Y27250D01*
X154725Y26791D01*
X154617Y26250D01*
X154725Y25709D01*
X154984Y25320D01*
X155031Y25089D01*
Y24911D01*
X154984Y24680D01*
X154725Y24291D01*
X154617Y23750D01*
X154725Y23209D01*
X155031Y22750D01*
X155490Y22443D01*
X156032Y22335D01*
X159968D01*
X160230Y22387D01*
X160271Y22370D01*
X160389Y22419D01*
X160510Y22443D01*
X160513Y22445D01*
X160593Y22456D01*
X160639Y22482D01*
X160671Y22495D01*
X160731Y22515D01*
X160816Y22535D01*
X160907Y22552D01*
X161578Y22604D01*
X161778Y22606D01*
X161843Y22634D01*
X162256D01*
X162256Y22634D01*
X162685Y22720D01*
X163049Y22963D01*
X165793Y25707D01*
X166036Y26071D01*
X166049Y26134D01*
X166293Y26378D01*
X166293Y26378D01*
X166536Y26742D01*
X166621Y27171D01*
Y34000D01*
X166621Y34000D01*
X166536Y34429D01*
X166293Y34793D01*
X166293Y34793D01*
X163293Y37793D01*
X162929Y38036D01*
X162850Y38052D01*
Y39100D01*
D02*
G37*
G36*
X374575Y30973D02*
X371425D01*
X370138Y30804D01*
X368939Y30307D01*
X367909Y29517D01*
X367118Y28487D01*
X366621Y27287D01*
X366452Y26000D01*
X366621Y24713D01*
X367118Y23513D01*
X367909Y22483D01*
X368939Y21693D01*
X370138Y21196D01*
X371425Y21027D01*
X374575D01*
X375862Y21196D01*
X377061Y21693D01*
X378091Y22483D01*
X378882Y23513D01*
X379379Y24713D01*
X379548Y26000D01*
X379379Y27287D01*
X378882Y28487D01*
X378091Y29517D01*
X377061Y30307D01*
X375862Y30804D01*
X374575Y30973D01*
D02*
G37*
G36*
X289972Y26012D02*
X288891Y25870D01*
X287883Y25453D01*
X287017Y24788D01*
X286353Y23923D01*
X285936Y22915D01*
X285793Y21833D01*
X285936Y20752D01*
X286353Y19744D01*
X287017Y18878D01*
X287883Y18214D01*
X288891Y17797D01*
X289972Y17654D01*
X291054Y17797D01*
X292062Y18214D01*
X292927Y18878D01*
X293592Y19744D01*
X294009Y20752D01*
X294151Y21833D01*
X294009Y22915D01*
X293592Y23923D01*
X292927Y24788D01*
X292062Y25453D01*
X291054Y25870D01*
X289972Y26012D01*
D02*
G37*
G36*
X270000Y22840D02*
X268559Y22651D01*
X267215Y22095D01*
X266062Y21210D01*
X265177Y20056D01*
X264621Y18713D01*
X264431Y17272D01*
X264621Y15830D01*
X265177Y14487D01*
X266062Y13334D01*
X267215Y12449D01*
X268559Y11892D01*
X270000Y11703D01*
X271441Y11892D01*
X272784Y12449D01*
X273938Y13334D01*
X274823Y14487D01*
X275379Y15830D01*
X275569Y17272D01*
X275379Y18713D01*
X274823Y20056D01*
X273938Y21210D01*
X272784Y22095D01*
X271441Y22651D01*
X270000Y22840D01*
D02*
G37*
G36*
X236535D02*
X235094Y22651D01*
X233751Y22095D01*
X232598Y21210D01*
X231713Y20056D01*
X231156Y18713D01*
X230966Y17272D01*
X231156Y15830D01*
X231713Y14487D01*
X232598Y13334D01*
X233751Y12449D01*
X235094Y11892D01*
X236535Y11703D01*
X237977Y11892D01*
X239320Y12449D01*
X240473Y13334D01*
X241358Y14487D01*
X241915Y15830D01*
X242104Y17272D01*
X241915Y18713D01*
X241358Y20056D01*
X240473Y21210D01*
X239320Y22095D01*
X237977Y22651D01*
X236535Y22840D01*
D02*
G37*
G36*
X270732Y-11703D02*
X269291Y-11892D01*
X267948Y-12449D01*
X266794Y-13334D01*
X265910Y-14487D01*
X265353Y-15830D01*
X265163Y-17272D01*
X265353Y-18713D01*
X265910Y-20056D01*
X266794Y-21210D01*
X267948Y-22095D01*
X269291Y-22651D01*
X270732Y-22840D01*
X272174Y-22651D01*
X273517Y-22095D01*
X274670Y-21210D01*
X275555Y-20056D01*
X276111Y-18713D01*
X276301Y-17272D01*
X276111Y-15830D01*
X275555Y-14487D01*
X274670Y-13334D01*
X273517Y-12449D01*
X272174Y-11892D01*
X270732Y-11703D01*
D02*
G37*
G36*
X237268D02*
X235826Y-11892D01*
X234483Y-12449D01*
X233330Y-13334D01*
X232445Y-14487D01*
X231889Y-15830D01*
X231699Y-17272D01*
X231889Y-18713D01*
X232445Y-20056D01*
X233330Y-21210D01*
X234483Y-22095D01*
X235826Y-22651D01*
X237268Y-22840D01*
X238709Y-22651D01*
X240052Y-22095D01*
X241206Y-21210D01*
X242091Y-20056D01*
X242647Y-18713D01*
X242837Y-17272D01*
X242647Y-15830D01*
X242091Y-14487D01*
X241206Y-13334D01*
X240052Y-12449D01*
X238709Y-11892D01*
X237268Y-11703D01*
D02*
G37*
G36*
X290972Y-19154D02*
X289891Y-19297D01*
X288883Y-19714D01*
X288017Y-20378D01*
X287353Y-21244D01*
X286936Y-22252D01*
X286793Y-23333D01*
X286936Y-24415D01*
X287353Y-25423D01*
X288017Y-26288D01*
X288883Y-26952D01*
X289891Y-27370D01*
X290972Y-27512D01*
X292054Y-27370D01*
X293062Y-26952D01*
X293927Y-26288D01*
X294592Y-25423D01*
X295009Y-24415D01*
X295151Y-23333D01*
X295009Y-22252D01*
X294592Y-21244D01*
X293927Y-20378D01*
X293062Y-19714D01*
X292054Y-19297D01*
X290972Y-19154D01*
D02*
G37*
G36*
X181500Y64649D02*
X168500D01*
X168041Y64459D01*
X165041Y61459D01*
X164851Y61000D01*
Y52000D01*
X165041Y51541D01*
X179350Y37231D01*
Y31269D01*
X167350Y19268D01*
X166897Y18965D01*
X166594Y18513D01*
X166433Y18351D01*
X166323Y18317D01*
X165833Y18388D01*
X165803Y18397D01*
X165789Y18415D01*
X165781Y18427D01*
X163360Y20040D01*
X163175Y20077D01*
X163000Y20149D01*
X162938Y20124D01*
X162873Y20137D01*
X162715Y20032D01*
X162541Y19959D01*
X160231Y17649D01*
X160045D01*
X159968Y17665D01*
X156032D01*
X155955Y17649D01*
X149000Y17649D01*
X148541Y17459D01*
X147541Y16459D01*
X147351Y16000D01*
X147351Y10000D01*
X147541Y9541D01*
X147806Y9431D01*
X147970Y8889D01*
X147041Y7959D01*
X146851Y7500D01*
Y3500D01*
X147041Y3041D01*
X148541Y1541D01*
X149000Y1351D01*
X154864D01*
X154926Y1376D01*
X154991Y1363D01*
X155148Y1468D01*
X155323Y1541D01*
X155349Y1602D01*
X155404Y1639D01*
X155499Y1782D01*
X155851Y2017D01*
X155871Y2047D01*
X156033Y2114D01*
X156254Y2335D01*
X159968D01*
X160045Y2351D01*
X166000D01*
X166459Y2541D01*
X167220Y3302D01*
X167246Y3363D01*
X167301Y3400D01*
X167401Y3551D01*
X167459Y3574D01*
X167532Y3749D01*
X167637Y3907D01*
X167624Y3972D01*
X167649Y4034D01*
Y6500D01*
X167663Y6516D01*
X168046Y6850D01*
X175000D01*
X175459Y7041D01*
X197250Y28831D01*
X212851Y13231D01*
X212851Y-13931D01*
X197450Y-29331D01*
X175459Y-7341D01*
X175000Y-7151D01*
X167921D01*
X167675Y-6869D01*
X167588Y-6650D01*
X167649Y-6504D01*
X167649Y-6502D01*
X167649Y-6500D01*
Y-4034D01*
X167624Y-3973D01*
X167637Y-3907D01*
X167532Y-3750D01*
X167459Y-3575D01*
X167401Y-3551D01*
X167299Y-3398D01*
X167244Y-3361D01*
X167218Y-3300D01*
X166459Y-2541D01*
X166000Y-2351D01*
X160045D01*
X159968Y-2335D01*
X156254D01*
X156033Y-2114D01*
X155871Y-2047D01*
X155851Y-2017D01*
X155499Y-1782D01*
X155404Y-1639D01*
X155349Y-1602D01*
X155323Y-1541D01*
X155148Y-1468D01*
X154991Y-1363D01*
X154926Y-1376D01*
X154864Y-1351D01*
X149000D01*
X148541Y-1541D01*
X147041Y-3041D01*
X146851Y-3500D01*
Y-7500D01*
X147041Y-7959D01*
X147970Y-8889D01*
X147806Y-9431D01*
X147541Y-9541D01*
X147351Y-10000D01*
X147351Y-16000D01*
X147541Y-16459D01*
X148541Y-17459D01*
X149000Y-17649D01*
X155955Y-17649D01*
X156032Y-17665D01*
X159968D01*
X160045Y-17649D01*
X160231D01*
X162541Y-19959D01*
X162715Y-20032D01*
X162873Y-20137D01*
X162938Y-20124D01*
X163000Y-20149D01*
X163175Y-20077D01*
X163360Y-20040D01*
X165601Y-18546D01*
X165609Y-18535D01*
X165623Y-18517D01*
X165653Y-18508D01*
X166143Y-18437D01*
X166253Y-18472D01*
X179350Y-31569D01*
Y-37531D01*
X165041Y-51841D01*
X164851Y-52300D01*
Y-61300D01*
X165041Y-61759D01*
X168041Y-64759D01*
X168500Y-64949D01*
X181200D01*
X181659Y-64759D01*
X202905Y-43513D01*
X202905Y-43513D01*
X206809Y-39609D01*
X226959Y-19459D01*
X227149Y-19000D01*
X227149Y19000D01*
X226959Y19459D01*
X203459Y42959D01*
X181959Y64459D01*
X181500Y64649D01*
D02*
G37*
G36*
X151862Y-29863D02*
X151772Y-29900D01*
X151250D01*
Y-30083D01*
X150750Y-30241D01*
X150733Y-30229D01*
X150000Y-30084D01*
X149267Y-30229D01*
X148645Y-30645D01*
X148230Y-31267D01*
X148084Y-32000D01*
X148230Y-32733D01*
X148645Y-33355D01*
X149267Y-33770D01*
X150000Y-33916D01*
X150733Y-33770D01*
X150750Y-33759D01*
X151250Y-33931D01*
Y-34100D01*
X151772D01*
X151862Y-34137D01*
X151924Y-34112D01*
X151990Y-34125D01*
X152027Y-34100D01*
X155950D01*
Y-29900D01*
X152027D01*
X151990Y-29875D01*
X151924Y-29888D01*
X151862Y-29863D01*
D02*
G37*
G36*
X105000Y-13851D02*
X98500Y-13851D01*
X98041Y-14041D01*
X97041Y-15041D01*
X96851Y-15500D01*
X96851Y-23500D01*
X97041Y-23959D01*
X97737Y-24656D01*
Y-25099D01*
X98181D01*
X98541Y-25459D01*
X99000Y-25649D01*
X102731Y-25649D01*
X104351Y-27269D01*
Y-32500D01*
X104541Y-32959D01*
X104900Y-33108D01*
Y-33600D01*
X110100D01*
Y-32818D01*
X110459Y-32459D01*
X110649Y-32000D01*
X110649Y-28649D01*
X120791Y-28650D01*
X120989Y-29149D01*
X120545Y-29567D01*
X120163Y-29883D01*
X119828Y-30129D01*
X119651Y-30238D01*
X119592Y-30250D01*
X118984D01*
X118955Y-30229D01*
X118892Y-30240D01*
X118834Y-30213D01*
X118735Y-30250D01*
X118166D01*
X118122Y-30222D01*
X118065Y-30235D01*
X118012Y-30213D01*
X117922Y-30250D01*
X117400D01*
Y-30553D01*
X117190Y-30701D01*
X117000Y-30811D01*
X116810Y-30701D01*
X116600Y-30553D01*
Y-30250D01*
X116078D01*
X115988Y-30213D01*
X115935Y-30235D01*
X115878Y-30222D01*
X115834Y-30250D01*
X112400D01*
Y-34950D01*
X115834D01*
X115878Y-34978D01*
X115935Y-34965D01*
X115988Y-34987D01*
X116078Y-34950D01*
X116600D01*
Y-34647D01*
X116810Y-34499D01*
X117000Y-34389D01*
X117190Y-34499D01*
X117400Y-34647D01*
Y-34950D01*
X117922D01*
X118012Y-34987D01*
X118065Y-34965D01*
X118122Y-34978D01*
X118166Y-34950D01*
X120813D01*
X120843Y-34971D01*
X120891Y-34963D01*
X120935Y-34985D01*
X121045Y-34950D01*
X121590D01*
X121590Y-34950D01*
X121600Y-34950D01*
X121621Y-34483D01*
X121613Y-34435D01*
X121635Y-34391D01*
X121655Y-34146D01*
X121708Y-33918D01*
X121804Y-33653D01*
X121947Y-33354D01*
X122139Y-33024D01*
X122382Y-32665D01*
X122670Y-32286D01*
X123414Y-31433D01*
X123858Y-30974D01*
X123862Y-30966D01*
X123870Y-30962D01*
X123872Y-30956D01*
X124188Y-30720D01*
X124650Y-30927D01*
Y-35100D01*
X131350D01*
Y-29900D01*
X130157D01*
X130121Y-29880D01*
X130021Y-29867D01*
X130016Y-29865D01*
X129997Y-29849D01*
X129951Y-29790D01*
X129890Y-29669D01*
X129826Y-29480D01*
X129771Y-29237D01*
X129719Y-28730D01*
X129726Y-28639D01*
X129769Y-28324D01*
X129826Y-28071D01*
X129890Y-27882D01*
X129951Y-27761D01*
X129996Y-27702D01*
X130015Y-27687D01*
X130019Y-27685D01*
X130119Y-27673D01*
X130181Y-27638D01*
X130589Y-27557D01*
X131047Y-27250D01*
X131354Y-26791D01*
X131462Y-26250D01*
X131354Y-25709D01*
X131095Y-25320D01*
X131047Y-25089D01*
Y-24911D01*
X131095Y-24680D01*
X131354Y-24291D01*
X131462Y-23750D01*
X131354Y-23209D01*
X131047Y-22750D01*
X130589Y-22443D01*
X130047Y-22335D01*
X126110D01*
X125849Y-22387D01*
X125808Y-22370D01*
X125689Y-22419D01*
X125657Y-22425D01*
X125637Y-22419D01*
X125586Y-22422D01*
X125575Y-22421D01*
X125566Y-22423D01*
X125074Y-22456D01*
X125010Y-22451D01*
X124944Y-22442D01*
X124911Y-22434D01*
X124624Y-22243D01*
X124000Y-22119D01*
X121350D01*
X120726Y-22243D01*
X120564Y-22351D01*
X113769Y-22351D01*
X106437Y-15019D01*
Y-14899D01*
X106318D01*
X105459Y-14041D01*
X105000Y-13851D01*
D02*
G37*
G36*
X375620Y-22027D02*
X372470D01*
X371183Y-22196D01*
X369984Y-22693D01*
X368954Y-23483D01*
X368163Y-24513D01*
X367667Y-25713D01*
X367497Y-27000D01*
X367667Y-28287D01*
X368163Y-29487D01*
X368954Y-30517D01*
X369984Y-31307D01*
X371183Y-31804D01*
X372470Y-31973D01*
X375620D01*
X376907Y-31804D01*
X378107Y-31307D01*
X379137Y-30517D01*
X379927Y-29487D01*
X380424Y-28287D01*
X380593Y-27000D01*
X380424Y-25713D01*
X379927Y-24513D01*
X379137Y-23483D01*
X378107Y-22693D01*
X376907Y-22196D01*
X375620Y-22027D01*
D02*
G37*
G36*
X159968Y-22335D02*
X156032D01*
X155490Y-22443D01*
X155031Y-22750D01*
X154725Y-23209D01*
X154617Y-23750D01*
X154725Y-24291D01*
X154984Y-24680D01*
X155031Y-24911D01*
Y-25089D01*
X154984Y-25320D01*
X154725Y-25709D01*
X154617Y-26250D01*
X154725Y-26791D01*
X155031Y-27250D01*
X155490Y-27557D01*
X156032Y-27665D01*
X159968D01*
X160230Y-27613D01*
X160271Y-27630D01*
X160389Y-27581D01*
X160436Y-27571D01*
X160508Y-27578D01*
X160546Y-27567D01*
X160557Y-27564D01*
X161425Y-27512D01*
X162378Y-28465D01*
Y-29900D01*
X158150D01*
Y-34100D01*
X162850D01*
Y-33204D01*
X162924Y-33187D01*
X163248Y-33154D01*
X163452Y-33149D01*
X163528Y-33116D01*
X163878Y-33046D01*
X163972Y-33065D01*
X164378Y-33337D01*
Y-34035D01*
X163312Y-35102D01*
X162850Y-34911D01*
Y-34900D01*
X158150D01*
Y-39100D01*
X162850D01*
Y-38153D01*
X162880Y-38151D01*
X163006Y-38149D01*
X163134Y-38095D01*
X163429Y-38036D01*
X163793Y-37793D01*
X166293Y-35293D01*
X166293Y-35293D01*
X166536Y-34929D01*
X166622Y-34500D01*
Y-27172D01*
X166536Y-26742D01*
X166293Y-26379D01*
X166293Y-26379D01*
X162872Y-22957D01*
X162508Y-22714D01*
X162078Y-22628D01*
X162078Y-22628D01*
X161839D01*
X161774Y-22601D01*
X161563Y-22598D01*
X161200Y-22581D01*
X160911Y-22549D01*
X160809Y-22531D01*
X160724Y-22511D01*
X160666Y-22492D01*
X160635Y-22480D01*
X160592Y-22455D01*
X160513Y-22445D01*
X160510Y-22443D01*
X160389Y-22419D01*
X160271Y-22370D01*
X160230Y-22387D01*
X159968Y-22335D01*
D02*
G37*
G36*
X151862Y-34863D02*
X151772Y-34900D01*
X151250D01*
Y-35083D01*
X150750Y-35241D01*
X150733Y-35230D01*
X150000Y-35084D01*
X149267Y-35230D01*
X148645Y-35645D01*
X148230Y-36267D01*
X148084Y-37000D01*
X148230Y-37733D01*
X148645Y-38355D01*
X149267Y-38770D01*
X150000Y-38916D01*
X150733Y-38770D01*
X150750Y-38759D01*
X151250Y-38931D01*
Y-39100D01*
X151772D01*
X151862Y-39137D01*
X151924Y-39112D01*
X151990Y-39125D01*
X152027Y-39100D01*
X155950D01*
Y-34900D01*
X152027D01*
X151990Y-34875D01*
X151924Y-34888D01*
X151862Y-34863D01*
D02*
G37*
G36*
X96629Y-26351D02*
X96510Y-26400D01*
X96381D01*
X96160Y-26491D01*
X96069Y-26583D01*
X95949Y-26632D01*
X95858Y-26724D01*
X95858Y-26724D01*
X94632Y-27949D01*
X94583Y-28069D01*
X94491Y-28160D01*
X94400Y-28381D01*
Y-28510D01*
X94351Y-28629D01*
Y-28758D01*
X94350Y-28758D01*
Y-46351D01*
X83740Y-46351D01*
X81629D01*
X81510Y-46400D01*
X81381D01*
X81160Y-46491D01*
X81069Y-46583D01*
X80949Y-46632D01*
X80858Y-46723D01*
X79291Y-48291D01*
X77723Y-49858D01*
X77632Y-49949D01*
X77583Y-50069D01*
X77491Y-50160D01*
X77400Y-50381D01*
Y-50510D01*
X77351Y-50629D01*
Y-50758D01*
X77351Y-50758D01*
Y-53036D01*
X61843D01*
X61843Y-53036D01*
X61413Y-53121D01*
X61049Y-53364D01*
X61049Y-53364D01*
X50535Y-63878D01*
X48915D01*
X48852Y-63851D01*
X48638Y-63846D01*
X48470Y-63834D01*
X48335Y-63815D01*
X48250Y-63796D01*
Y-62825D01*
X43050D01*
Y-67175D01*
X48250D01*
Y-66204D01*
X48324Y-66187D01*
X48648Y-66154D01*
X48852Y-66149D01*
X48915Y-66122D01*
X51000D01*
X51000Y-66122D01*
X51429Y-66036D01*
X51793Y-65793D01*
X62307Y-55279D01*
X76889D01*
X77351Y-55279D01*
Y-56871D01*
X77400Y-56990D01*
Y-57119D01*
X77491Y-57340D01*
X77583Y-57431D01*
X77632Y-57551D01*
X77723Y-57642D01*
X77723Y-57642D01*
X78053Y-57972D01*
Y-58104D01*
X78185D01*
X78449Y-58368D01*
X78569Y-58417D01*
X78660Y-58509D01*
X78881Y-58600D01*
X79010D01*
X79129Y-58649D01*
X99369D01*
Y-67637D01*
X99351Y-67676D01*
X99321Y-68517D01*
X99288Y-68834D01*
X99243Y-69098D01*
X99191Y-69299D01*
X99140Y-69431D01*
X99118Y-69468D01*
X99088Y-69487D01*
X98628D01*
Y-70008D01*
X98591Y-70099D01*
X98612Y-70151D01*
X98600Y-70205D01*
X98628Y-70251D01*
Y-76797D01*
X98576Y-76876D01*
X98451Y-77500D01*
Y-78057D01*
X98433Y-78098D01*
X98424Y-78539D01*
X98396Y-78911D01*
X98353Y-79225D01*
X98296Y-79478D01*
X98233Y-79667D01*
X98171Y-79789D01*
X98125Y-79848D01*
X98105Y-79865D01*
X98099Y-79867D01*
X97998Y-79880D01*
X97964Y-79900D01*
X97050D01*
Y-84100D01*
X101750D01*
Y-80601D01*
X101787Y-80510D01*
X101785Y-80503D01*
X101787Y-80497D01*
X101774Y-79909D01*
X101812Y-79629D01*
X101869Y-79376D01*
X101933Y-79188D01*
X101995Y-79066D01*
X102041Y-79006D01*
X102061Y-78990D01*
X102066Y-78987D01*
X102167Y-78974D01*
X102202Y-78954D01*
X103372D01*
Y-70251D01*
X103400Y-70205D01*
X103388Y-70151D01*
X103409Y-70099D01*
X103372Y-70008D01*
Y-69487D01*
X102912D01*
X102882Y-69468D01*
X102860Y-69431D01*
X102809Y-69299D01*
X102757Y-69098D01*
X102714Y-68842D01*
X102657Y-68124D01*
X102649Y-67688D01*
X102631Y-67646D01*
Y-58649D01*
X105871D01*
X105990Y-58600D01*
X106119D01*
X106340Y-58509D01*
X106404Y-58445D01*
X106517Y-58521D01*
X107250Y-58666D01*
X107983Y-58521D01*
X108605Y-58105D01*
X109020Y-57483D01*
X109166Y-56750D01*
X109020Y-56017D01*
X108945Y-55904D01*
X109009Y-55840D01*
X109100Y-55619D01*
X109100Y-55490D01*
X109149Y-55371D01*
Y-53451D01*
X109611Y-53411D01*
X121221D01*
X121845Y-53287D01*
X122374Y-52933D01*
X129154Y-46154D01*
X129507Y-45624D01*
X129612Y-45098D01*
X129649Y-45012D01*
X129659Y-44481D01*
X129687Y-44100D01*
X131350D01*
Y-38900D01*
X124650D01*
Y-41384D01*
X124626Y-41456D01*
X124650Y-41503D01*
Y-41550D01*
X124646Y-41577D01*
X124650Y-41581D01*
Y-42245D01*
X124547Y-42412D01*
X124302Y-42743D01*
X123572Y-43582D01*
X123427Y-43731D01*
X123150Y-43717D01*
X122931Y-43694D01*
X122757Y-43666D01*
X122750Y-43664D01*
Y-43400D01*
X122228D01*
X122138Y-43363D01*
X122057Y-43396D01*
X121971Y-43384D01*
X121951Y-43400D01*
X118050D01*
Y-47600D01*
X121982D01*
X122026Y-47628D01*
X122083Y-47615D01*
X122138Y-47637D01*
X122263Y-47737D01*
X122322Y-48371D01*
X120545Y-50148D01*
X109149D01*
Y-39629D01*
X109108Y-39530D01*
X109116Y-39424D01*
X109057Y-39356D01*
X109040Y-39268D01*
X108777Y-38876D01*
X108722Y-38840D01*
X108697Y-38779D01*
X103649Y-33731D01*
X102649Y-32731D01*
X102649Y-28500D01*
X102459Y-28041D01*
X100959Y-26541D01*
X100500Y-26351D01*
X96629Y-26351D01*
D02*
G37*
G36*
X375620Y-37027D02*
X372470D01*
X371183Y-37196D01*
X369984Y-37693D01*
X368954Y-38483D01*
X368163Y-39513D01*
X367667Y-40713D01*
X367497Y-42000D01*
X367667Y-43287D01*
X368163Y-44487D01*
X368954Y-45517D01*
X369984Y-46307D01*
X371183Y-46804D01*
X372470Y-46973D01*
X375620D01*
X376907Y-46804D01*
X378107Y-46307D01*
X379137Y-45517D01*
X379927Y-44487D01*
X380424Y-43287D01*
X380593Y-42000D01*
X380424Y-40713D01*
X379927Y-39513D01*
X379137Y-38483D01*
X378107Y-37693D01*
X376907Y-37196D01*
X375620Y-37027D01*
D02*
G37*
G36*
X290972Y-52821D02*
X289891Y-52963D01*
X288883Y-53381D01*
X288017Y-54045D01*
X287353Y-54910D01*
X286936Y-55918D01*
X286793Y-57000D01*
X286936Y-58082D01*
X287353Y-59089D01*
X288017Y-59955D01*
X288883Y-60619D01*
X289891Y-61037D01*
X290972Y-61179D01*
X292054Y-61037D01*
X293062Y-60619D01*
X293927Y-59955D01*
X294592Y-59089D01*
X295009Y-58082D01*
X295151Y-57000D01*
X295009Y-55918D01*
X294592Y-54910D01*
X293927Y-54045D01*
X293062Y-53381D01*
X292054Y-52963D01*
X290972Y-52821D01*
D02*
G37*
G36*
X32987Y-62638D02*
X32933Y-62661D01*
X32876Y-62648D01*
X32832Y-62676D01*
X27400D01*
Y-67376D01*
X32834D01*
X32880Y-67404D01*
X32935Y-67392D01*
X32987Y-67413D01*
X33078Y-67376D01*
X33599D01*
Y-66917D01*
X33614Y-66893D01*
X33652Y-66871D01*
X33785Y-66821D01*
X33986Y-66769D01*
X34243Y-66726D01*
X34736Y-66687D01*
X35128Y-66710D01*
X35398Y-66743D01*
X35614Y-66783D01*
X35750Y-66821D01*
Y-67175D01*
X36272D01*
X36362Y-67212D01*
X36432Y-67183D01*
X36507Y-67196D01*
X36537Y-67175D01*
X40950D01*
Y-62825D01*
X36533D01*
X36501Y-62803D01*
X36429Y-62816D01*
X36362Y-62788D01*
X36272Y-62825D01*
X35750D01*
Y-63196D01*
X35608Y-63238D01*
X35409Y-63276D01*
X34639Y-63338D01*
X34567Y-63336D01*
X34248Y-63304D01*
X33982Y-63260D01*
X33779Y-63210D01*
X33645Y-63161D01*
X33602Y-63137D01*
X33599Y-63133D01*
Y-62676D01*
X33078D01*
X32987Y-62638D01*
D02*
G37*
G36*
X270732Y-58160D02*
X269291Y-58349D01*
X267948Y-58906D01*
X266794Y-59790D01*
X265910Y-60944D01*
X265353Y-62287D01*
X265163Y-63728D01*
X265353Y-65170D01*
X265910Y-66513D01*
X266794Y-67666D01*
X267948Y-68551D01*
X269291Y-69108D01*
X270732Y-69297D01*
X272174Y-69108D01*
X273517Y-68551D01*
X274670Y-67666D01*
X275555Y-66513D01*
X276111Y-65170D01*
X276301Y-63728D01*
X276111Y-62287D01*
X275555Y-60944D01*
X274670Y-59790D01*
X273517Y-58906D01*
X272174Y-58349D01*
X270732Y-58160D01*
D02*
G37*
G36*
X237268D02*
X235826Y-58349D01*
X234483Y-58906D01*
X233330Y-59790D01*
X232445Y-60944D01*
X231889Y-62287D01*
X231699Y-63728D01*
X231889Y-65170D01*
X232445Y-66513D01*
X233330Y-67666D01*
X234483Y-68551D01*
X235826Y-69108D01*
X237268Y-69297D01*
X238709Y-69108D01*
X240052Y-68551D01*
X241206Y-67666D01*
X242091Y-66513D01*
X242647Y-65170D01*
X242837Y-63728D01*
X242647Y-62287D01*
X242091Y-60944D01*
X241206Y-59790D01*
X240052Y-58906D01*
X238709Y-58349D01*
X237268Y-58160D01*
D02*
G37*
G36*
X122447Y-63475D02*
X114553D01*
Y-71368D01*
X116172D01*
X116363Y-71830D01*
X115424Y-72769D01*
X112427D01*
Y-69487D01*
X107684D01*
Y-78954D01*
X108424D01*
Y-79900D01*
X108250D01*
Y-84100D01*
X110398D01*
X110555Y-84131D01*
X110600D01*
X110758Y-84100D01*
X112950D01*
Y-79900D01*
X111687D01*
Y-78954D01*
X112427D01*
Y-76031D01*
X116100D01*
X116724Y-75907D01*
X117253Y-75554D01*
X119653Y-73154D01*
X120007Y-72624D01*
X120131Y-72000D01*
Y-71368D01*
X122447D01*
Y-63475D01*
D02*
G37*
%LPD*%
G36*
X76337Y85086D02*
X76380Y84984D01*
X76453Y84894D01*
X76555Y84816D01*
X76686Y84750D01*
X76845Y84696D01*
X77034Y84654D01*
X77252Y84624D01*
X77499Y84606D01*
X77775Y84600D01*
Y83400D01*
X77499Y83394D01*
X77034Y83346D01*
X76845Y83304D01*
X76686Y83250D01*
X76555Y83184D01*
X76453Y83106D01*
X76380Y83016D01*
X76337Y82914D01*
X76323Y82800D01*
Y85200D01*
X76337Y85086D01*
D02*
G37*
G36*
X75773Y76011D02*
X76240Y75715D01*
X76791Y75454D01*
X77425Y75227D01*
X78143Y75036D01*
X78944Y74879D01*
X79829Y74757D01*
X81849Y74617D01*
X82985Y74600D01*
Y73400D01*
X81849Y73383D01*
X79829Y73243D01*
X78944Y73121D01*
X78143Y72964D01*
X77425Y72773D01*
X76791Y72546D01*
X76240Y72285D01*
X75773Y71989D01*
X75390Y71658D01*
Y76342D01*
X75773Y76011D01*
D02*
G37*
G36*
X88065Y70236D02*
X88109Y70134D01*
X88182Y70044D01*
X88283Y69966D01*
X88414Y69900D01*
X88573Y69846D01*
X88762Y69804D01*
X88980Y69774D01*
X89227Y69756D01*
X89503Y69750D01*
Y68550D01*
X89227Y68544D01*
X88762Y68496D01*
X88573Y68454D01*
X88414Y68400D01*
X88283Y68334D01*
X88182Y68256D01*
X88109Y68166D01*
X88065Y68064D01*
X88051Y67950D01*
Y70350D01*
X88065Y70236D01*
D02*
G37*
G36*
X133103Y29214D02*
X133206Y27497D01*
X133245Y27285D01*
X133289Y27117D01*
X133340Y26994D01*
X133396Y26914D01*
X131637D01*
X131624Y26785D01*
X132067Y26778D01*
X131878Y25578D01*
X131502Y25564D01*
X131470Y25240D01*
X131398Y25305D01*
X131281Y25362D01*
X131119Y25413D01*
X130913Y25457D01*
X130661Y25494D01*
X130355Y25520D01*
X130350Y25520D01*
Y25520D01*
X130024Y25548D01*
X128733Y25578D01*
X128925Y26778D01*
X129408Y26780D01*
X130350Y26839D01*
Y26980D01*
X130421Y26942D01*
X130515Y26908D01*
X130631Y26877D01*
X130715Y26861D01*
X131579Y26915D01*
X131621Y26937D01*
X131660Y26994D01*
X131711Y27117D01*
X131755Y27285D01*
X131794Y27497D01*
X131826Y27753D01*
X131873Y28395D01*
X131900Y29689D01*
X133100D01*
X133103Y29214D01*
D02*
G37*
G36*
X125808Y23020D02*
X125756Y23044D01*
X125680Y23066D01*
X125579Y23086D01*
X125452Y23103D01*
X125125Y23129D01*
X124172Y23150D01*
Y24350D01*
X124448Y24351D01*
X125680Y24433D01*
X125756Y24456D01*
X125808Y24480D01*
Y23020D01*
D02*
G37*
G36*
X119577Y24836D02*
X119620Y24734D01*
X119692Y24644D01*
X119793Y24566D01*
X119923Y24500D01*
X120081Y24446D01*
X120268Y24404D01*
X120484Y24374D01*
X120729Y24356D01*
X121003Y24350D01*
Y23150D01*
X120729Y23144D01*
X120268Y23096D01*
X120081Y23054D01*
X119923Y23000D01*
X119793Y22934D01*
X119692Y22856D01*
X119620Y22766D01*
X119577Y22664D01*
X119563Y22550D01*
Y24950D01*
X119577Y24836D01*
D02*
G37*
G36*
X130381Y21969D02*
X130439Y21959D01*
X130524Y21950D01*
X130942Y21931D01*
X131878Y21922D01*
X132067Y20722D01*
X131795Y20720D01*
X130770Y20649D01*
X130631Y20623D01*
X130515Y20592D01*
X130421Y20558D01*
X130350Y20520D01*
Y21980D01*
X130381Y21969D01*
D02*
G37*
G36*
Y19469D02*
X130439Y19459D01*
X130524Y19451D01*
X130942Y19431D01*
X131878Y19422D01*
X132067Y18222D01*
X131795Y18220D01*
X130770Y18149D01*
X130631Y18123D01*
X130515Y18092D01*
X130421Y18058D01*
X130350Y18020D01*
Y19480D01*
X130381Y19469D01*
D02*
G37*
G36*
X84937Y60300D02*
X84923Y60414D01*
X84880Y60516D01*
X84808Y60606D01*
X84707Y60684D01*
X84577Y60750D01*
X84419Y60804D01*
X84232Y60846D01*
X84016Y60876D01*
X83996Y60878D01*
X83694Y60846D01*
X83506Y60804D01*
X83348Y60750D01*
X83218Y60684D01*
X83118Y60606D01*
X83046Y60516D01*
X83002Y60414D01*
X82988Y60300D01*
Y62700D01*
X83002Y62586D01*
X83046Y62484D01*
X83118Y62394D01*
X83218Y62316D01*
X83348Y62250D01*
X83506Y62196D01*
X83694Y62154D01*
X83910Y62124D01*
X83930Y62122D01*
X84232Y62154D01*
X84419Y62196D01*
X84577Y62250D01*
X84707Y62316D01*
X84808Y62394D01*
X84880Y62484D01*
X84923Y62586D01*
X84937Y62700D01*
Y60300D01*
D02*
G37*
G36*
X76182Y64150D02*
X76339Y64034D01*
X76562Y63933D01*
X76852Y63844D01*
X77210Y63770D01*
X77634Y63709D01*
X78683Y63627D01*
X80000Y63600D01*
Y62400D01*
X79308Y62393D01*
X77210Y62230D01*
X76852Y62156D01*
X76562Y62067D01*
X76339Y61966D01*
X76182Y61850D01*
X76092Y61721D01*
Y64279D01*
X76182Y64150D01*
D02*
G37*
G36*
X76337Y54086D02*
X76380Y53984D01*
X76453Y53894D01*
X76555Y53816D01*
X76686Y53750D01*
X76845Y53696D01*
X77034Y53654D01*
X77252Y53624D01*
X77499Y53606D01*
X77775Y53600D01*
Y52400D01*
X77499Y52394D01*
X77034Y52346D01*
X76845Y52304D01*
X76686Y52250D01*
X76555Y52184D01*
X76453Y52106D01*
X76380Y52016D01*
X76337Y51914D01*
X76323Y51800D01*
Y54200D01*
X76337Y54086D01*
D02*
G37*
G36*
X151862Y35512D02*
X151843Y35605D01*
X151787Y35688D01*
X151694Y35761D01*
X151564Y35824D01*
X151397Y35878D01*
X151192Y35922D01*
X150950Y35956D01*
X150670Y35980D01*
X150000Y36000D01*
Y38000D01*
X150354Y38005D01*
X151192Y38078D01*
X151397Y38122D01*
X151564Y38176D01*
X151694Y38239D01*
X151787Y38312D01*
X151843Y38395D01*
X151862Y38488D01*
Y35512D01*
D02*
G37*
G36*
Y30512D02*
X151838Y30605D01*
X151768Y30688D01*
X151649Y30761D01*
X151484Y30824D01*
X151271Y30878D01*
X151012Y30922D01*
X150705Y30956D01*
X149949Y30995D01*
X149500Y31000D01*
Y33000D01*
X149949Y33005D01*
X151012Y33078D01*
X151271Y33122D01*
X151484Y33176D01*
X151649Y33239D01*
X151768Y33312D01*
X151838Y33395D01*
X151862Y33488D01*
Y30512D01*
D02*
G37*
G36*
X162172Y31848D02*
X162149Y31753D01*
X162157Y31640D01*
X162197Y31510D01*
X162267Y31363D01*
X162369Y31199D01*
X162502Y31018D01*
X162665Y30819D01*
X163086Y30371D01*
X162379Y29664D01*
X162146Y29890D01*
X161732Y30248D01*
X161551Y30381D01*
X161387Y30483D01*
X161240Y30553D01*
X161110Y30593D01*
X160997Y30601D01*
X160902Y30578D01*
X160824Y30524D01*
X162226Y31926D01*
X162172Y31848D01*
D02*
G37*
G36*
X160348Y26937D02*
X160441Y26897D01*
X160549Y26863D01*
X160673Y26833D01*
X160813Y26808D01*
X161141Y26771D01*
X161531Y26752D01*
X161750Y26750D01*
Y25750D01*
X161531Y25748D01*
X160813Y25692D01*
X160673Y25667D01*
X160549Y25637D01*
X160441Y25602D01*
X160348Y25563D01*
X160271Y25520D01*
Y26980D01*
X160348Y26937D01*
D02*
G37*
G36*
X160346Y24438D02*
X160438Y24400D01*
X160546Y24366D01*
X160671Y24337D01*
X160812Y24312D01*
X161143Y24276D01*
X161540Y24258D01*
X161763Y24256D01*
X161771Y23256D01*
X161550Y23254D01*
X160823Y23197D01*
X160681Y23171D01*
X160555Y23140D01*
X160444Y23105D01*
X160350Y23065D01*
X160271Y23020D01*
Y24480D01*
X160346Y24438D01*
D02*
G37*
G36*
X165421Y17886D02*
X165430Y17791D01*
X165388Y17307D01*
X160731Y12649D01*
X160731Y12649D01*
X160333D01*
X160283Y12629D01*
X160234Y12649D01*
X160210D01*
X160156Y12627D01*
X159968Y12665D01*
X156032D01*
X155932Y12645D01*
X155921Y12649D01*
X155921D01*
X155889Y12636D01*
X155844Y12627D01*
X155790Y12649D01*
X155766D01*
X155717Y12629D01*
X155667Y12649D01*
X155629D01*
X155510Y12600D01*
X155381D01*
X155160Y12509D01*
X155069Y12417D01*
X154949Y12368D01*
X154581Y12000D01*
X154500D01*
X152500Y10000D01*
X148000Y10000D01*
X148000Y16000D01*
X149000Y17000D01*
X160500Y17000D01*
X163000Y19500D01*
X165421Y17886D01*
D02*
G37*
G36*
X153851Y8149D02*
Y6629D01*
X153900Y6510D01*
Y6381D01*
X153991Y6160D01*
X154083Y6069D01*
X154132Y5949D01*
X154949Y5132D01*
X155069Y5083D01*
X155160Y4991D01*
X155381Y4900D01*
X155510D01*
X155629Y4851D01*
X155955D01*
X156032Y4835D01*
X159968D01*
X160045Y4851D01*
X160371D01*
X160490Y4900D01*
X160619D01*
X160840Y4991D01*
X160931Y5083D01*
X161051Y5132D01*
X162769Y6850D01*
X162769Y6850D01*
X166645Y6850D01*
X167000Y6500D01*
Y4034D01*
X166897Y3965D01*
X166761Y3761D01*
X166000Y3000D01*
X156000D01*
X155573Y2574D01*
X155490Y2557D01*
X155031Y2250D01*
X154864Y2000D01*
X149000D01*
X147500Y3500D01*
Y7500D01*
X149000Y9000D01*
X153000D01*
X153851Y8149D01*
D02*
G37*
G36*
X155031Y-2250D02*
X155490Y-2557D01*
X155573Y-2574D01*
X156000Y-3000D01*
X166000D01*
X166759Y-3759D01*
X166897Y-3965D01*
X167000Y-4034D01*
Y-6500D01*
X166645Y-6851D01*
X162769Y-6851D01*
X161051Y-5132D01*
X160931Y-5083D01*
X160840Y-4991D01*
X160619Y-4900D01*
X160490D01*
X160371Y-4851D01*
X160045D01*
X160045Y-4851D01*
X160045D01*
X159968Y-4835D01*
X156032D01*
X155955Y-4851D01*
X155500D01*
X155041Y-5041D01*
X154041Y-6041D01*
X153851Y-6500D01*
Y-8149D01*
X153000Y-9000D01*
X149000D01*
X147500Y-7500D01*
Y-3500D01*
X149000Y-2000D01*
X154864D01*
X155031Y-2250D01*
D02*
G37*
G36*
X153600Y-11100D02*
Y-11119D01*
X153691Y-11340D01*
X153783Y-11431D01*
X153832Y-11551D01*
X154649Y-12368D01*
X154769Y-12417D01*
X154860Y-12509D01*
X155081Y-12600D01*
X155210D01*
X155329Y-12649D01*
X155667D01*
X155717Y-12629D01*
X155766Y-12649D01*
X155790D01*
X155844Y-12627D01*
X155889Y-12636D01*
X155921Y-12649D01*
X155921D01*
X155932Y-12645D01*
X156032Y-12665D01*
X159968D01*
X160156Y-12627D01*
X160210Y-12649D01*
X160234D01*
X160283Y-12629D01*
X160333Y-12649D01*
X160431D01*
X160509Y-12728D01*
X160571Y-12753D01*
X160608Y-12809D01*
X160789Y-12930D01*
X160910Y-13111D01*
X160965Y-13148D01*
X160991Y-13209D01*
X160991Y-13209D01*
X165208Y-17427D01*
X165250Y-17911D01*
X165241Y-18006D01*
X163000Y-19500D01*
X160500Y-17000D01*
X149000Y-17000D01*
X148000Y-16000D01*
X148000Y-10000D01*
X152500Y-10000D01*
X153600Y-11100D01*
D02*
G37*
G36*
X203000Y42500D02*
X226500Y19000D01*
X226500Y-19000D01*
X202446Y-43054D01*
X202446D01*
X181200Y-64300D01*
X168500D01*
X165500Y-61300D01*
Y-52300D01*
X180000Y-37800D01*
Y-31300D01*
X165668Y-16968D01*
X165668Y-16968D01*
X162856Y-14156D01*
X161450Y-12750D01*
X161329Y-12569D01*
X161222Y-12497D01*
X161150Y-12390D01*
X160968Y-12269D01*
Y-12269D01*
X160890Y-12190D01*
X160832Y-12166D01*
X160819Y-12153D01*
X160758Y-12128D01*
X160739D01*
X160603Y-12071D01*
X160581Y-12049D01*
X160532Y-12029D01*
X160532D01*
X160532Y-12029D01*
X160501D01*
X160431Y-12000D01*
X160333D01*
X160283Y-12020D01*
X160234Y-12000D01*
X160210D01*
X160167Y-12018D01*
X160029Y-11990D01*
X159905Y-12015D01*
X156096D01*
X156059Y-12008D01*
X156035Y-12013D01*
X156016Y-11999D01*
X155971Y-11990D01*
X155921Y-12000D01*
X155921Y-12000D01*
X155921D01*
X155920Y-12000D01*
X155833Y-12018D01*
X155790Y-12000D01*
X155766D01*
X155717Y-12020D01*
X155667Y-12000D01*
X155458D01*
X155458Y-12000D01*
X155329D01*
X155109Y-11909D01*
X154500Y-11300D01*
Y-6800D01*
X155500Y-5800D01*
X160500Y-5800D01*
X162500Y-7800D01*
X175000D01*
X197450Y-30250D01*
X213500Y-14200D01*
X213500Y13500D01*
X197250Y29750D01*
X175000Y7500D01*
X166645D01*
X166645Y7500D01*
X162500Y7500D01*
Y7500D01*
X162310Y7310D01*
X162310Y7310D01*
X160683Y5683D01*
X160683Y5683D01*
X160591Y5591D01*
X160371Y5500D01*
X155758D01*
X155758Y5500D01*
X155629D01*
X155409Y5591D01*
X154683Y6317D01*
X154683Y6317D01*
X154591Y6409D01*
X154500Y6629D01*
Y8149D01*
X154500Y8149D01*
X154500Y8149D01*
Y11000D01*
X155041Y11541D01*
X155409Y11909D01*
X155629Y12000D01*
X155922D01*
X155971Y11990D01*
X156016Y11999D01*
X156017Y12000D01*
X159981D01*
X160029Y11990D01*
X160078Y12000D01*
X161000D01*
X161190Y12190D01*
X161190Y12190D01*
X164295Y15295D01*
X180000Y31000D01*
Y37500D01*
X165500Y52000D01*
Y61000D01*
X168500Y64000D01*
X181500D01*
X203000Y42500D01*
D02*
G37*
G36*
X151862Y-33488D02*
X151843Y-33395D01*
X151787Y-33312D01*
X151694Y-33239D01*
X151564Y-33176D01*
X151397Y-33122D01*
X151192Y-33078D01*
X150950Y-33044D01*
X150670Y-33020D01*
X150000Y-33000D01*
Y-31000D01*
X150354Y-30995D01*
X151192Y-30922D01*
X151397Y-30878D01*
X151564Y-30824D01*
X151694Y-30761D01*
X151787Y-30688D01*
X151843Y-30605D01*
X151862Y-30512D01*
Y-33488D01*
D02*
G37*
G36*
X125808Y-23132D02*
X126800Y-23150D01*
Y-24350D01*
X125808Y-24401D01*
Y-24480D01*
X125756Y-24456D01*
X125680Y-24433D01*
X125579Y-24414D01*
X125572Y-24413D01*
X124707Y-24458D01*
Y-24362D01*
X124172Y-24350D01*
Y-23150D01*
X124448Y-23149D01*
X124707Y-23132D01*
Y-23042D01*
X124747Y-23063D01*
X124825Y-23081D01*
X124940Y-23097D01*
X125071Y-23107D01*
X125680Y-23066D01*
X125756Y-23044D01*
X125808Y-23020D01*
Y-23132D01*
D02*
G37*
G36*
X113500Y-23000D02*
X120600Y-23000D01*
X122000Y-24400D01*
X122000Y-27000D01*
X121000Y-28000D01*
X110000Y-28000D01*
X110000Y-32000D01*
X109500Y-32500D01*
X105000D01*
Y-27000D01*
X103000Y-25000D01*
X99000Y-25000D01*
X97500Y-23500D01*
X97500Y-15500D01*
X98500Y-14500D01*
X105000Y-14500D01*
X113500Y-23000D01*
D02*
G37*
G36*
X125380Y-25947D02*
X128271Y-27022D01*
X130039Y-27029D01*
X129849Y-27052D01*
X129679Y-27124D01*
X129529Y-27244D01*
X129399Y-27413D01*
X129289Y-27630D01*
X129199Y-27895D01*
X129129Y-28209D01*
X129079Y-28571D01*
X129067Y-28740D01*
X129129Y-29342D01*
X129199Y-29656D01*
X129289Y-29921D01*
X129399Y-30138D01*
X129529Y-30307D01*
X129679Y-30428D01*
X129849Y-30500D01*
X130039Y-30524D01*
X126039D01*
X126229Y-30500D01*
X126399Y-30428D01*
X126549Y-30307D01*
X126679Y-30138D01*
X126789Y-29921D01*
X126879Y-29656D01*
X126949Y-29342D01*
X126999Y-28980D01*
X127012Y-28810D01*
X126950Y-28205D01*
X126880Y-27890D01*
X126790Y-27623D01*
X126701Y-27447D01*
X126677Y-27461D01*
X126334Y-27706D01*
X125970Y-28001D01*
X125177Y-28738D01*
X123231Y-27855D01*
X123650Y-27438D01*
X125369Y-25912D01*
X125380Y-25947D01*
D02*
G37*
G36*
X123392Y-30522D02*
X122935Y-30993D01*
X122166Y-31875D01*
X121853Y-32287D01*
X121589Y-32678D01*
X121373Y-33050D01*
X121204Y-33402D01*
X121084Y-33734D01*
X121012Y-34046D01*
X120988Y-34338D01*
X118810Y-30862D01*
X118939Y-31001D01*
X119108Y-31072D01*
X119318Y-31074D01*
X119569Y-31008D01*
X119860Y-30872D01*
X120191Y-30668D01*
X120563Y-30396D01*
X120975Y-30054D01*
X121921Y-29165D01*
X123392Y-30522D01*
D02*
G37*
G36*
X118012Y-31587D02*
X118388Y-31600D01*
Y-33600D01*
X118012Y-33606D01*
Y-34338D01*
X117988Y-34198D01*
X117916Y-34072D01*
X117796Y-33962D01*
X117628Y-33866D01*
X117412Y-33784D01*
X117148Y-33718D01*
X117000Y-33694D01*
X116852Y-33718D01*
X116588Y-33784D01*
X116372Y-33866D01*
X116204Y-33962D01*
X116084Y-34072D01*
X116012Y-34198D01*
X115988Y-34338D01*
Y-33613D01*
X115612Y-33600D01*
Y-31600D01*
X115988Y-31594D01*
Y-30862D01*
X116012Y-31002D01*
X116084Y-31128D01*
X116204Y-31238D01*
X116372Y-31334D01*
X116588Y-31416D01*
X116852Y-31482D01*
X117000Y-31506D01*
X117148Y-31482D01*
X117412Y-31416D01*
X117628Y-31334D01*
X117796Y-31238D01*
X117916Y-31128D01*
X117988Y-31002D01*
X118012Y-30862D01*
Y-31587D01*
D02*
G37*
%LPC*%
G36*
X127836Y-26975D02*
X127593Y-27020D01*
X128262Y-27022D01*
X128073Y-26977D01*
X127836Y-26975D01*
D02*
G37*
%LPD*%
G36*
X160348Y-23063D02*
X160441Y-23102D01*
X160550Y-23137D01*
X160676Y-23167D01*
X160817Y-23192D01*
X161149Y-23229D01*
X161545Y-23248D01*
X161767Y-23250D01*
Y-24250D01*
X161545Y-24252D01*
X160817Y-24308D01*
X160676Y-24333D01*
X160550Y-24363D01*
X160441Y-24397D01*
X160348Y-24437D01*
X160271Y-24480D01*
Y-23020D01*
X160348Y-23063D01*
D02*
G37*
G36*
X160378Y-25584D02*
X160497Y-25642D01*
X160626Y-25693D01*
X160767Y-25737D01*
X160918Y-25775D01*
X161081Y-25806D01*
X161439Y-25846D01*
X161634Y-25857D01*
X161840Y-25860D01*
X161651Y-26860D01*
X161422Y-26861D01*
X160471Y-26919D01*
X160384Y-26937D01*
X160317Y-26957D01*
X160271Y-26980D01*
Y-25520D01*
X160378Y-25584D01*
D02*
G37*
G36*
X162238Y-31095D02*
X162275Y-31180D01*
X162335Y-31255D01*
X162420Y-31320D01*
X162529Y-31375D01*
X162662Y-31420D01*
X162820Y-31455D01*
X163002Y-31480D01*
X163208Y-31495D01*
X163438Y-31500D01*
Y-32500D01*
X163208Y-32505D01*
X162820Y-32545D01*
X162662Y-32580D01*
X162529Y-32625D01*
X162420Y-32680D01*
X162335Y-32745D01*
X162275Y-32820D01*
X162238Y-32905D01*
X162226Y-33000D01*
Y-31000D01*
X162238Y-31095D01*
D02*
G37*
G36*
X162234Y-36391D02*
X162257Y-36414D01*
X162296Y-36434D01*
X162350Y-36451D01*
X162419Y-36466D01*
X162505Y-36478D01*
X162721Y-36495D01*
X163000Y-36500D01*
Y-37500D01*
X162853Y-37501D01*
X162419Y-37534D01*
X162350Y-37549D01*
X162296Y-37566D01*
X162257Y-37586D01*
X162234Y-37609D01*
X162226Y-37635D01*
Y-36365D01*
X162234Y-36391D01*
D02*
G37*
G36*
X151862Y-38488D02*
X151843Y-38395D01*
X151787Y-38312D01*
X151694Y-38239D01*
X151564Y-38176D01*
X151397Y-38122D01*
X151192Y-38078D01*
X150950Y-38044D01*
X150670Y-38019D01*
X150000Y-38000D01*
Y-36000D01*
X150354Y-35995D01*
X151192Y-35922D01*
X151397Y-35878D01*
X151564Y-35824D01*
X151694Y-35761D01*
X151787Y-35688D01*
X151843Y-35605D01*
X151862Y-35512D01*
Y-38488D01*
D02*
G37*
G36*
X128840Y-43476D02*
X129260D01*
X129211Y-43491D01*
X129166Y-43537D01*
X129127Y-43613D01*
X129094Y-43720D01*
X129065Y-43857D01*
X129042Y-44025D01*
X129010Y-44451D01*
X129000Y-45000D01*
X127000D01*
X126997Y-44710D01*
X126952Y-44091D01*
X126943Y-44097D01*
X126565Y-44405D01*
X125729Y-45185D01*
X124100Y-44685D01*
Y-46400D01*
X123727Y-46406D01*
X123099Y-46453D01*
X122844Y-46494D01*
X122628Y-46547D01*
X122452Y-46612D01*
X122315Y-46688D01*
X122216Y-46776D01*
X122158Y-46876D01*
X122138Y-46988D01*
Y-44012D01*
X122158Y-44086D01*
X122216Y-44152D01*
X122315Y-44210D01*
X122452Y-44260D01*
X122628Y-44303D01*
X122844Y-44338D01*
X123099Y-44365D01*
X123688Y-44394D01*
X124049Y-44022D01*
X124809Y-43150D01*
X125085Y-42777D01*
X125291Y-42445D01*
X125427Y-42154D01*
X125493Y-41906D01*
X125490Y-41699D01*
X125417Y-41533D01*
X125274Y-41410D01*
X128840Y-43476D01*
D02*
G37*
G36*
X100500Y-27000D02*
X102000Y-28500D01*
X102000Y-33000D01*
X103190Y-34190D01*
X103190Y-34190D01*
X108238Y-39238D01*
X108500Y-39629D01*
X108500D01*
X108500Y-39629D01*
Y-50112D01*
Y-53451D01*
X108500Y-53451D01*
X108500D01*
Y-55371D01*
X108409Y-55591D01*
X106091Y-57909D01*
X105871Y-58000D01*
X79129D01*
X78909Y-57909D01*
X78513Y-57513D01*
X78513Y-57513D01*
X78183Y-57183D01*
X78183Y-57183D01*
X78091Y-57091D01*
X78000Y-56871D01*
Y-55279D01*
X78000Y-55279D01*
X78000Y-55279D01*
Y-54691D01*
X77902Y-54677D01*
X77696Y-54663D01*
X77465Y-54658D01*
Y-53658D01*
X77696Y-53653D01*
X78000Y-53621D01*
Y-50758D01*
X78000Y-50758D01*
Y-50629D01*
X78091Y-50409D01*
X78183Y-50317D01*
X78183Y-50317D01*
X79750Y-48750D01*
X81317Y-47183D01*
X81317Y-47183D01*
X81409Y-47091D01*
X81629Y-47000D01*
X83740D01*
X94350Y-47000D01*
X95000D01*
Y-28758D01*
X95000Y-28758D01*
Y-28629D01*
X95091Y-28409D01*
X96317Y-27183D01*
X96317Y-27183D01*
X96409Y-27091D01*
X96629Y-27000D01*
X100500Y-27000D01*
D02*
G37*
G36*
X47638Y-64095D02*
X47675Y-64180D01*
X47735Y-64255D01*
X47820Y-64320D01*
X47929Y-64375D01*
X48062Y-64420D01*
X48220Y-64455D01*
X48402Y-64480D01*
X48608Y-64495D01*
X48838Y-64500D01*
Y-65500D01*
X48608Y-65505D01*
X48220Y-65545D01*
X48062Y-65580D01*
X47929Y-65625D01*
X47820Y-65680D01*
X47735Y-65745D01*
X47675Y-65820D01*
X47638Y-65905D01*
X47626Y-66000D01*
Y-64000D01*
X47638Y-64095D01*
D02*
G37*
G36*
X102008Y-68155D02*
X102068Y-68923D01*
X102121Y-69235D01*
X102190Y-69499D01*
X102273Y-69715D01*
X102372Y-69883D01*
X102486Y-70003D01*
X102615Y-70075D01*
X102760Y-70099D01*
X99240D01*
X99385Y-70075D01*
X99514Y-70003D01*
X99628Y-69883D01*
X99726Y-69715D01*
X99810Y-69499D01*
X99879Y-69235D01*
X99932Y-68923D01*
X99970Y-68563D01*
X100000Y-67699D01*
X102000D01*
X102008Y-68155D01*
D02*
G37*
G36*
X101088Y-78334D02*
X102083Y-78330D01*
X101893Y-78355D01*
X101723Y-78428D01*
X101573Y-78549D01*
X101443Y-78718D01*
X101333Y-78935D01*
X101243Y-79201D01*
X101173Y-79514D01*
X101123Y-79871D01*
X101138Y-80512D01*
X101088Y-80512D01*
X101083Y-80742D01*
X99083D01*
X99097Y-80520D01*
X98083Y-80524D01*
X98273Y-80499D01*
X98443Y-80426D01*
X98593Y-80305D01*
X98723Y-80136D01*
X98833Y-79919D01*
X98923Y-79654D01*
X98993Y-79340D01*
X99043Y-78979D01*
X99073Y-78570D01*
X99083Y-78112D01*
X101083D01*
X101088Y-78334D01*
D02*
G37*
%LPC*%
G36*
X128432Y-43380D02*
X128188Y-43414D01*
X127998Y-43476D01*
X128840D01*
X128649Y-43400D01*
X128432Y-43380D01*
D02*
G37*
%LPD*%
G36*
X33011Y-63426D02*
X33084Y-63549D01*
X33204Y-63658D01*
X33371Y-63752D01*
X33588Y-63832D01*
X33852Y-63897D01*
X34163Y-63948D01*
X34523Y-63984D01*
X34654Y-63988D01*
X35498Y-63921D01*
X35762Y-63869D01*
X35978Y-63806D01*
X36146Y-63731D01*
X36266Y-63644D01*
X36338Y-63547D01*
X36362Y-63437D01*
Y-66563D01*
X36338Y-66458D01*
X36266Y-66365D01*
X36146Y-66282D01*
X35978Y-66211D01*
X35762Y-66150D01*
X35498Y-66101D01*
X35186Y-66062D01*
X34729Y-66036D01*
X34163Y-66081D01*
X33852Y-66133D01*
X33588Y-66201D01*
X33371Y-66283D01*
X33204Y-66381D01*
X33084Y-66494D01*
X33011Y-66621D01*
X32987Y-66764D01*
Y-63288D01*
X33011Y-63426D01*
D02*
G37*
%LPC*%
G36*
X46060Y10188D02*
Y9066D01*
X46361Y9969D01*
X46236Y10060D01*
X46060Y10188D01*
D02*
G37*
%LPD*%
D10*
X43757Y-14672D02*
X43124Y-15447D01*
X42657Y-16333D01*
X42377Y-17294D01*
X42294Y-18292D01*
X42411Y-19286D01*
X42724Y-20237D01*
X44029Y-21995D02*
X44907Y-22601D01*
X45894Y-23007D01*
X46944Y-23195D01*
X48010Y-23155D01*
X49044Y-22891D01*
X49998Y-22412D01*
X50828Y-21743D01*
X42724Y-20237D02*
X43279Y-21189D01*
X44029Y-21995D01*
X50475Y-12116D02*
X49554Y-11865D01*
X48603Y-11794D01*
X47655Y-11905D01*
X46745Y-12194D01*
X45908Y-12650D01*
X45172Y-13257D01*
X50845Y-12273D02*
X50475Y-12116D01*
X52975Y-14188D02*
X52394Y-13415D01*
X51675Y-12769D01*
X50845Y-12273D01*
X55743Y2757D02*
X56365Y3515D01*
X56827Y4380D01*
X57111Y5317D01*
X57207Y6293D01*
X57111Y7268D01*
X56827Y8206D01*
X56365Y9071D01*
X55743Y9828D01*
X48672Y2757D02*
X49429Y2135D01*
X50294Y1674D01*
X51232Y1389D01*
X52207Y1293D01*
X53183Y1389D01*
X54120Y1674D01*
X54985Y2135D01*
X55743Y2757D01*
X52975Y-19398D02*
X53439Y-18407D01*
X53677Y-17340D01*
Y-16246D01*
X53439Y-15178D01*
X52975Y-14188D01*
X52243Y-20328D02*
X52975Y-19398D01*
X46060Y9321D02*
X45844Y8419D01*
X45797Y7494D01*
X45923Y6575D01*
X46215Y5695D01*
X46665Y4885D01*
X47257Y4172D01*
X54328Y11243D02*
X53544Y11882D01*
X52647Y12351D01*
X51674Y12629D01*
X50665Y12706D01*
X49661Y12577D01*
X48703Y12250D01*
X47831Y11736D01*
X47081Y11057D01*
X46482Y10241D01*
X46060Y9321D01*
X43757Y-14672D02*
X50828Y-21743D01*
X45172Y-13257D02*
X52243Y-20328D01*
X48672Y2757D02*
X55743Y9828D01*
X47257Y4172D02*
X54328Y11243D01*
X61843Y-54158D02*
X82000D01*
X51000Y-65000D02*
X61843Y-54158D01*
X45650Y-65000D02*
X51000D01*
X162078Y-23750D02*
X165500Y-27172D01*
X158000Y-23750D02*
X162078D01*
X165500Y-34500D02*
Y-27172D01*
X165500Y27171D02*
Y34000D01*
X162500Y37000D02*
X165500Y34000D01*
X160500Y37000D02*
X162500D01*
X165000Y26672D02*
X165500Y27171D01*
X165000Y26500D02*
Y26672D01*
X163500Y28000D02*
Y29250D01*
X160750Y32000D02*
X163500Y29250D01*
X160500Y32000D02*
X160750D01*
X161750Y26250D02*
X163500Y28000D01*
X162256Y23756D02*
X165000Y26500D01*
X158006Y23756D02*
X162256D01*
X158000Y23750D02*
X158006Y23756D01*
X158000Y26250D02*
X161750D01*
X160500Y-37000D02*
X163000D01*
X165500Y-34500D01*
X160500Y-32000D02*
X163500D01*
Y-28000D01*
X161860Y-26360D02*
X163500Y-28000D01*
X158110Y-26360D02*
X161860D01*
X158000Y-26250D02*
X158110Y-26360D01*
D14*
X73000Y84000D02*
X84500D01*
X73000Y74000D02*
X91954D01*
X86500Y69150D02*
X94259D01*
X131822Y3822D02*
X132000Y4000D01*
X128150Y3822D02*
X131822D01*
X94259Y69150D02*
X132500Y30909D01*
X131822Y-13822D02*
X132000Y-14000D01*
X128150Y-13822D02*
X131822D01*
X128079Y3750D02*
X128150Y3822D01*
X32150Y20650D02*
X39000Y27500D01*
X27000Y20650D02*
X32150D01*
X22275Y22000D02*
X23625Y20650D01*
X16000Y22000D02*
X22275D01*
X23625Y20650D02*
X27000D01*
X16000Y12000D02*
X17350Y13350D01*
X27000D01*
X34817D01*
X39000Y9167D01*
X21500Y-13000D02*
X23000Y-14500D01*
X16000Y-13000D02*
X21500D01*
X23000Y-14500D02*
X26850D01*
X27000Y-14350D01*
X16000Y-13000D02*
X16975Y-13975D01*
X27000Y-14350D02*
X33817D01*
X39000Y-9167D01*
X26025Y-22625D02*
X27000Y-21650D01*
X16375Y-22625D02*
X26025D01*
X16000Y-23000D02*
X16375Y-22625D01*
X27000Y-21650D02*
X33150D01*
X39000Y-27500D01*
X123500Y5900D02*
X123778Y6178D01*
X128007D01*
X128079Y6250D01*
X123500Y8500D02*
X123678Y8678D01*
X128007D01*
X128079Y8750D01*
X122000Y-11000D02*
X122250Y-11250D01*
X123500Y-8400D02*
X123778Y-8678D01*
X128007D01*
X128079Y-8750D01*
X122250Y-11250D02*
X128079D01*
X125250Y-6250D02*
X128079D01*
X124123Y-5123D02*
X125250Y-6250D01*
X124123Y-5123D02*
Y-3123D01*
X123350Y-2350D02*
X124123Y-3123D01*
X121000Y-2350D02*
X123350D01*
X120650Y-2000D02*
X121000Y-2350D01*
X132500Y26000D02*
Y30909D01*
X81500Y61500D02*
X86150D01*
X86500Y61850D01*
X80000Y63000D02*
X80350Y62650D01*
X80600D01*
X81500Y61750D01*
Y61500D02*
Y61750D01*
X73000Y63000D02*
X80000D01*
X73000Y53000D02*
X80000D01*
X80350Y53350D01*
X80600D01*
X81500Y54250D01*
Y54500D01*
X128079Y-13750D02*
X128150Y-13822D01*
X132367Y18822D02*
X136800Y23254D01*
X128150Y18822D02*
X132367D01*
X136800Y23254D02*
Y31700D01*
X84500Y84000D02*
X136800Y31700D01*
X135000Y24000D02*
Y30954D01*
X91954Y74000D02*
X135000Y30954D01*
X128079Y18750D02*
X128150Y18822D01*
X132322Y21322D02*
X135000Y24000D01*
X128150Y21322D02*
X132322D01*
X128079Y21250D02*
X128150Y21322D01*
X118000Y23650D02*
X118100Y23750D01*
X128079D01*
X132322Y26178D02*
X132500Y26000D01*
X128150Y26178D02*
X132322D01*
X128079Y26250D02*
X128150Y26178D01*
X124000Y-23750D02*
X128079D01*
D15*
X49025Y9475D02*
D03*
X53975Y4525D02*
D03*
X45525Y-19975D02*
D03*
X50475Y-15025D02*
D03*
D16*
X30500Y-65026D02*
D03*
D17*
X23499D02*
D03*
D18*
X158000Y26250D02*
D03*
Y23750D02*
D03*
Y21250D02*
D03*
Y18750D02*
D03*
Y16250D02*
D03*
Y13750D02*
D03*
Y11250D02*
D03*
Y8750D02*
D03*
Y6250D02*
D03*
Y3750D02*
D03*
Y1250D02*
D03*
Y-1250D02*
D03*
Y-3750D02*
D03*
Y-6250D02*
D03*
Y-8750D02*
D03*
Y-11250D02*
D03*
Y-13750D02*
D03*
Y-16250D02*
D03*
Y-18750D02*
D03*
Y-21250D02*
D03*
Y-23750D02*
D03*
Y-26250D02*
D03*
X128079D02*
D03*
Y-23750D02*
D03*
Y-21250D02*
D03*
Y-18750D02*
D03*
Y-16250D02*
D03*
Y-13750D02*
D03*
Y-11250D02*
D03*
Y-8750D02*
D03*
Y-6250D02*
D03*
Y-3750D02*
D03*
Y-1250D02*
D03*
Y1250D02*
D03*
Y3750D02*
D03*
Y6250D02*
D03*
Y8750D02*
D03*
Y11250D02*
D03*
Y13750D02*
D03*
Y16250D02*
D03*
Y18750D02*
D03*
Y21250D02*
D03*
Y23750D02*
D03*
Y26250D02*
D03*
D19*
X81500Y54500D02*
D03*
Y47600D02*
D03*
Y61500D02*
D03*
Y68400D02*
D03*
X114500Y-39500D02*
D03*
Y-32600D02*
D03*
X119500Y-39500D02*
D03*
Y-32600D02*
D03*
X120000Y-18900D02*
D03*
Y-25800D02*
D03*
X115000Y-18900D02*
D03*
Y-25800D02*
D03*
D20*
X86500Y69150D02*
D03*
Y61850D02*
D03*
X118000Y23650D02*
D03*
Y16350D02*
D03*
X27000Y20650D02*
D03*
Y13350D02*
D03*
Y-14350D02*
D03*
Y-21650D02*
D03*
D21*
X91945Y-74221D02*
D03*
X101000D02*
D03*
X110055D02*
D03*
D22*
X101000Y-51780D02*
D03*
D23*
X117500Y-82000D02*
D03*
X110600D02*
D03*
X120400Y-45500D02*
D03*
X113500D02*
D03*
X99400Y-82000D02*
D03*
X92500D02*
D03*
X153600Y-32000D02*
D03*
X160500D02*
D03*
X153600Y-37000D02*
D03*
X160500D02*
D03*
X153600Y37000D02*
D03*
X160500D02*
D03*
X153600Y32000D02*
D03*
X160500D02*
D03*
D24*
X128000Y-32500D02*
D03*
Y-41500D02*
D03*
D25*
X98500Y-30250D02*
D03*
X107500D02*
D03*
D26*
X85914Y-39999D02*
D03*
X100087D02*
D03*
X87914Y-19999D02*
D03*
X102087D02*
D03*
D27*
X45650Y-65000D02*
D03*
X38350D02*
D03*
X113350Y-2000D02*
D03*
X120650D02*
D03*
D28*
X170000Y29500D02*
D03*
Y16500D02*
D03*
X170000Y1500D02*
D03*
Y14500D02*
D03*
X170000Y-1500D02*
D03*
Y-14500D02*
D03*
X170000Y-29500D02*
D03*
Y-16500D02*
D03*
D55*
X110555Y-82500D02*
X110600D01*
X110055Y-82000D02*
X110555Y-82500D01*
X110055Y-82000D02*
Y-74221D01*
X116100Y-74400D02*
X118500Y-72000D01*
Y-67421D01*
X110235Y-74400D02*
X116100D01*
X44029Y-21995D02*
X45525Y-20499D01*
X43627Y-22397D02*
X44029Y-21995D01*
X39000Y-27500D02*
X43627Y-22873D01*
Y-22397D01*
X45525Y-20499D02*
Y-19975D01*
X50845Y-12273D02*
Y-10154D01*
Y-14654D02*
Y-12273D01*
X50475Y-15025D02*
X50845Y-14654D01*
X55743Y2757D02*
X58500Y0D01*
X53975Y4525D02*
X55743Y2757D01*
X50845Y-10154D02*
X58500Y-2500D01*
X107000D01*
X58500Y0D02*
X107000D01*
X46060Y9321D02*
X48871D01*
X39154D02*
X46060D01*
X48871D02*
X49025Y9475D01*
X39000Y9167D02*
X39154Y9321D01*
X74233Y11767D02*
X84261D01*
X68528Y17472D02*
X74233Y11767D01*
X68528Y17472D02*
Y27500D01*
X84261Y11767D02*
X87528Y8500D01*
X83184Y9167D02*
X86451Y5900D01*
X68528Y9167D02*
X83184D01*
X76000Y-11000D02*
X122000D01*
X68843Y-18158D02*
X76000Y-11000D01*
X68843Y-26000D02*
Y-18158D01*
X70671Y-8400D02*
X123500D01*
X69904Y-9167D02*
X70671Y-8400D01*
X101000Y-74221D02*
Y-51780D01*
X38337Y-65013D02*
X38350Y-65000D01*
X30512Y-65013D02*
X38337D01*
X30500Y-65026D02*
X30512Y-65013D01*
X87528Y8500D02*
X123500D01*
X86451Y5900D02*
X123500D01*
X68528Y-9167D02*
X69904D01*
X127866Y-26463D02*
X128039Y-26636D01*
X119000Y-32600D02*
X119750Y-31850D01*
X120650D02*
X126250Y-26250D01*
X119750Y-31850D02*
X120650D01*
X114500Y-32600D02*
X119000D01*
X127950Y-32550D02*
X128000Y-32500D01*
X114500Y-32600D02*
X114550Y-32550D01*
X124100Y-45400D02*
X128000Y-41500D01*
X120500Y-45400D02*
X124100D01*
X120400Y-45500D02*
X120500Y-45400D01*
X121350Y-23750D02*
X124000D01*
X128039Y-32461D02*
Y-26636D01*
X128000Y-32500D02*
X128039Y-32461D01*
X128000Y-45000D02*
Y-41500D01*
X121221Y-51780D02*
X128000Y-45000D01*
X101000Y-51780D02*
X121221D01*
X101000Y-76583D02*
Y-74221D01*
X100083Y-77500D02*
X101000Y-76583D01*
X100083Y-81500D02*
Y-77500D01*
X99583Y-82000D02*
X100083Y-81500D01*
X99400Y-82000D02*
X99583D01*
X110055Y-74221D02*
X110235Y-74400D01*
X150000Y-32000D02*
X153600D01*
X149500Y32000D02*
X153600D01*
X150000Y37000D02*
X153600D01*
X150000Y-37000D02*
X153600D01*
D56*
X380500Y-93500D02*
D03*
Y92520D02*
D03*
X17000D02*
D03*
D57*
X373000Y26000D02*
D03*
Y41000D02*
D03*
X374045Y-42000D02*
D03*
Y-27000D02*
D03*
D58*
X16000Y22000D02*
D03*
Y-13000D02*
D03*
X73000Y74000D02*
D03*
X118500Y-57579D02*
D03*
X82000Y-64000D02*
D03*
X73000Y63000D02*
D03*
D59*
X16000Y12000D02*
D03*
Y-23000D02*
D03*
X73000Y84000D02*
D03*
X118500Y-67421D02*
D03*
X82000Y-54158D02*
D03*
X73000Y53000D02*
D03*
D60*
X143039Y78740D02*
D03*
Y-78740D02*
D03*
D61*
X165000Y0D02*
D03*
X162000D02*
D03*
X165500Y5500D02*
D03*
X163000Y4500D02*
D03*
X152000Y5000D02*
D03*
X149500D02*
D03*
X152000Y7500D02*
D03*
X149500D02*
D03*
X162000Y16000D02*
D03*
X163500Y17500D02*
D03*
X151500Y14000D02*
D03*
X149500D02*
D03*
X151500Y11500D02*
D03*
X149500D02*
D03*
X165500Y-5000D02*
D03*
X163000Y-4500D02*
D03*
X152000Y-6500D02*
D03*
X149500D02*
D03*
X152000Y-4500D02*
D03*
X149500D02*
D03*
X163500Y-17500D02*
D03*
X162000Y-16000D02*
D03*
X152000Y-14000D02*
D03*
X149500D02*
D03*
X152000Y-11500D02*
D03*
X149500D02*
D03*
D62*
X39000Y-27500D02*
D03*
X68528D02*
D03*
X39000Y-9167D02*
D03*
X68528D02*
D03*
X39000Y9167D02*
D03*
X68528D02*
D03*
X39000Y27500D02*
D03*
X68528D02*
D03*
X350027Y-57000D02*
D03*
X290972D02*
D03*
X350027Y-23333D02*
D03*
X290972D02*
D03*
X349027Y21833D02*
D03*
X289972D02*
D03*
X349027Y55500D02*
D03*
X289972D02*
D03*
D63*
X205000Y-500D02*
D03*
X220000D02*
D03*
D64*
X236535Y63728D02*
D03*
X270000D02*
D03*
X236535Y17272D02*
D03*
X270000D02*
D03*
X237268Y-17272D02*
D03*
X270732D02*
D03*
X237268Y-63728D02*
D03*
X270732D02*
D03*
X204111Y55811D02*
D03*
Y-56111D02*
D03*
D65*
X174189Y55811D02*
D03*
Y-56111D02*
D03*
D66*
X88400Y-83500D02*
D03*
Y-80000D02*
D03*
X121900Y-84000D02*
D03*
Y-81000D02*
D03*
X112500Y80500D02*
D03*
X231500Y83000D02*
D03*
X253000Y-83000D02*
D03*
X226500D02*
D03*
X83500Y-37000D02*
D03*
Y-43000D02*
D03*
X128500Y-57000D02*
D03*
X162000Y-53000D02*
D03*
X157800Y-57000D02*
D03*
X136750Y-50500D02*
D03*
X157000D02*
D03*
X150250D02*
D03*
X142400Y-57000D02*
D03*
X143500Y-50500D02*
D03*
X150100Y-57000D02*
D03*
X134700D02*
D03*
X130000Y-50500D02*
D03*
X71000Y-82500D02*
D03*
X132000Y-46000D02*
D03*
X141500Y-31000D02*
D03*
X145000Y-36000D02*
D03*
X136500Y-31500D02*
D03*
X143667Y-46000D02*
D03*
X140000Y-35000D02*
D03*
X149500Y-46000D02*
D03*
X137833D02*
D03*
X134500Y-35000D02*
D03*
X151000Y52000D02*
D03*
X146300Y58500D02*
D03*
X130900D02*
D03*
X144000Y41000D02*
D03*
X137500Y52000D02*
D03*
X138600Y58500D02*
D03*
X130750Y52000D02*
D03*
X124000D02*
D03*
X144250D02*
D03*
X154000Y58500D02*
D03*
X123200D02*
D03*
X142167Y46000D02*
D03*
X130500D02*
D03*
X156000Y68000D02*
D03*
X148000Y46000D02*
D03*
X139500Y41000D02*
D03*
X136333Y46000D02*
D03*
X142500Y37000D02*
D03*
X115500Y58500D02*
D03*
X135000Y41000D02*
D03*
X137500Y36500D02*
D03*
X92500Y66000D02*
D03*
X85000Y76500D02*
D03*
X92500Y58000D02*
D03*
X94000Y49500D02*
D03*
X108500Y49000D02*
D03*
X113500Y22000D02*
D03*
Y26000D02*
D03*
X118000Y28500D02*
D03*
X122500Y27000D02*
D03*
X127500Y30000D02*
D03*
X99500Y58000D02*
D03*
X110000Y-500D02*
D03*
X338000Y56500D02*
D03*
Y19000D02*
D03*
X339000Y-20000D02*
D03*
X332500Y-59000D02*
D03*
X279500Y30000D02*
D03*
Y47500D02*
D03*
X278500Y-49500D02*
D03*
X278000Y-30000D02*
D03*
X21500Y100500D02*
D03*
X69000Y-44500D02*
D03*
X40500D02*
D03*
X14000Y-45000D02*
D03*
X5000Y-70000D02*
D03*
X180500Y-68000D02*
D03*
X170000Y-67500D02*
D03*
X163000Y-62500D02*
D03*
X249364Y56000D02*
D03*
X248864Y66500D02*
D03*
X223364Y72500D02*
D03*
X182364Y67000D02*
D03*
X161864Y53000D02*
D03*
Y59500D02*
D03*
X165864Y67000D02*
D03*
X97500Y31500D02*
D03*
X11000Y46000D02*
D03*
X255500Y0D02*
D03*
X237000D02*
D03*
X268500Y75000D02*
D03*
X261000Y62500D02*
D03*
X266000Y52500D02*
D03*
X264500Y26500D02*
D03*
X260500Y17500D02*
D03*
X267500Y-4000D02*
D03*
X262000Y-16000D02*
D03*
X266000Y-26500D02*
D03*
X267500Y-55000D02*
D03*
X261500Y-64500D02*
D03*
X268000Y-76000D02*
D03*
X245500Y-69000D02*
D03*
X247500Y-59500D02*
D03*
X245500Y-45500D02*
D03*
Y-12000D02*
D03*
X243000Y11500D02*
D03*
X244000Y45000D02*
D03*
X257500Y83000D02*
D03*
X234000Y36000D02*
D03*
Y-34500D02*
D03*
X310000Y-58500D02*
D03*
X312000Y-20000D02*
D03*
Y20000D02*
D03*
X313500Y57000D02*
D03*
X383500Y-41000D02*
D03*
Y-48500D02*
D03*
Y-56500D02*
D03*
Y-64500D02*
D03*
X380500Y-71000D02*
D03*
X375500Y-76000D02*
D03*
X370500Y-81000D02*
D03*
X383500Y40000D02*
D03*
Y47500D02*
D03*
Y55500D02*
D03*
Y63500D02*
D03*
X381500Y69000D02*
D03*
X376000Y75000D02*
D03*
X371500Y79500D02*
D03*
X361000Y-81500D02*
D03*
X352650D02*
D03*
X344300D02*
D03*
X335950D02*
D03*
X277500D02*
D03*
X285850D02*
D03*
X294200D02*
D03*
X302550D02*
D03*
X310900D02*
D03*
X319250D02*
D03*
X327600D02*
D03*
X364000Y82500D02*
D03*
X355650D02*
D03*
X347300D02*
D03*
X338950D02*
D03*
X280500D02*
D03*
X288850D02*
D03*
X297200D02*
D03*
X305550D02*
D03*
X313900D02*
D03*
X322250D02*
D03*
X330600D02*
D03*
X378000Y33333D02*
D03*
X363500Y33833D02*
D03*
X380000Y-34167D02*
D03*
X366000D02*
D03*
X383000Y14833D02*
D03*
Y-16667D02*
D03*
X379000Y-7667D02*
D03*
X378000Y6333D02*
D03*
X390000Y-93500D02*
D03*
Y-72667D02*
D03*
Y-51833D02*
D03*
Y-31000D02*
D03*
Y-10167D02*
D03*
Y31500D02*
D03*
Y10667D02*
D03*
Y52333D02*
D03*
Y73167D02*
D03*
Y94000D02*
D03*
X78500Y32000D02*
D03*
X104000Y14500D02*
D03*
X86000Y18000D02*
D03*
X74500Y43500D02*
D03*
X59500Y45000D02*
D03*
X36000D02*
D03*
X79000Y-30000D02*
D03*
X78500Y-19000D02*
D03*
X72500Y-41500D02*
D03*
X5000Y-86000D02*
D03*
Y-50000D02*
D03*
X6500Y52000D02*
D03*
X5500Y87500D02*
D03*
X17000Y-100500D02*
D03*
X48727D02*
D03*
X80454D02*
D03*
X112182D02*
D03*
X143909D02*
D03*
X175636D02*
D03*
X207364D02*
D03*
X239091D02*
D03*
X270818D02*
D03*
X302545D02*
D03*
X334273D02*
D03*
X366000D02*
D03*
X50227Y100500D02*
D03*
X81954D02*
D03*
X113682D02*
D03*
X145409D02*
D03*
X177136D02*
D03*
X208864D02*
D03*
X240591D02*
D03*
X272318D02*
D03*
X304045D02*
D03*
X335773D02*
D03*
X367500D02*
D03*
X231500Y7500D02*
D03*
Y-7500D02*
D03*
X143000Y11500D02*
D03*
Y16500D02*
D03*
X143500Y-25500D02*
D03*
X143000Y-19500D02*
D03*
X144500Y0D02*
D03*
X364000Y-500D02*
D03*
X335667D02*
D03*
X307333D02*
D03*
X279000D02*
D03*
X210500Y-8000D02*
D03*
Y8000D02*
D03*
X160000Y-43000D02*
D03*
X153000D02*
D03*
X160000Y43500D02*
D03*
X153000D02*
D03*
X188500Y-3000D02*
D03*
Y3000D02*
D03*
X194000Y-8000D02*
D03*
Y8000D02*
D03*
X135500Y11000D02*
D03*
Y17000D02*
D03*
X135000Y-17000D02*
D03*
Y-22000D02*
D03*
X123500Y-16500D02*
D03*
X111500Y-17000D02*
D03*
X119500Y12500D02*
D03*
X116500D02*
D03*
X110000Y-2500D02*
D03*
X173000Y-41500D02*
D03*
X170500Y-39500D02*
D03*
X168000Y-37000D02*
D03*
X170000Y38000D02*
D03*
X172000Y40000D02*
D03*
X167500Y36000D02*
D03*
X95500Y-76500D02*
D03*
Y-72000D02*
D03*
X116500Y-42500D02*
D03*
X111000D02*
D03*
Y-46500D02*
D03*
X85500Y-23000D02*
D03*
Y-20000D02*
D03*
Y-17000D02*
D03*
X83500Y-40000D02*
D03*
D67*
X122500Y14500D02*
D03*
X123500Y-19500D02*
D03*
X122500Y20000D02*
D03*
X134000Y-8500D02*
D03*
Y-2500D02*
D03*
X107000D02*
D03*
Y0D02*
D03*
D68*
X132000Y-14000D02*
D03*
Y4000D02*
D03*
X107250Y-56750D02*
D03*
X132500Y26000D02*
D03*
X150000Y-32000D02*
D03*
X149500Y32000D02*
D03*
X150000Y37000D02*
D03*
Y-37000D02*
D03*
M02*
