G04*
G04 #@! TF.GenerationSoftware,Altium Limited,Altium Designer,19.1.8 (144)*
G04*
G04 Layer_Color=255*
%FSLAX25Y25*%
%MOIN*%
G70*
G01*
G75*
%ADD56C,0.14961*%
%ADD57O,0.11811X0.08661*%
%ADD58C,0.06693*%
%ADD59R,0.06693X0.06693*%
%ADD60C,0.13780*%
%ADD61C,0.02362*%
%ADD62C,0.07087*%
%ADD63O,0.08661X0.11811*%
%ADD64C,0.09843*%
G04:AMPARAMS|DCode=65|XSize=98.43mil|YSize=98.43mil|CornerRadius=24.61mil|HoleSize=0mil|Usage=FLASHONLY|Rotation=270.000|XOffset=0mil|YOffset=0mil|HoleType=Round|Shape=RoundedRectangle|*
%AMROUNDEDRECTD65*
21,1,0.09843,0.04921,0,0,270.0*
21,1,0.04921,0.09843,0,0,270.0*
1,1,0.04921,-0.02461,-0.02461*
1,1,0.04921,-0.02461,0.02461*
1,1,0.04921,0.02461,0.02461*
1,1,0.04921,0.02461,-0.02461*
%
%ADD65ROUNDEDRECTD65*%
%ADD69R,0.06000X0.06299*%
D56*
X380500Y-93500D02*
D03*
Y92520D02*
D03*
X17000D02*
D03*
D57*
X373000Y26000D02*
D03*
Y41000D02*
D03*
X374045Y-42000D02*
D03*
Y-27000D02*
D03*
D58*
X16000Y22000D02*
D03*
Y-13000D02*
D03*
X73000Y74000D02*
D03*
X118500Y-57579D02*
D03*
X82000Y-64000D02*
D03*
X73000Y63000D02*
D03*
D59*
X16000Y12000D02*
D03*
Y-23000D02*
D03*
X73000Y84000D02*
D03*
X118500Y-67421D02*
D03*
X82000Y-54158D02*
D03*
X73000Y53000D02*
D03*
D60*
X143039Y78740D02*
D03*
Y-78740D02*
D03*
D61*
X165000Y0D02*
D03*
X162000D02*
D03*
X165500Y5500D02*
D03*
X163000Y4500D02*
D03*
X152000Y5000D02*
D03*
X149500D02*
D03*
X152000Y7500D02*
D03*
X149500D02*
D03*
X162000Y16000D02*
D03*
X163500Y17500D02*
D03*
X151500Y14000D02*
D03*
X149500D02*
D03*
X151500Y11500D02*
D03*
X149500D02*
D03*
X165500Y-5000D02*
D03*
X163000Y-4500D02*
D03*
X152000Y-6500D02*
D03*
X149500D02*
D03*
X152000Y-4500D02*
D03*
X149500D02*
D03*
X163500Y-17500D02*
D03*
X162000Y-16000D02*
D03*
X152000Y-14000D02*
D03*
X149500D02*
D03*
X152000Y-11500D02*
D03*
X149500D02*
D03*
D62*
X39000Y-27500D02*
D03*
X68528D02*
D03*
X39000Y-9167D02*
D03*
X68528D02*
D03*
X39000Y9167D02*
D03*
X68528D02*
D03*
X39000Y27500D02*
D03*
X68528D02*
D03*
X350027Y-57000D02*
D03*
X290972D02*
D03*
X350027Y-23333D02*
D03*
X290972D02*
D03*
X349027Y21833D02*
D03*
X289972D02*
D03*
X349027Y55500D02*
D03*
X289972D02*
D03*
D63*
X205000Y-500D02*
D03*
X220000D02*
D03*
D64*
X236535Y63728D02*
D03*
X270000D02*
D03*
X236535Y17272D02*
D03*
X270000D02*
D03*
X237268Y-17272D02*
D03*
X270732D02*
D03*
X237268Y-63728D02*
D03*
X270732D02*
D03*
X204111Y55811D02*
D03*
Y-56111D02*
D03*
D65*
X174189Y55811D02*
D03*
Y-56111D02*
D03*
D69*
X101750Y-81500D02*
D03*
X115250D02*
D03*
M02*
