G04*
G04 #@! TF.GenerationSoftware,Altium Limited,Altium Designer,19.1.8 (144)*
G04*
G04 Layer_Color=8388736*
%FSLAX25Y25*%
%MOIN*%
G70*
G01*
G75*
%ADD10C,0.01000*%
%ADD18O,0.05512X0.01575*%
%ADD29C,0.04737*%
%ADD30R,0.05800X0.04300*%
G04:AMPARAMS|DCode=31|XSize=58mil|YSize=43mil|CornerRadius=0mil|HoleSize=0mil|Usage=FLASHONLY|Rotation=180.000|XOffset=0mil|YOffset=0mil|HoleType=Round|Shape=Octagon|*
%AMOCTAGOND31*
4,1,8,-0.02900,0.01075,-0.02900,-0.01075,-0.01825,-0.02150,0.01825,-0.02150,0.02900,-0.01075,0.02900,0.01075,0.01825,0.02150,-0.01825,0.02150,-0.02900,0.01075,0.0*
%
%ADD31OCTAGOND31*%

%ADD32R,0.03800X0.04300*%
%ADD33R,0.03950X0.04800*%
%ADD34R,0.04343X0.09068*%
%ADD35R,0.13398X0.09068*%
%ADD36R,0.04300X0.03800*%
%ADD37R,0.06300X0.04800*%
%ADD38R,0.04800X0.06300*%
%ADD39R,0.08300X0.09800*%
%ADD40R,0.04800X0.03950*%
G04:AMPARAMS|DCode=41|XSize=55.24mil|YSize=68mil|CornerRadius=15.81mil|HoleSize=0mil|Usage=FLASHONLY|Rotation=270.000|XOffset=0mil|YOffset=0mil|HoleType=Round|Shape=RoundedRectangle|*
%AMROUNDEDRECTD41*
21,1,0.05524,0.03638,0,0,270.0*
21,1,0.02362,0.06800,0,0,270.0*
1,1,0.03162,-0.01819,-0.01181*
1,1,0.03162,-0.01819,0.01181*
1,1,0.03162,0.01819,0.01181*
1,1,0.03162,0.01819,-0.01181*
%
%ADD41ROUNDEDRECTD41*%
%ADD42C,0.15761*%
%ADD43O,0.12611X0.09461*%
%ADD44C,0.07493*%
%ADD45R,0.07493X0.07493*%
%ADD46C,0.14580*%
%ADD47C,0.03162*%
%ADD48C,0.07887*%
%ADD49O,0.09461X0.12611*%
%ADD50C,0.10642*%
G04:AMPARAMS|DCode=51|XSize=106.42mil|YSize=106.42mil|CornerRadius=28.61mil|HoleSize=0mil|Usage=FLASHONLY|Rotation=270.000|XOffset=0mil|YOffset=0mil|HoleType=Round|Shape=RoundedRectangle|*
%AMROUNDEDRECTD51*
21,1,0.10642,0.04921,0,0,270.0*
21,1,0.04921,0.10642,0,0,270.0*
1,1,0.05721,-0.02461,-0.02461*
1,1,0.05721,-0.02461,0.02461*
1,1,0.05721,0.02461,0.02461*
1,1,0.05721,0.02461,-0.02461*
%
%ADD51ROUNDEDRECTD51*%
%ADD52C,0.02769*%
%ADD53C,0.03556*%
%ADD54C,0.03359*%
G36*
X52950Y-13964D02*
X53657Y-16086D01*
Y-17500D01*
X52950Y-19621D01*
X52243Y-20328D01*
X45172Y-13257D01*
X46939Y-12197D01*
X50475D01*
X52950Y-13964D01*
D02*
G37*
G36*
X50828Y-21743D02*
X50121Y-22450D01*
X48000Y-23157D01*
X46586D01*
X44464Y-22450D01*
X42697Y-19975D01*
Y-16439D01*
X43757Y-14672D01*
X50828Y-21743D01*
D02*
G37*
G36*
X54328Y11243D02*
X47257Y4172D01*
X46550Y4879D01*
X45843Y7000D01*
Y8414D01*
X46550Y10536D01*
X49025Y12303D01*
X52561D01*
X54328Y11243D01*
D02*
G37*
G36*
X56803Y8061D02*
Y4525D01*
X55036Y2050D01*
X52914Y1343D01*
X51500D01*
X49379Y2050D01*
X48672Y2757D01*
X55743Y9828D01*
X56803Y8061D01*
D02*
G37*
D10*
X54328Y11243D02*
X53571Y11864D01*
X52706Y12326D01*
X51768Y12611D01*
X50793Y12707D01*
X49817Y12611D01*
X48880Y12326D01*
X48015Y11864D01*
X47257Y11243D01*
X46635Y10485D01*
X46174Y9621D01*
X45889Y8683D01*
X45793Y7707D01*
X45889Y6732D01*
X46174Y5794D01*
X46635Y4929D01*
X47257Y4172D01*
X48672Y2757D02*
X49429Y2135D01*
X50294Y1674D01*
X51232Y1389D01*
X52207Y1293D01*
X53183Y1389D01*
X54120Y1674D01*
X54985Y2135D01*
X55743Y2757D01*
X56365Y3515D01*
X56827Y4380D01*
X57111Y5317D01*
X57207Y6293D01*
X57111Y7268D01*
X56827Y8206D01*
X56365Y9071D01*
X55743Y9828D01*
X43757Y-14672D02*
X43135Y-15429D01*
X42674Y-16294D01*
X42389Y-17232D01*
X42293Y-18207D01*
X42389Y-19183D01*
X42674Y-20121D01*
X43135Y-20985D01*
X43757Y-21743D01*
X44515Y-22365D01*
X45379Y-22827D01*
X46317Y-23111D01*
X47293Y-23207D01*
X48268Y-23111D01*
X49206Y-22827D01*
X50071Y-22365D01*
X50828Y-21743D01*
X52243Y-20328D02*
X52864Y-19571D01*
X53326Y-18706D01*
X53611Y-17768D01*
X53707Y-16793D01*
X53611Y-15817D01*
X53326Y-14879D01*
X52864Y-14015D01*
X52243Y-13257D01*
X51485Y-12636D01*
X50621Y-12173D01*
X49683Y-11889D01*
X48707Y-11793D01*
X47732Y-11889D01*
X46794Y-12173D01*
X45929Y-12636D01*
X45172Y-13257D01*
X47257Y4172D02*
X54328Y11243D01*
X48672Y2757D02*
X55743Y9828D01*
X43757Y-14672D02*
X50828Y-21743D01*
X45172Y-13257D02*
X52243Y-20328D01*
D18*
X158000Y26250D02*
D03*
Y23750D02*
D03*
Y21250D02*
D03*
Y18750D02*
D03*
Y16250D02*
D03*
Y13750D02*
D03*
Y11250D02*
D03*
Y8750D02*
D03*
Y6250D02*
D03*
Y3750D02*
D03*
Y1250D02*
D03*
Y-1250D02*
D03*
Y-3750D02*
D03*
Y-6250D02*
D03*
Y-8750D02*
D03*
Y-11250D02*
D03*
Y-13750D02*
D03*
Y-16250D02*
D03*
Y-18750D02*
D03*
Y-21250D02*
D03*
Y-23750D02*
D03*
Y-26250D02*
D03*
X128079D02*
D03*
Y-23750D02*
D03*
Y-21250D02*
D03*
Y-18750D02*
D03*
Y-16250D02*
D03*
Y-13750D02*
D03*
Y-11250D02*
D03*
Y-8750D02*
D03*
Y-6250D02*
D03*
Y-3750D02*
D03*
Y-1250D02*
D03*
Y1250D02*
D03*
Y3750D02*
D03*
Y6250D02*
D03*
Y8750D02*
D03*
Y11250D02*
D03*
Y13750D02*
D03*
Y16250D02*
D03*
Y18750D02*
D03*
Y21250D02*
D03*
Y23750D02*
D03*
Y26250D02*
D03*
D29*
X49025Y9475D02*
D03*
X53975Y4525D02*
D03*
X45525Y-19975D02*
D03*
X50475Y-15025D02*
D03*
D30*
X30500Y-65026D02*
D03*
D31*
X23499D02*
D03*
D32*
X81500Y54500D02*
D03*
Y47600D02*
D03*
Y61500D02*
D03*
Y68400D02*
D03*
X114500Y-39500D02*
D03*
Y-32600D02*
D03*
X119500Y-39500D02*
D03*
Y-32600D02*
D03*
X120000Y-18900D02*
D03*
Y-25800D02*
D03*
X115000Y-18900D02*
D03*
Y-25800D02*
D03*
D33*
X86500Y69150D02*
D03*
Y61850D02*
D03*
X118000Y23650D02*
D03*
Y16350D02*
D03*
X27000Y20650D02*
D03*
Y13350D02*
D03*
Y-14350D02*
D03*
Y-21650D02*
D03*
D34*
X91945Y-74221D02*
D03*
X101000D02*
D03*
X110055D02*
D03*
D35*
X101000Y-51780D02*
D03*
D36*
X117500Y-82000D02*
D03*
X110600D02*
D03*
X120400Y-45500D02*
D03*
X113500D02*
D03*
X99400Y-82000D02*
D03*
X92500D02*
D03*
X153600Y-32000D02*
D03*
X160500D02*
D03*
X153600Y-37000D02*
D03*
X160500D02*
D03*
X153600Y37000D02*
D03*
X160500D02*
D03*
X153600Y32000D02*
D03*
X160500D02*
D03*
D37*
X128000Y-32500D02*
D03*
Y-41500D02*
D03*
D38*
X98500Y-30250D02*
D03*
X107500D02*
D03*
D39*
X85914Y-39999D02*
D03*
X100087D02*
D03*
X87914Y-19999D02*
D03*
X102087D02*
D03*
D40*
X45650Y-65000D02*
D03*
X38350D02*
D03*
X113350Y-2000D02*
D03*
X120650D02*
D03*
D41*
X170000Y29500D02*
D03*
Y16500D02*
D03*
X170000Y1500D02*
D03*
Y14500D02*
D03*
X170000Y-1500D02*
D03*
Y-14500D02*
D03*
X170000Y-29500D02*
D03*
Y-16500D02*
D03*
D42*
X380500Y-93500D02*
D03*
Y92520D02*
D03*
X17000D02*
D03*
D43*
X373000Y26000D02*
D03*
Y41000D02*
D03*
X374045Y-42000D02*
D03*
Y-27000D02*
D03*
D44*
X16000Y22000D02*
D03*
Y-13000D02*
D03*
X73000Y74000D02*
D03*
X118500Y-57579D02*
D03*
X82000Y-64000D02*
D03*
X73000Y63000D02*
D03*
D45*
X16000Y12000D02*
D03*
Y-23000D02*
D03*
X73000Y84000D02*
D03*
X118500Y-67421D02*
D03*
X82000Y-54158D02*
D03*
X73000Y53000D02*
D03*
D46*
X143039Y78740D02*
D03*
Y-78740D02*
D03*
D47*
X165000Y0D02*
D03*
X162000D02*
D03*
X165500Y5500D02*
D03*
X163000Y4500D02*
D03*
X152000Y5000D02*
D03*
X149500D02*
D03*
X152000Y7500D02*
D03*
X149500D02*
D03*
X162000Y16000D02*
D03*
X163500Y17500D02*
D03*
X151500Y14000D02*
D03*
X149500D02*
D03*
X151500Y11500D02*
D03*
X149500D02*
D03*
X165500Y-5000D02*
D03*
X163000Y-4500D02*
D03*
X152000Y-6500D02*
D03*
X149500D02*
D03*
X152000Y-4500D02*
D03*
X149500D02*
D03*
X163500Y-17500D02*
D03*
X162000Y-16000D02*
D03*
X152000Y-14000D02*
D03*
X149500D02*
D03*
X152000Y-11500D02*
D03*
X149500D02*
D03*
D48*
X39000Y-27500D02*
D03*
X68528D02*
D03*
X39000Y-9167D02*
D03*
X68528D02*
D03*
X39000Y9167D02*
D03*
X68528D02*
D03*
X39000Y27500D02*
D03*
X68528D02*
D03*
X350027Y-57000D02*
D03*
X290972D02*
D03*
X350027Y-23333D02*
D03*
X290972D02*
D03*
X349027Y21833D02*
D03*
X289972D02*
D03*
X349027Y55500D02*
D03*
X289972D02*
D03*
D49*
X205000Y-500D02*
D03*
X220000D02*
D03*
D50*
X236535Y63728D02*
D03*
X270000D02*
D03*
X236535Y17272D02*
D03*
X270000D02*
D03*
X237268Y-17272D02*
D03*
X270732D02*
D03*
X237268Y-63728D02*
D03*
X270732D02*
D03*
X204111Y55811D02*
D03*
Y-56111D02*
D03*
D51*
X174189Y55811D02*
D03*
Y-56111D02*
D03*
D52*
X88400Y-83500D02*
D03*
Y-80000D02*
D03*
X121900Y-84000D02*
D03*
Y-81000D02*
D03*
X112500Y80500D02*
D03*
X231500Y83000D02*
D03*
X253000Y-83000D02*
D03*
X226500D02*
D03*
X83500Y-37000D02*
D03*
Y-43000D02*
D03*
X128500Y-57000D02*
D03*
X162000Y-53000D02*
D03*
X157800Y-57000D02*
D03*
X136750Y-50500D02*
D03*
X157000D02*
D03*
X150250D02*
D03*
X142400Y-57000D02*
D03*
X143500Y-50500D02*
D03*
X150100Y-57000D02*
D03*
X134700D02*
D03*
X130000Y-50500D02*
D03*
X71000Y-82500D02*
D03*
X132000Y-46000D02*
D03*
X141500Y-31000D02*
D03*
X145000Y-36000D02*
D03*
X136500Y-31500D02*
D03*
X143667Y-46000D02*
D03*
X140000Y-35000D02*
D03*
X149500Y-46000D02*
D03*
X137833D02*
D03*
X134500Y-35000D02*
D03*
X151000Y52000D02*
D03*
X146300Y58500D02*
D03*
X130900D02*
D03*
X144000Y41000D02*
D03*
X137500Y52000D02*
D03*
X138600Y58500D02*
D03*
X130750Y52000D02*
D03*
X124000D02*
D03*
X144250D02*
D03*
X154000Y58500D02*
D03*
X123200D02*
D03*
X142167Y46000D02*
D03*
X130500D02*
D03*
X156000Y68000D02*
D03*
X148000Y46000D02*
D03*
X139500Y41000D02*
D03*
X136333Y46000D02*
D03*
X142500Y37000D02*
D03*
X115500Y58500D02*
D03*
X135000Y41000D02*
D03*
X137500Y36500D02*
D03*
X92500Y66000D02*
D03*
X85000Y76500D02*
D03*
X92500Y58000D02*
D03*
X94000Y49500D02*
D03*
X108500Y49000D02*
D03*
X113500Y22000D02*
D03*
Y26000D02*
D03*
X118000Y28500D02*
D03*
X122500Y27000D02*
D03*
X127500Y30000D02*
D03*
X99500Y58000D02*
D03*
X110000Y-500D02*
D03*
X338000Y56500D02*
D03*
Y19000D02*
D03*
X339000Y-20000D02*
D03*
X332500Y-59000D02*
D03*
X279500Y30000D02*
D03*
Y47500D02*
D03*
X278500Y-49500D02*
D03*
X278000Y-30000D02*
D03*
X21500Y100500D02*
D03*
X69000Y-44500D02*
D03*
X40500D02*
D03*
X14000Y-45000D02*
D03*
X5000Y-70000D02*
D03*
X180500Y-68000D02*
D03*
X170000Y-67500D02*
D03*
X163000Y-62500D02*
D03*
X249364Y56000D02*
D03*
X248864Y66500D02*
D03*
X223364Y72500D02*
D03*
X182364Y67000D02*
D03*
X161864Y53000D02*
D03*
Y59500D02*
D03*
X165864Y67000D02*
D03*
X97500Y31500D02*
D03*
X11000Y46000D02*
D03*
X255500Y0D02*
D03*
X237000D02*
D03*
X268500Y75000D02*
D03*
X261000Y62500D02*
D03*
X266000Y52500D02*
D03*
X264500Y26500D02*
D03*
X260500Y17500D02*
D03*
X267500Y-4000D02*
D03*
X262000Y-16000D02*
D03*
X266000Y-26500D02*
D03*
X267500Y-55000D02*
D03*
X261500Y-64500D02*
D03*
X268000Y-76000D02*
D03*
X245500Y-69000D02*
D03*
X247500Y-59500D02*
D03*
X245500Y-45500D02*
D03*
Y-12000D02*
D03*
X243000Y11500D02*
D03*
X244000Y45000D02*
D03*
X257500Y83000D02*
D03*
X234000Y36000D02*
D03*
Y-34500D02*
D03*
X310000Y-58500D02*
D03*
X312000Y-20000D02*
D03*
Y20000D02*
D03*
X313500Y57000D02*
D03*
X383500Y-41000D02*
D03*
Y-48500D02*
D03*
Y-56500D02*
D03*
Y-64500D02*
D03*
X380500Y-71000D02*
D03*
X375500Y-76000D02*
D03*
X370500Y-81000D02*
D03*
X383500Y40000D02*
D03*
Y47500D02*
D03*
Y55500D02*
D03*
Y63500D02*
D03*
X381500Y69000D02*
D03*
X376000Y75000D02*
D03*
X371500Y79500D02*
D03*
X361000Y-81500D02*
D03*
X352650D02*
D03*
X344300D02*
D03*
X335950D02*
D03*
X277500D02*
D03*
X285850D02*
D03*
X294200D02*
D03*
X302550D02*
D03*
X310900D02*
D03*
X319250D02*
D03*
X327600D02*
D03*
X364000Y82500D02*
D03*
X355650D02*
D03*
X347300D02*
D03*
X338950D02*
D03*
X280500D02*
D03*
X288850D02*
D03*
X297200D02*
D03*
X305550D02*
D03*
X313900D02*
D03*
X322250D02*
D03*
X330600D02*
D03*
X378000Y33333D02*
D03*
X363500Y33833D02*
D03*
X380000Y-34167D02*
D03*
X366000D02*
D03*
X383000Y14833D02*
D03*
Y-16667D02*
D03*
X379000Y-7667D02*
D03*
X378000Y6333D02*
D03*
X390000Y-93500D02*
D03*
Y-72667D02*
D03*
Y-51833D02*
D03*
Y-31000D02*
D03*
Y-10167D02*
D03*
Y31500D02*
D03*
Y10667D02*
D03*
Y52333D02*
D03*
Y73167D02*
D03*
Y94000D02*
D03*
X78500Y32000D02*
D03*
X104000Y14500D02*
D03*
X86000Y18000D02*
D03*
X74500Y43500D02*
D03*
X59500Y45000D02*
D03*
X36000D02*
D03*
X79000Y-30000D02*
D03*
X78500Y-19000D02*
D03*
X72500Y-41500D02*
D03*
X5000Y-86000D02*
D03*
Y-50000D02*
D03*
X6500Y52000D02*
D03*
X5500Y87500D02*
D03*
X17000Y-100500D02*
D03*
X48727D02*
D03*
X80454D02*
D03*
X112182D02*
D03*
X143909D02*
D03*
X175636D02*
D03*
X207364D02*
D03*
X239091D02*
D03*
X270818D02*
D03*
X302545D02*
D03*
X334273D02*
D03*
X366000D02*
D03*
X50227Y100500D02*
D03*
X81954D02*
D03*
X113682D02*
D03*
X145409D02*
D03*
X177136D02*
D03*
X208864D02*
D03*
X240591D02*
D03*
X272318D02*
D03*
X304045D02*
D03*
X335773D02*
D03*
X367500D02*
D03*
X231500Y7500D02*
D03*
Y-7500D02*
D03*
X143000Y11500D02*
D03*
Y16500D02*
D03*
X143500Y-25500D02*
D03*
X143000Y-19500D02*
D03*
X144500Y0D02*
D03*
X364000Y-500D02*
D03*
X335667D02*
D03*
X307333D02*
D03*
X279000D02*
D03*
X210500Y-8000D02*
D03*
Y8000D02*
D03*
X160000Y-43000D02*
D03*
X153000D02*
D03*
X160000Y43500D02*
D03*
X153000D02*
D03*
X188500Y-3000D02*
D03*
Y3000D02*
D03*
X194000Y-8000D02*
D03*
Y8000D02*
D03*
X135500Y11000D02*
D03*
Y17000D02*
D03*
X135000Y-17000D02*
D03*
Y-22000D02*
D03*
X123500Y-16500D02*
D03*
X111500Y-17000D02*
D03*
X119500Y12500D02*
D03*
X116500D02*
D03*
X110000Y-2500D02*
D03*
X173000Y-41500D02*
D03*
X170500Y-39500D02*
D03*
X168000Y-37000D02*
D03*
X170000Y38000D02*
D03*
X172000Y40000D02*
D03*
X167500Y36000D02*
D03*
X95500Y-76500D02*
D03*
Y-72000D02*
D03*
X116500Y-42500D02*
D03*
X111000D02*
D03*
Y-46500D02*
D03*
X85500Y-23000D02*
D03*
Y-20000D02*
D03*
Y-17000D02*
D03*
X83500Y-40000D02*
D03*
D53*
X122500Y14500D02*
D03*
X123500Y-19500D02*
D03*
X122500Y20000D02*
D03*
X134000Y-8500D02*
D03*
Y-2500D02*
D03*
X107000D02*
D03*
Y0D02*
D03*
D54*
X132000Y-14000D02*
D03*
Y4000D02*
D03*
X107250Y-56750D02*
D03*
X132500Y26000D02*
D03*
X150000Y-32000D02*
D03*
X149500Y32000D02*
D03*
X150000Y37000D02*
D03*
Y-37000D02*
D03*
M02*
